<?xml version="1.0" encoding="UTF-8" standalone="no"?>
<!DOCTYPE svg PUBLIC "-//W3C//DTD SVG 1.1//EN" "http://www.w3.org/Graphics/SVG/1.1/DTD/svg11.dtd">
<svg width="347px" height="400px" version="1.1" xmlns="http://www.w3.org/2000/svg" xmlns:xlink="http://www.w3.org/1999/xlink" xml:space="preserve" xmlns:serif="http://www.serif.com/" style="fill-rule:evenodd;clip-rule:evenodd;stroke-linejoin:round;stroke-miterlimit:2;">
    <g transform="matrix(1,0,0,1,-26.791851,-0.012592)">
        <g id="Layer1" transform="matrix(1,0,0,1,1,0)">
            <g transform="matrix(140.279304,-37.544565,-37.544565,-140.279304,68.750503,180.202345)">
                <path d="M-0.143,0.61C-0.143,0.61 -0.138,0.605 -0.133,0.556C-0.115,0.378 -0.133,-0.088 0.114,-0.342C0.59,-0.831 1.304,-0.151 0.82,0.343C0.543,0.625 -0.026,0.593 -0.088,0.6C-0.138,0.606 -0.143,0.61 -0.143,0.61Z" style="fill:rgb(35,32,31);fill-rule:nonzero;"/>
            </g>
            <g transform="matrix(-102.654199,-102.713158,-102.713158,102.654199,246.9803,322.711269)">
                <path d="M-0.143,0.61C-0.143,0.61 -0.138,0.605 -0.133,0.556C-0.115,0.378 -0.133,-0.088 0.114,-0.342C0.59,-0.831 1.304,-0.151 0.82,0.343C0.543,0.625 -0.026,0.593 -0.088,0.6C-0.138,0.606 -0.143,0.61 -0.143,0.61Z" style="fill:rgb(35,32,31);fill-rule:nonzero;"/>
            </g>
            <g transform="matrix(-37.625105,140.257724,140.257724,37.625105,281.28175,97.105274)">
                <path d="M-0.143,0.61C-0.143,0.61 -0.138,0.605 -0.133,0.556C-0.115,0.378 -0.133,-0.088 0.114,-0.342C0.59,-0.831 1.304,-0.151 0.82,0.343C0.543,0.625 -0.026,0.593 -0.088,0.6C-0.138,0.606 -0.143,0.61 -0.143,0.61Z" style="fill:rgb(35,32,31);fill-rule:nonzero;"/>
            </g>
            <g transform="matrix(-0.664609,-1.151137,1.151137,-0.664609,158.705779,530.211556)">
                <g transform="matrix(77.229008,77.273364,77.273364,-77.229008,163.886435,58.152305)">
                    <path d="M-0.143,0.61C-0.143,0.61 -0.138,0.605 -0.133,0.556C-0.115,0.378 -0.133,-0.088 0.114,-0.342C0.59,-0.831 1.304,-0.151 0.82,0.343C0.543,0.625 -0.026,0.593 -0.088,0.6C-0.138,0.606 -0.143,0.61 -0.143,0.61Z" style="fill:rgb(35,32,31);fill-rule:nonzero;"/>
                </g>
                <g transform="matrix(66.691469,66.729773,66.729773,-66.691469,168.822991,58.788573)">
                    <path d="M-0.117,0.584C-0.117,0.584 -0.13,-0.15 0.185,-0.404C0.682,-0.805 1.299,-0.216 0.867,0.288C0.598,0.602 -0.117,0.584 -0.117,0.584Z" style="fill:white;fill-rule:nonzero;"/>
                </g>
                <g transform="matrix(-30.847689,-0.008856,-0.008856,30.847689,216.578657,83.071461)">
                    <path d="M0.537,-0.321L0.015,0.283L1.06,0.285L0.537,-0.321Z" style="fill:rgb(35,32,31);fill-rule:nonzero;"/>
                </g>
            </g>
            <g transform="matrix(-0.664609,1.151137,-1.151137,-0.664609,505.119531,69.803109)">
                <g transform="matrix(77.229008,77.273364,77.273364,-77.229008,163.886435,58.152305)">
                    <path d="M-0.143,0.61C-0.143,0.61 -0.138,0.605 -0.133,0.556C-0.115,0.378 -0.133,-0.088 0.114,-0.342C0.59,-0.831 1.304,-0.151 0.82,0.343C0.543,0.625 -0.026,0.593 -0.088,0.6C-0.138,0.606 -0.143,0.61 -0.143,0.61Z" style="fill:rgb(35,32,31);fill-rule:nonzero;"/>
                </g>
                <g transform="matrix(66.691469,66.729773,66.729773,-66.691469,168.822991,58.788573)">
                    <path d="M-0.117,0.584C-0.117,0.584 -0.13,-0.15 0.185,-0.404C0.682,-0.805 1.299,-0.216 0.867,0.288C0.598,0.602 -0.117,0.584 -0.117,0.584Z" style="fill:white;fill-rule:nonzero;"/>
                </g>
                <g transform="matrix(66.691469,66.729773,66.729773,-66.691469,168.822991,58.788573)">
                    <path d="M-0.117,0.584C-0.117,0.584 -0.13,-0.15 0.185,-0.404C0.682,-0.805 1.299,-0.216 0.867,0.288C0.598,0.602 -0.117,0.584 -0.117,0.584Z" style="fill:url(#_Linear1);fill-rule:nonzero;"/>
                </g>
                <g transform="matrix(-30.847689,-0.008856,-0.008856,30.847689,216.578657,83.071461)">
                    <path d="M0.537,-0.321L0.015,0.283L1.06,0.285L0.537,-0.321Z" style="fill:rgb(35,32,31);fill-rule:nonzero;"/>
                </g>
            </g>
            <g transform="matrix(1.329218,0,0,1.329218,-66.812757,0.004223)">
                <g transform="matrix(77.229008,77.273364,77.273364,-77.229008,163.886435,58.152305)">
                    <path d="M-0.143,0.61C-0.143,0.61 -0.138,0.605 -0.133,0.556C-0.115,0.378 -0.133,-0.088 0.114,-0.342C0.59,-0.831 1.304,-0.151 0.82,0.343C0.543,0.625 -0.026,0.593 -0.088,0.6C-0.138,0.606 -0.143,0.61 -0.143,0.61Z" style="fill:rgb(35,32,31);fill-rule:nonzero;"/>
                </g>
                <g transform="matrix(66.691469,66.729773,66.729773,-66.691469,168.822991,58.788573)">
                    <path d="M-0.117,0.584C-0.117,0.584 -0.13,-0.15 0.185,-0.404C0.682,-0.805 1.299,-0.216 0.867,0.288C0.598,0.602 -0.117,0.584 -0.117,0.584Z" style="fill:white;fill-rule:nonzero;"/>
                </g>
                <g transform="matrix(66.691469,66.729773,66.729773,-66.691469,168.822991,58.788573)">
                    <path d="M-0.117,0.584C-0.117,0.584 -0.13,-0.15 0.185,-0.404C0.682,-0.805 1.299,-0.216 0.867,0.288C0.598,0.602 -0.117,0.584 -0.117,0.584Z" style="fill:url(#_Linear2);fill-rule:nonzero;"/>
                </g>
                <g transform="matrix(-30.847689,-0.008856,-0.008856,30.847689,216.578657,83.071461)">
                    <path d="M0.537,-0.321L0.015,0.283L1.06,0.285L0.537,-0.321Z" style="fill:rgb(35,32,31);fill-rule:nonzero;"/>
                </g>
            </g>
            <g transform="matrix(1,0,0,1,-0.995816,0)">
                <g transform="matrix(-8.342978,0,0,8.342978,200,271.407546)">
                    <path d="M0,-17.118C4.719,-17.118 8.559,-13.278 8.559,-8.558C8.559,-3.84 4.719,0 0,0C-4.719,0 -8.559,-3.84 -8.559,-8.558C-8.559,-13.278 -4.719,-17.118 0,-17.118" style="fill:white;fill-rule:nonzero;"/>
                </g>
                <g transform="matrix(8.342978,0,0,8.342978,200,280.964426)">
                    <path d="M0,-19.409C-5.351,-19.409 -9.705,-15.055 -9.705,-9.704C-9.705,-4.354 -5.351,0 0,0C5.351,0 9.705,-4.354 9.705,-9.704C9.705,-15.055 5.351,-19.409 0,-19.409M0,-1.146C-4.719,-1.146 -8.559,-4.985 -8.559,-9.704C-8.559,-14.424 -4.719,-18.263 0,-18.263C4.719,-18.263 8.559,-14.424 8.559,-9.704C8.559,-4.985 4.719,-1.146 0,-1.146" style="fill:rgb(35,31,32);fill-rule:nonzero;"/>
                </g>
                <g transform="matrix(0,-8.342978,-8.342978,0,199.998331,136.603382)">
                    <path d="M-1.259,-1.259C-1.955,-1.259 -2.519,-0.696 -2.519,0.001C-2.519,0.697 -1.955,1.259 -1.259,1.259C-0.563,1.259 0.001,0.697 0.001,0.001C0.001,-0.696 -0.563,-1.259 -1.259,-1.259" style="fill:rgb(35,31,32);fill-rule:nonzero;"/>
                </g>
                <g transform="matrix(0,-8.342978,-8.342978,0,200.002503,238.759805)">
                    <path d="M-1.26,-1.259C-0.564,-1.259 0.001,-0.696 0.001,0.001C0.001,0.697 -0.564,1.26 -1.26,1.26C-1.955,1.26 -2.52,0.697 -2.52,0.001C-2.52,-0.696 -1.955,-1.259 -1.26,-1.259" style="fill:rgb(35,31,32);fill-rule:nonzero;"/>
                </g>
                <g transform="matrix(-8.342978,0,0,8.342978,147.131385,208.498157)">
                    <path d="M0,-2.52C-0.695,-2.52 -1.26,-1.957 -1.26,-1.26C-1.26,-0.564 -0.695,0 0,0C0.696,0 1.26,-0.564 1.26,-1.26C1.26,-1.957 0.696,-2.52 0,-2.52" style="fill:rgb(35,31,32);fill-rule:nonzero;"/>
                </g>
                <g transform="matrix(-8.342978,0,0,8.342978,252.864443,210.095003)">
                    <path d="M0,-2.519C0.696,-2.519 1.26,-1.956 1.26,-1.259C1.26,-0.563 0.696,0 0,0C-0.696,0 -1.26,-0.563 -1.26,-1.259C-1.26,-1.956 -0.696,-2.519 0,-2.519" style="fill:rgb(35,31,32);fill-rule:nonzero;"/>
                </g>
                <g transform="matrix(-5.899376,-5.899376,-5.899376,5.899376,155.56399,164.055056)">
                    <path d="M-0.892,-2.149C-1.588,-2.149 -2.151,-1.586 -2.151,-0.89C-2.151,-0.194 -1.588,0.369 -0.892,0.369C-0.195,0.37 0.368,-0.193 0.368,-0.891C0.368,-1.587 -0.195,-2.15 -0.892,-2.149" style="fill:rgb(35,31,32);fill-rule:nonzero;"/>
                </g>
                <g transform="matrix(-5.899376,-5.899376,-5.899376,5.899376,225.611124,236.336617)">
                    <path d="M-0.891,-2.152C-0.196,-2.151 0.368,-1.588 0.369,-0.892C0.369,-0.196 -0.194,0.368 -0.891,0.368C-1.587,0.368 -2.151,-0.196 -2.151,-0.892C-2.15,-1.588 -1.586,-2.152 -0.891,-2.152" style="fill:rgb(35,31,32);fill-rule:nonzero;"/>
                </g>
                <g transform="matrix(-5.899376,5.899376,5.899376,5.899376,175.687372,238.753131)">
                    <path d="M0.891,-2.15C0.195,-2.151 -0.369,-1.586 -0.369,-0.891C-0.369,-0.195 0.195,0.369 0.891,0.369C1.586,0.369 2.151,-0.195 2.15,-0.891C2.151,-1.586 1.586,-2.15 0.891,-2.15" style="fill:rgb(35,31,32);fill-rule:nonzero;"/>
                </g>
                <g transform="matrix(-7.216936,4.185823,4.185823,7.216936,190.041301,210.457011)">
                    <path d="M0.681,-2.533C-0.069,-2.533 -0.677,-1.926 -0.677,-1.174C-0.677,-0.424 -0.07,0.183 0.681,0.183C1.432,0.182 2.04,-0.426 2.039,-1.176C2.04,-1.926 1.431,-2.533 0.681,-2.533" style="fill:rgb(35,31,32);fill-rule:nonzero;"/>
                </g>
                <g transform="matrix(-5.89772,5.901032,5.901032,5.89772,246.642339,164.051719)">
                    <path d="M0.891,-2.15C1.587,-2.15 2.151,-1.587 2.151,-0.891C2.152,-0.195 1.588,0.369 0.891,0.369C0.195,0.369 -0.369,-0.194 -0.369,-0.89C-0.368,-1.586 0.194,-2.151 0.891,-2.15" style="fill:rgb(35,31,32);fill-rule:nonzero;"/>
                </g>
                <g transform="matrix(-7.216936,4.185823,4.185823,7.216936,225.118106,198.80548)">
                    <path d="M0.681,-2.534C1.432,-2.534 2.039,-1.927 2.04,-1.176C2.04,-0.424 1.433,0.183 0.681,0.182C-0.068,0.184 -0.676,-0.424 -0.677,-1.175C-0.677,-1.927 -0.069,-2.535 0.681,-2.534" style="fill:rgb(35,31,32);fill-rule:nonzero;"/>
                </g>
            </g>
        </g>
    </g>
    <defs>
        <linearGradient id="_Linear1" x1="0" y1="0" x2="1" y2="0" gradientUnits="userSpaceOnUse" gradientTransform="matrix(-0.606942,0.639454,0.639454,0.606942,0.563299,-0.095826)"><stop offset="0" style="stop-color:rgb(253,228,107);stop-opacity:1"/><stop offset="0.26" style="stop-color:rgb(250,237,245);stop-opacity:1"/><stop offset="0.53" style="stop-color:rgb(250,209,227);stop-opacity:1"/><stop offset="1" style="stop-color:rgb(241,125,177);stop-opacity:1"/></linearGradient>
        <linearGradient id="_Linear2" x1="0" y1="0" x2="1" y2="0" gradientUnits="userSpaceOnUse" gradientTransform="matrix(-0.606942,0.639454,0.639454,0.606942,0.563299,-0.095826)"><stop offset="0" style="stop-color:rgb(253,228,107);stop-opacity:1"/><stop offset="0.26" style="stop-color:rgb(250,237,245);stop-opacity:1"/><stop offset="0.53" style="stop-color:rgb(250,209,227);stop-opacity:1"/><stop offset="1" style="stop-color:rgb(241,125,177);stop-opacity:1"/></linearGradient>
    </defs>
</svg>
