<?xml version="1.0" encoding="UTF-8" standalone="no"?>
<!DOCTYPE svg PUBLIC "-//W3C//DTD SVG 1.1//EN" "http://www.w3.org/Graphics/SVG/1.1/DTD/svg11.dtd">
<svg width="100%" height="100%" viewBox="0 0 400 400" version="1.1" xmlns="http://www.w3.org/2000/svg" xmlns:xlink="http://www.w3.org/1999/xlink" xml:space="preserve" xmlns:serif="http://www.serif.com/" style="fill-rule:evenodd;clip-rule:evenodd;stroke-miterlimit:10;">
    <g id="Layer-1" serif:id="Layer 1" transform="matrix(5.555556,0,0,5.555556,0,0)">
        <g transform="matrix(1,0,0,1,56.5977,35.4959)">
            <path d="M0,1.008C6.819,-2.734 10.55,-13.486 11.641,-14.554C10.464,-14.416 3.714,-16.861 -2.639,-16.595C-2.057,-22.924 -4.159,-29.781 -3.983,-30.96C-5.08,-29.909 -16.024,-26.72 -20.095,-20.092C-23.836,-26.911 -34.614,-30.632 -35.657,-31.734C-35.54,-30.548 -37.975,-23.8 -37.701,-17.451C-44.032,-18.026 -50.895,-15.912 -52.063,-16.108C-51.025,-14.988 -47.823,-4.066 -41.196,0.002C-48.016,3.743 -51.745,14.494 -52.837,15.562C-51.658,15.424 -44.908,17.87 -38.556,17.603C-39.139,23.933 -37.036,30.791 -37.212,31.97C-36.115,30.918 -25.171,27.731 -21.101,21.103C-17.357,27.92 -6.582,31.639 -5.54,32.742C-5.657,31.556 -3.222,24.81 -3.493,18.46C2.837,19.035 9.698,16.923 10.867,17.118C9.829,15.997 6.631,5.076 0,1.008M-20.846,10.647C-21.67,9.19 -22.823,8.002 -24.178,7.287C-24.988,6.86 -25.901,6.592 -26.858,6.468C-26.935,5.505 -27.157,4.58 -27.546,3.749C-28.194,2.362 -29.325,1.152 -30.739,0.257C-29.282,-0.567 -28.094,-1.721 -27.38,-3.076C-26.951,-3.886 -26.684,-4.799 -26.561,-5.757C-25.599,-5.833 -24.674,-6.055 -23.844,-6.444C-22.457,-7.092 -21.244,-8.222 -20.351,-9.638C-19.526,-8.18 -18.37,-6.992 -17.017,-6.277C-16.206,-5.848 -15.294,-5.581 -14.336,-5.458C-14.26,-4.496 -14.036,-3.572 -13.648,-2.741C-13.001,-1.353 -11.869,-0.142 -10.455,0.753C-11.911,1.577 -13.1,2.731 -13.814,4.086C-14.243,4.896 -14.511,5.809 -14.635,6.766C-15.598,6.842 -16.521,7.065 -17.352,7.453C-18.739,8.101 -19.951,9.232 -20.846,10.647" style="fill:rgb(35,31,32);fill-rule:nonzero;"/>
        </g>
        <g transform="matrix(0.423156,0.906057,0.906057,-0.423156,30.642144,31.515313)">
            <path d="M6.331,-4.031C2.472,-4.03 -0.655,-0.903 -0.657,2.956C-0.657,6.815 2.473,9.944 6.331,9.945C10.189,9.944 13.317,6.816 13.318,2.958C13.319,-0.903 10.188,-4.03 6.331,-4.031" style="fill:rgb(35,31,32);fill-rule:nonzero;"/>
        </g>
        <g transform="matrix(1,0,0,1,17.2275,27.1106)">
            <path d="M0,17.781C-5.969,17.781 -11.458,12.763 -14.407,10.069C-14.951,9.572 -15.378,9.183 -15.729,8.885C-15.389,8.593 -14.974,8.216 -14.448,7.734C-11.494,5.032 -5.995,0 0,0C5.766,0 9.785,4.684 9.785,8.889C9.785,13.095 5.766,17.781 0,17.781" style="fill:white;fill-rule:nonzero;"/>
        </g>
        <g transform="matrix(1,0,0,1,17.2275,44.0317)">
            <path d="M0,-16.063C5.26,-16.063 8.925,-11.83 8.925,-8.032C8.925,-4.233 5.26,0 0,0C-5.635,0 -10.964,-4.87 -13.827,-7.487C-14.046,-7.686 -14.247,-7.87 -14.433,-8.038C-14.258,-8.195 -14.07,-8.367 -13.868,-8.552C-11,-11.176 -5.661,-16.063 0,-16.063M0,-17.781C-8.472,-17.781 -15.652,-8.585 -17.229,-8.032C-15.652,-7.509 -8.472,1.718 0,1.718C6.25,1.718 10.644,-3.368 10.644,-8.032C10.644,-12.694 6.25,-17.781 0,-17.781" style="fill:rgb(35,31,32);fill-rule:nonzero;"/>
        </g>
        <g transform="matrix(1,0,0,1,54.7725,27.1106)">
            <path d="M0,17.781C-5.767,17.781 -9.785,13.095 -9.785,8.889C-9.785,4.684 -5.767,0 0,0C5.995,0 11.494,5.032 14.448,7.734C14.973,8.216 15.388,8.593 15.729,8.885C15.378,9.183 14.951,9.572 14.407,10.069C11.458,12.763 5.968,17.781 0,17.781" style="fill:white;fill-rule:nonzero;"/>
        </g>
        <g transform="matrix(1,0,0,1,54.7725,44.0317)">
            <path d="M0,-16.063C5.661,-16.063 11,-11.176 13.868,-8.552C14.069,-8.367 14.258,-8.195 14.432,-8.038C14.247,-7.87 14.046,-7.686 13.827,-7.487C10.964,-4.87 5.634,0 0,0C-5.26,0 -8.925,-4.233 -8.925,-8.032C-8.925,-11.83 -5.26,-16.063 0,-16.063M0,-17.781C-6.25,-17.781 -10.645,-12.694 -10.645,-8.032C-10.645,-3.368 -6.25,1.718 0,1.718C8.471,1.718 15.651,-7.509 17.227,-8.032C15.651,-8.585 8.471,-17.781 0,-17.781" style="fill:rgb(35,31,32);fill-rule:nonzero;"/>
        </g>
        <g transform="matrix(1,0,0,1,35.9951,44.988)">
            <path d="M0,25.514C-0.292,25.172 -0.669,24.758 -1.149,24.232C-3.853,21.278 -8.886,15.78 -8.886,9.785C-8.886,4.018 -4.2,0 0.005,0C4.21,0 8.896,4.018 8.896,9.785C8.896,15.752 3.879,21.243 1.185,24.191C0.687,24.735 0.299,25.162 0,25.514" style="fill:white;fill-rule:nonzero;"/>
        </g>
        <g transform="matrix(1,0,0,1,36,70.2807)">
            <path d="M0,-24.433C3.8,-24.433 8.031,-20.767 8.031,-15.508C8.031,-9.874 3.161,-4.543 0.544,-1.681C0.346,-1.462 0.162,-1.261 -0.006,-1.076C-0.164,-1.249 -0.336,-1.438 -0.521,-1.64C-3.146,-4.508 -8.03,-9.846 -8.03,-15.508C-8.03,-20.767 -3.799,-24.433 0,-24.433M0,-26.152C-4.663,-26.152 -9.75,-21.758 -9.75,-15.508C-9.75,-7.037 -0.554,0.144 0,1.719C0.522,0.144 9.75,-7.037 9.75,-15.508C9.75,-21.758 4.663,-26.152 0,-26.152" style="fill:rgb(35,31,32);fill-rule:nonzero;"/>
        </g>
        <g transform="matrix(1,0,0,1,36,1.4977)">
            <path d="M0,25.514C-4.205,25.514 -8.891,21.495 -8.891,15.729C-8.891,9.735 -3.858,4.236 -1.154,1.282C-0.674,0.756 -0.297,0.342 -0.005,0C0.294,0.352 0.683,0.78 1.18,1.324C3.874,4.272 8.892,9.761 8.892,15.729C8.892,21.495 4.205,25.514 0,25.514" style="fill:white;fill-rule:nonzero;"/>
        </g>
        <g transform="matrix(1,0,0,1,35.9941,25.0759)">
            <path d="M0,-22.281C0.168,-22.094 0.351,-21.894 0.55,-21.676C3.167,-18.812 8.038,-13.483 8.038,-7.848C8.038,-2.589 3.805,1.077 0.006,1.077C-3.793,1.077 -8.025,-2.589 -8.025,-7.848C-8.025,-13.51 -3.14,-18.848 -0.515,-21.717C-0.329,-21.92 -0.158,-22.107 0,-22.281M0.006,-25.076C-0.548,-23.501 -9.744,-16.319 -9.744,-7.848C-9.744,-1.597 -4.657,2.795 0.006,2.795C4.67,2.795 9.756,-1.597 9.756,-7.848C9.756,-16.319 0.528,-23.501 0.006,-25.076" style="fill:rgb(35,31,32);fill-rule:nonzero;"/>
        </g>
        <g transform="matrix(1,0,0,1,57.8164,39.5852)">
            <path d="M0,18.238C-0.34,18.193 -0.746,18.145 -1.235,18.088C-5.011,17.647 -12.039,16.828 -15.724,13.143C-17.326,11.542 -18.216,9.426 -18.231,7.186C-18.244,5.16 -17.511,3.208 -16.267,1.964C-15.02,0.717 -13.136,0 -11.102,0C-8.841,0 -6.705,0.89 -5.088,2.508C-1.424,6.171 -0.601,13.178 -0.159,16.942C-0.099,17.458 -0.048,17.884 0,18.238" style="fill:white;fill-rule:nonzero;"/>
        </g>
        <g transform="matrix(1,0,0,1,46.7158,58.9256)">
            <path d="M0,-20.2L0,-18.482C2.031,-18.482 3.95,-17.68 5.405,-16.225C8.858,-12.773 9.659,-5.959 10.088,-2.298C10.097,-2.225 10.104,-2.157 10.113,-2.089C10.063,-2.094 10.015,-2.099 9.965,-2.106C6.293,-2.534 -0.543,-3.332 -4.017,-6.804C-5.457,-8.246 -6.258,-10.148 -6.271,-12.16C-6.283,-13.961 -5.644,-15.683 -4.56,-16.768C-3.487,-17.841 -1.783,-18.482 -0.001,-18.482L0,-20.2ZM-0.001,-20.2C-2.247,-20.199 -4.37,-19.388 -5.774,-17.984C-8.608,-15.149 -9.03,-9.387 -5.231,-5.59C-0.083,-0.441 10.915,-0.621 12.209,0C11.568,-1.275 11.769,-12.293 6.62,-17.441C4.703,-19.358 2.287,-20.2 -0.001,-20.2" style="fill:rgb(35,31,32);fill-rule:nonzero;"/>
        </g>
        <g transform="matrix(1,0,0,1,25.2861,14.179)">
            <path d="M0,18.238C-2.261,18.238 -4.397,17.346 -6.013,15.729C-9.677,12.065 -10.5,5.059 -10.942,1.295C-11.003,0.78 -11.054,0.354 -11.103,0C-10.762,0.045 -10.356,0.092 -9.868,0.149C-6.091,0.59 0.937,1.409 4.623,5.093C6.225,6.696 7.115,8.811 7.13,11.051C7.144,13.078 6.409,15.03 5.166,16.273C3.917,17.521 2.034,18.238 0,18.238" style="fill:white;fill-rule:nonzero;"/>
        </g>
        <g transform="matrix(1,0,0,1,15.1729,31.187)">
            <path d="M0,-16.022C0.048,-16.016 0.096,-16.011 0.146,-16.005C3.818,-15.577 10.655,-14.781 14.129,-11.307C15.569,-9.866 16.371,-7.964 16.385,-5.951C16.396,-4.149 15.756,-2.427 14.672,-1.342C13.599,-0.27 11.895,0.37 10.113,0.37C8.082,0.37 6.162,-0.431 4.708,-1.886C1.255,-5.339 0.454,-12.152 0.024,-15.813C0.016,-15.884 0.008,-15.954 0,-16.022M-2.098,-18.111C-1.457,-16.835 -1.656,-5.819 3.493,-0.671C5.41,1.248 7.825,2.089 10.113,2.089C12.358,2.089 14.482,1.277 15.887,-0.126C18.722,-2.96 19.142,-8.723 15.344,-12.522C10.196,-17.669 -0.803,-17.49 -2.098,-18.111" style="fill:rgb(35,31,32);fill-rule:nonzero;"/>
        </g>
        <g transform="matrix(1,0,0,1,46.7148,14.179)">
            <path d="M0,18.238C-2.034,18.238 -3.917,17.521 -5.165,16.273C-7.682,13.758 -8.076,8.548 -4.622,5.093C-0.937,1.409 6.092,0.59 9.868,0.149C10.355,0.092 10.762,0.045 11.102,0C11.054,0.353 11.003,0.78 10.942,1.294C10.501,5.058 9.679,12.065 6.014,15.729C4.396,17.346 2.262,18.238 0.001,18.238L0,18.238Z" style="fill:white;fill-rule:nonzero;"/>
        </g>
        <g transform="matrix(1,0,0,1,56.8281,31.187)">
            <path d="M0,-16.022C-0.008,-15.955 -0.016,-15.886 -0.024,-15.814C-0.454,-12.153 -1.254,-5.339 -4.708,-1.886C-6.163,-0.431 -8.082,0.37 -10.113,0.37C-11.896,0.37 -13.599,-0.27 -14.672,-1.342C-16.899,-3.57 -17.225,-8.21 -14.129,-11.307C-10.654,-14.781 -3.818,-15.577 -0.146,-16.005C-0.097,-16.011 -0.048,-16.016 0,-16.022M2.098,-18.111C0.803,-17.49 -10.195,-17.669 -15.344,-12.522C-19.143,-8.723 -18.72,-2.96 -15.887,-0.126C-14.482,1.277 -12.359,2.089 -10.113,2.089C-7.825,2.089 -5.409,1.248 -3.492,-0.671C1.656,-5.819 1.457,-16.835 2.098,-18.111" style="fill:rgb(35,31,32);fill-rule:nonzero;"/>
        </g>
        <g transform="matrix(1,0,0,1,14.1846,39.5852)">
            <path d="M0,18.238C0.048,17.884 0.099,17.458 0.158,16.942C0.601,13.178 1.425,6.171 5.088,2.508C6.705,0.89 8.841,0 11.102,0C13.136,0 15.019,0.717 16.268,1.964C17.511,3.208 18.246,5.16 18.231,7.186C18.217,9.426 17.327,11.542 15.724,13.144C12.04,16.828 5.01,17.648 1.233,18.088C0.746,18.145 0.34,18.193 0,18.238" style="fill:white;fill-rule:nonzero;"/>
        </g>
        <g transform="matrix(1,0,0,1,25.2861,57.2073)">
            <path d="M0,-16.763C1.782,-16.763 3.486,-16.122 4.558,-15.05C5.643,-13.966 6.283,-12.243 6.271,-10.441C6.257,-8.428 5.456,-6.526 4.015,-5.085C0.542,-1.613 -6.295,-0.815 -9.967,-0.387C-10.017,-0.381 -10.066,-0.376 -10.113,-0.37C-10.106,-0.438 -10.097,-0.508 -10.089,-0.579C-9.659,-4.241 -8.859,-11.055 -5.406,-14.507C-3.951,-15.961 -2.032,-16.763 0,-16.763M0,-18.481C-2.288,-18.481 -4.704,-17.639 -6.621,-15.722C-11.77,-10.576 -11.57,0.444 -12.21,1.718C-10.916,1.098 0.083,1.277 5.229,-3.87C9.029,-7.669 8.608,-13.431 5.772,-16.265C4.369,-17.669 2.246,-18.481 0,-18.481" style="fill:rgb(35,31,32);fill-rule:nonzero;"/>
        </g>
        <g transform="matrix(1,0,0,1,43.9072,32.2654)">
            <path d="M0,7.47C3.045,7.052 6.062,3.989 6.628,3.792C6.057,3.6 2.997,0.428 -0.083,0.046C0.896,-2.101 0.895,-4.873 1.093,-5.267C0.696,-5.078 -2.027,-5.074 -4.163,-4.118C-4.553,-7.18 -7.665,-10.232 -7.853,-10.801C-8.057,-10.227 -11.251,-7.133 -11.602,-4.036C-13.762,-5.027 -16.576,-5.002 -16.982,-5.192C-16.785,-4.805 -16.762,-2.122 -15.814,0C-18.86,0.417 -21.878,3.481 -22.444,3.678C-21.872,3.87 -18.813,7.041 -15.733,7.424C-16.713,9.571 -16.71,12.342 -16.909,12.738C-16.511,12.546 -13.788,12.543 -11.652,11.587C-11.262,14.653 -8.15,17.701 -7.965,18.271C-7.76,17.697 -4.564,14.603 -4.215,11.504C-2.053,12.495 0.762,12.47 1.168,12.661C0.97,12.275 0.947,9.592 0,7.47M-9.082,7.093C-9.217,6.541 -9.479,6.044 -9.849,5.674C-10.221,5.301 -10.726,5.038 -11.284,4.906C-11.13,4.518 -11.043,4.117 -11.041,3.723C-11.039,3.343 -11.117,2.958 -11.257,2.584C-10.714,2.444 -10.226,2.179 -9.863,1.811C-9.489,1.43 -9.229,0.917 -9.103,0.349C-8.707,0.51 -8.298,0.6 -7.896,0.602C-7.509,0.604 -7.115,0.523 -6.734,0.377C-6.6,0.929 -6.338,1.425 -5.968,1.795C-5.595,2.168 -5.091,2.431 -4.531,2.564C-4.686,2.951 -4.773,3.353 -4.774,3.747C-4.776,4.126 -4.698,4.511 -4.56,4.886C-5.103,5.026 -5.589,5.291 -5.951,5.659C-6.325,6.04 -6.587,6.553 -6.714,7.121C-7.108,6.96 -7.518,6.87 -7.92,6.868C-8.308,6.866 -8.701,6.949 -9.082,7.093" style="fill:rgb(35,31,32);fill-rule:nonzero;"/>
        </g>
        <g transform="matrix(-1,0,0,1,36.001,44.5594)">
            <path d="M0.001,-17.118C4.72,-17.118 8.56,-13.278 8.56,-8.558C8.56,-3.84 4.72,0 0.001,0C-4.719,0 -8.559,-3.84 -8.559,-8.558C-8.559,-13.278 -4.719,-17.118 0.001,-17.118" style="fill:white;fill-rule:nonzero;"/>
        </g>
        <g transform="matrix(1,0,0,1,36,45.7049)">
            <path d="M0,-19.409C-5.351,-19.409 -9.705,-15.055 -9.705,-9.704C-9.705,-4.354 -5.351,0 0,0C5.352,0 9.705,-4.354 9.705,-9.704C9.705,-15.055 5.352,-19.409 0,-19.409M0,-1.146C-4.719,-1.146 -8.559,-4.985 -8.559,-9.704C-8.559,-14.424 -4.719,-18.263 0,-18.263C4.72,-18.263 8.56,-14.424 8.56,-9.704C8.56,-4.985 4.72,-1.146 0,-1.146" style="fill:rgb(35,31,32);fill-rule:nonzero;"/>
        </g>
        <g transform="matrix(0,-1,-1,0,35.9998,28.4011)">
            <path d="M-1.26,-1.26C-1.956,-1.26 -2.52,-0.697 -2.52,0.001C-2.52,0.696 -1.956,1.26 -1.26,1.26C-0.564,1.26 0,0.696 0,0.001C0,-0.697 -0.564,-1.26 -1.26,-1.26" style="fill:rgb(35,31,32);fill-rule:nonzero;"/>
        </g>
        <g transform="matrix(0,-1,-1,0,36.0003,40.6457)">
            <path d="M-1.26,-1.26C-0.565,-1.26 0,-0.697 0,0.001C0,0.696 -0.565,1.26 -1.26,1.26C-1.955,1.26 -2.521,0.696 -2.521,0.001C-2.521,-0.697 -1.955,-1.26 -1.26,-1.26" style="fill:rgb(35,31,32);fill-rule:nonzero;"/>
        </g>
        <g transform="matrix(-1,0,0,1,29.6631,37.019)">
            <path d="M0,-2.52C-0.695,-2.52 -1.26,-1.957 -1.26,-1.26C-1.26,-0.564 -0.695,0 0,0C0.696,0 1.26,-0.564 1.26,-1.26C1.26,-1.957 0.696,-2.52 0,-2.52" style="fill:rgb(35,31,32);fill-rule:nonzero;"/>
        </g>
        <g transform="matrix(-1,0,0,1,42.3369,37.2104)">
            <path d="M0,-2.519C0.696,-2.519 1.26,-1.956 1.26,-1.259C1.26,-0.563 0.696,0 0,0C-0.696,0 -1.26,-0.563 -1.26,-1.259C-1.26,-1.956 -0.696,-2.519 0,-2.519" style="fill:rgb(35,31,32);fill-rule:nonzero;"/>
        </g>
        <g transform="matrix(-0.707107,-0.707107,-0.707107,0.707107,30.673843,31.691993)">
            <path d="M-0.892,-2.149C-1.588,-2.149 -2.151,-1.586 -2.151,-0.89C-2.151,-0.194 -1.588,0.369 -0.892,0.369C-0.195,0.37 0.368,-0.193 0.368,-0.891C0.368,-1.587 -0.195,-2.15 -0.892,-2.149" style="fill:rgb(35,31,32);fill-rule:nonzero;"/>
        </g>
        <g transform="matrix(-0.707107,-0.707107,-0.707107,0.707107,39.070282,40.355754)">
            <path d="M-0.891,-2.152C-0.196,-2.151 0.368,-1.588 0.369,-0.892C0.369,-0.196 -0.194,0.368 -0.891,0.368C-1.587,0.368 -2.151,-0.196 -2.151,-0.892C-2.15,-1.588 -1.586,-2.152 -0.891,-2.152" style="fill:rgb(35,31,32);fill-rule:nonzero;"/>
        </g>
        <g transform="matrix(-0.707107,0.707107,0.707107,0.707107,33.085504,40.645754)">
            <path d="M0.89,-2.15C0.195,-2.15 -0.37,-1.586 -0.37,-0.89C-0.369,-0.195 0.195,0.369 0.89,0.369C1.585,0.369 2.15,-0.195 2.149,-0.89C2.15,-1.585 1.585,-2.15 0.89,-2.15" style="fill:rgb(35,31,32);fill-rule:nonzero;"/>
        </g>
        <g transform="matrix(-0.865031,0.501718,0.501718,0.865031,34.805905,37.254042)">
            <path d="M0.681,-2.533C-0.069,-2.533 -0.677,-1.926 -0.677,-1.175C-0.677,-0.425 -0.071,0.184 0.681,0.184C1.431,0.183 2.039,-0.425 2.038,-1.176C2.039,-1.925 1.43,-2.533 0.681,-2.533" style="fill:rgb(35,31,32);fill-rule:nonzero;"/>
        </g>
        <g transform="matrix(-0.707107,0.707107,0.707107,0.707107,41.590257,31.6923)">
            <path d="M0.891,-2.15C1.586,-2.15 2.15,-1.586 2.151,-0.89C2.151,-0.195 1.588,0.369 0.891,0.369C0.195,0.369 -0.369,-0.195 -0.369,-0.891C-0.368,-1.587 0.195,-2.151 0.891,-2.15" style="fill:rgb(35,31,32);fill-rule:nonzero;"/>
        </g>
        <g transform="matrix(-0.865031,0.501718,0.501718,0.865031,39.011188,35.857223)">
            <path d="M0.681,-2.534C1.432,-2.534 2.039,-1.927 2.04,-1.176C2.04,-0.424 1.433,0.183 0.681,0.182C-0.068,0.184 -0.676,-0.424 -0.677,-1.175C-0.676,-1.927 -0.069,-2.535 0.681,-2.534" style="fill:rgb(35,31,32);fill-rule:nonzero;"/>
        </g>
        <g transform="matrix(-0.000001,-22.65332,-22.65332,0.000001,36.000001,25.449219)">
            <path d="M0.975,0.023C0.852,0.136 0.625,0.342 0.383,0.354C0.36,0.312 0.332,0.275 0.299,0.242C0.213,0.155 0.103,0.119 0,0.121C0.087,0.073 0.158,0.004 0.176,-0.002C0.159,-0.008 0.091,-0.074 0.006,-0.12C0.107,-0.12 0.215,-0.157 0.299,-0.242C0.332,-0.275 0.359,-0.312 0.383,-0.354C0.624,-0.342 0.85,-0.136 0.973,-0.024C0.983,-0.015 0.992,-0.007 1,0C0.992,0.007 0.984,0.015 0.975,0.023Z" style="fill:url(#_Linear1);fill-rule:nonzero;"/>
        </g>
        <g transform="matrix(1,0,0,1,46.7148,56.8374)">
            <path d="M0,-16.394C-0.802,-16.394 -1.584,-16.257 -2.304,-16.018C-2.326,-15.979 -2.352,-15.938 -2.375,-15.9C-1.848,-14.077 -1.802,-12.227 -1.641,-11.91C-1.964,-12.063 -3.812,-12.079 -5.643,-12.58C-5.728,-12.528 -5.81,-12.474 -5.896,-12.424C-6.141,-11.691 -6.276,-10.891 -6.271,-10.071C-6.258,-8.059 -5.456,-6.158 -4.016,-4.717C-0.541,-1.243 6.294,-0.447 9.966,-0.017C10.015,-0.012 10.064,-0.006 10.112,0C10.105,-0.07 10.098,-0.137 10.089,-0.209C9.659,-3.872 8.859,-10.685 5.406,-14.137C3.951,-15.593 2.032,-16.394 0,-16.394" style="fill:rgb(35,31,32);fill-rule:nonzero;"/>
        </g>
        <g transform="matrix(1,0,0,1,46.7148,56.8374)">
            <path d="M0,-16.394C-0.802,-16.394 -1.584,-16.257 -2.304,-16.018C-2.326,-15.979 -2.352,-15.938 -2.375,-15.9C-1.848,-14.077 -1.802,-12.227 -1.641,-11.91C-1.964,-12.063 -3.812,-12.079 -5.643,-12.58C-5.728,-12.528 -5.81,-12.474 -5.896,-12.424C-6.141,-11.691 -6.276,-10.891 -6.271,-10.071C-6.258,-8.059 -5.456,-6.158 -4.016,-4.717C-0.541,-1.243 6.294,-0.447 9.966,-0.017C10.015,-0.012 10.064,-0.006 10.112,0C10.105,-0.07 10.098,-0.137 10.089,-0.209C9.659,-3.872 8.859,-10.685 5.406,-14.137C3.951,-15.593 2.032,-16.394 0,-16.394Z" style="fill:none;fill-rule:nonzero;stroke:rgb(35,31,32);stroke-width:1px;"/>
        </g>
        <g transform="matrix(1,0,0,1,26.9248,19.6482)">
            <path d="M0,7.425C0.323,7.576 2.173,7.592 4.006,8.093C4.089,8.042 4.172,7.989 4.258,7.939C4.502,7.206 4.638,6.407 4.632,5.588C4.619,3.575 3.818,1.674 2.377,0.231C-1.098,-3.242 -7.934,-4.038 -11.606,-4.467C-11.655,-4.472 -11.704,-4.477 -11.752,-4.483C-11.745,-4.415 -11.736,-4.346 -11.729,-4.275C-11.298,-0.612 -10.498,6.2 -7.045,9.652C-5.591,11.109 -3.671,11.908 -1.639,11.908C-0.838,11.908 -0.056,11.773 0.664,11.532C0.686,11.494 0.712,11.454 0.734,11.416C0.206,9.591 0.16,7.739 0,7.425Z" style="fill:rgb(35,31,32);fill-rule:nonzero;stroke:rgb(35,31,32);stroke-width:1px;"/>
        </g>
        <g transform="matrix(1,0,0,1,45,19.7251)">
            <path d="M0,7.272C-0.159,7.589 -0.19,9.441 -0.703,11.267C-0.665,11.331 -0.625,11.392 -0.589,11.456C0.131,11.696 0.913,11.832 1.715,11.832C3.745,11.832 5.666,11.032 7.121,9.575C10.574,6.123 11.374,-0.69 11.804,-4.353C11.813,-4.423 11.82,-4.493 11.827,-4.56C11.779,-4.554 11.731,-4.549 11.682,-4.543C8.01,-4.115 1.174,-3.319 -2.301,0.154C-4.558,2.412 -4.99,5.487 -4.199,7.852C-4.131,7.892 -4.066,7.934 -4,7.974C-2.173,7.458 -0.323,7.426 0,7.272Z" style="fill:rgb(35,31,32);fill-rule:nonzero;stroke:rgb(35,31,32);stroke-width:1px;"/>
        </g>
        <g transform="matrix(1,0,0,1,26.998,52.2769)">
            <path d="M0,-7.274C0.16,-7.592 0.191,-9.444 0.703,-11.271C0.666,-11.334 0.627,-11.394 0.591,-11.458C-0.129,-11.697 -0.911,-11.834 -1.713,-11.834C-3.743,-11.834 -5.663,-11.033 -7.119,-9.577C-10.57,-6.125 -11.371,0.689 -11.801,4.351C-11.81,4.423 -11.817,4.491 -11.826,4.56C-11.777,4.554 -11.729,4.548 -11.68,4.543C-8.006,4.115 -1.17,3.319 2.304,-0.154C3.744,-1.596 4.545,-3.499 4.56,-5.51C4.564,-6.33 4.429,-7.13 4.185,-7.864C4.121,-7.9 4.062,-7.939 3.999,-7.976C2.173,-7.461 0.323,-7.429 0,-7.274Z" style="fill:rgb(35,31,32);fill-rule:nonzero;stroke:rgb(35,31,32);stroke-width:1px;"/>
        </g>
    </g>
    <defs>
        <linearGradient id="_Linear1" x1="0" y1="0" x2="1" y2="0" gradientUnits="userSpaceOnUse" gradientTransform="matrix(1,0,0,-1,0,0)"><stop offset="0" style="stop-color:rgb(253,228,107);stop-opacity:1"/><stop offset="0.18" style="stop-color:rgb(250,237,245);stop-opacity:1"/><stop offset="0.53" style="stop-color:rgb(250,209,227);stop-opacity:1"/><stop offset="1" style="stop-color:rgb(241,125,177);stop-opacity:1"/></linearGradient>
    </defs>
</svg>
