<?xml version="1.0" encoding="UTF-8" standalone="no"?>
<!DOCTYPE svg PUBLIC "-//W3C//DTD SVG 1.1//EN" "http://www.w3.org/Graphics/SVG/1.1/DTD/svg11.dtd">
<svg width="2835px" height="2835px" version="1.1" xmlns="http://www.w3.org/2000/svg" xmlns:xlink="http://www.w3.org/1999/xlink" xml:space="preserve" xmlns:serif="http://www.serif.com/" style="fill-rule:evenodd;clip-rule:evenodd;stroke-linecap:round;stroke-linejoin:round;stroke-miterlimit:1.5;">
    <g id="Page-1" serif:id="Page 1" transform="matrix(4.166667,0,0,4.166667,0,0)">
        <rect x="0" y="0" width="680.315" height="680.315" style="fill:none;"/>
        <clipPath id="_clip1">
            <rect x="0" y="0" width="680.315" height="680.315"/>
        </clipPath>
        <g clip-path="url(#_clip1)">
            <g id="Layer-2" serif:id="Layer 2">
                <g transform="matrix(0.24,0,0,0.24,0,0)">
                    <rect x="0" y="0" width="2834.646" height="2834.646" style="fill:rgb(235,235,235);stroke:black;stroke-width:166.67px;"/>
                </g>
                <g transform="matrix(0.24,0,0,0.24,0,0)">
                    <rect x="0" y="0" width="2834.646" height="2834.646" style="fill:rgb(235,235,235);fill-opacity:0;stroke:rgb(235,235,255);stroke-width:125px;"/>
                </g>
                <g transform="matrix(0.24,0,0,0.24,0,0)">
                    <rect x="0" y="0" width="2834.646" height="2834.646" style="fill:rgb(235,235,235);fill-opacity:0;stroke:rgb(235,235,255);stroke-width:125px;"/>
                </g>
                <g transform="matrix(0.24,0,0,0.24,0,0)">
                    <rect x="0" y="0" width="2834.646" height="2834.646" style="fill:rgb(235,235,235);fill-opacity:0;stroke:rgb(235,235,235);stroke-width:125px;"/>
                </g>
                <g transform="matrix(0.24,0,0,0.24,0,0)">
                    <rect x="0" y="0" width="2834.646" height="2834.646" style="fill:rgb(235,235,235);fill-opacity:0;stroke:black;stroke-width:83.33px;"/>
                </g>
            </g>
            <g id="Layer-1" serif:id="Layer 1" transform="matrix(1,0,0,1,0.000222,-3.064094)">
                <g transform="matrix(1,0,0,1,408.0218,397.425)">
                    <path d="M0,-297.518C-0.114,-297.442 -0.228,-297.366 -0.341,-297.289C-14.872,-287.465 -27.2,-268.532 -37.222,-254.793C-48.781,-238.945 -58.696,-221.975 -65.184,-203.78C-79.562,-163.461 -76.209,-118.328 -57.841,-79.417C-51.245,-65.442 -42.641,-52.048 -30.671,-41.556C-20.912,-33.002 -9.301,-26.629 1.115,-18.831C11.914,-10.746 17.659,-0.751 26.533,8.653C42.048,-10.433 52.399,-37.143 63.605,-58.752C75.492,-81.673 86.452,-105.069 94.643,-129.362C111.156,-178.331 115.809,-232.787 94.361,-280.095C82.539,-306.171 73.195,-288.666 57.689,-277.54C46.199,-269.295 25.33,-262.415 11.531,-269.377C0.131,-275.128 -0.805,-287.239 0,-297.518" style="fill:rgb(35,31,32);fill-rule:nonzero;"/>
                </g>
                <g transform="matrix(1,0,0,1,584.5802,565.3814)">
                    <path d="M0,-433.969C-19.373,-480.89 -61.741,-519.225 -112.915,-536.136C-101.992,-525.846 -92.478,-514.525 -84.32,-502.426C-51.018,-453.032 -40.323,-390.653 -48.692,-332.319C-59.11,-259.695 -95.885,-192.414 -139.48,-131.225C-161.679,-151.858 -193.852,-160.396 -218.743,-178.215C-265.332,-211.568 -278.923,-272.183 -272.946,-326.361C-270.683,-346.879 -265.803,-367.104 -258.545,-386.604C-251.459,-405.645 -242.171,-423.928 -231.541,-441.489C-223.322,-455.067 -214.305,-468.222 -204.928,-481.139C-196.759,-492.391 -184.231,-500.981 -171.903,-508.155C-191.857,-516.858 -225.31,-488.099 -237.863,-476.461C-302.721,-416.327 -336.386,-328.65 -327.046,-244.191C-325.559,-230.753 -323.03,-217.35 -318.276,-204.576C-299.337,-153.689 -248.633,-119.651 -200.723,-89.058C-206.183,-72.895 -226.836,-64.329 -245.019,-66.422C-263.202,-68.514 -279.028,-78.828 -292.576,-90.228C-325.487,-117.92 -349.919,-154.124 -362.349,-193.617C-378.841,-246.02 -374.173,-302.072 -364.806,-355.955C-362.033,-371.909 -360.462,-391.624 -374.873,-400.777C-382.957,-405.912 -393.54,-405.714 -403.339,-405.294C-430.653,-404.123 -457.957,-402.747 -485.247,-401.164C-490.645,-391.458 -492.98,-380.318 -491.892,-369.452C-466.414,-370.553 -440.708,-366.954 -416.726,-358.928C-412.596,-347.576 -420.267,-333.772 -432.658,-330.259C-444.57,-326.882 -459.109,-331.614 -471.262,-331.83C-482.081,-333.418 -492.87,-334.702 -503.594,-337.024C-499.035,-326.16 -496.878,-317.355 -495.753,-311.109C-495.04,-307.152 -494.158,-300.983 -491.484,-300.505C-469.879,-295.962 -447.718,-293.681 -425.561,-293.721C-424.518,-285.293 -423.698,-275.998 -428.997,-269.07C-434.032,-262.487 -442.301,-260.373 -451.504,-259.648C-468.292,-260.048 -485.079,-260.449 -501.867,-260.849C-501.71,-257.49 -501.422,-252.586 -500.855,-246.623C-500.306,-240.855 -500.048,-239.905 -499.86,-239.296C-497.747,-232.447 -492.083,-228.545 -487.81,-225.601C-487.799,-225.594 -487.787,-225.586 -487.776,-225.579C-486.123,-224.321 -484.348,-223.181 -482.484,-222.18C-481.076,-221.388 -479.584,-220.667 -477.991,-220.105C-475.99,-219.32 -473.932,-218.686 -471.851,-218.234C-456.847,-214.975 -441.205,-218.495 -426.267,-222.003C-424.744,-154.485 -386.439,-88.53 -326.392,-50.033C-292.258,-28.15 -252.561,-15.166 -215.027,1.289C-209.497,3.714 -203.751,6.418 -200.35,11.12C-193.94,19.979 -198.323,32.065 -204.616,40.995C-210.909,49.925 -219.202,58.357 -220.747,68.917C-176.899,102.167 -105.761,98.78 -65.843,61.542C-88.712,70.048 -114.22,72.392 -138.455,68.215C-147.377,66.677 -157.052,63.613 -161.3,56.202C-165.152,49.483 -163.326,41.236 -160.567,34.073C-154.537,18.42 -144.61,4.35 -134.976,-9.68C-92.6,-71.388 -54.21,-135.433 -20.08,-201.362C-12.432,-216.136 -4.976,-231.054 0.386,-246.663C7.884,-268.486 11.183,-291.354 13.12,-314.18C16.544,-354.526 15.612,-396.157 0,-433.969" style="fill:rgb(35,31,32);fill-rule:nonzero;"/>
                </g>
                <g transform="matrix(0,1,1,0,479.8951,552.7403)">
                    <path d="M30.97,-30.97C46.775,-30.97 59.587,-17.103 59.587,0C59.587,17.104 46.775,30.97 30.97,30.97C15.164,30.97 2.352,17.104 2.352,0C2.352,-17.103 15.164,-30.97 30.97,-30.97" style="fill:rgb(35,31,32);fill-rule:nonzero;"/>
                </g>
            </g>
        </g>
    </g>
</svg>
