<?xml version="1.0" encoding="UTF-8" standalone="no"?>
<!DOCTYPE svg PUBLIC "-//W3C//DTD SVG 1.1//EN" "http://www.w3.org/Graphics/SVG/1.1/DTD/svg11.dtd">
<svg width="2835px" height="2835px" version="1.1" xmlns="http://www.w3.org/2000/svg" xmlns:xlink="http://www.w3.org/1999/xlink" xml:space="preserve" xmlns:serif="http://www.serif.com/" style="fill-rule:evenodd;clip-rule:evenodd;stroke-linecap:round;stroke-linejoin:round;stroke-miterlimit:1.5;">
    <g id="Page-1" serif:id="Page 1" transform="matrix(4.166667,0,0,4.166667,0,0)">
        <rect x="0" y="0" width="680.315" height="680.315" style="fill:none;"/>
        <clipPath id="_clip1">
            <rect x="0" y="0" width="680.315" height="680.315"/>
        </clipPath>
        <g clip-path="url(#_clip1)">
            <g id="Layer-2" serif:id="Layer 2">
                <g transform="matrix(0.24,0,0,0.24,0,0)">
                    <rect x="0" y="0" width="2834.646" height="2834.646" style="fill:rgb(235,235,235);stroke:black;stroke-width:166.67px;"/>
                </g>
                <g transform="matrix(0.24,0,0,0.24,0,0)">
                    <rect x="0" y="0" width="2834.646" height="2834.646" style="fill:rgb(235,235,235);fill-opacity:0;stroke:rgb(235,235,255);stroke-width:125px;"/>
                </g>
                <g transform="matrix(0.24,0,0,0.24,0,0)">
                    <rect x="0" y="0" width="2834.646" height="2834.646" style="fill:rgb(235,235,235);fill-opacity:0;stroke:rgb(235,235,255);stroke-width:125px;"/>
                </g>
                <g transform="matrix(0.24,0,0,0.24,0,0)">
                    <rect x="0" y="0" width="2834.646" height="2834.646" style="fill:rgb(235,235,235);fill-opacity:0;stroke:rgb(235,235,235);stroke-width:125px;"/>
                </g>
                <g transform="matrix(0.24,0,0,0.24,0,0)">
                    <rect x="0" y="0" width="2834.646" height="2834.646" style="fill:rgb(235,235,235);fill-opacity:0;stroke:black;stroke-width:83.33px;"/>
                </g>
            </g>
            <g id="Layer-1" serif:id="Layer 1" transform="matrix(1,0,0,1,27.037859,14.7084)">
                <g transform="matrix(1,0,0,1,215.4703,371.0724)">
                    <path d="M0,-285.328C-0.376,-270.655 6.862,-257.265 7.557,-242.711C8.339,-226.372 4.048,-209.954 -2.83,-195.185C-13.216,-172.887 -29.13,-153.64 -43.689,-133.741C-53.242,-120.684 -62.683,-105.691 -60.746,-89.703C-58.877,-74.266 -46.378,-61.692 -32.062,-55.183C-10.674,-45.459 16.986,-43.479 39.995,-47.377C46.067,-48.406 52.64,-49.797 58.128,-47.035C65.923,-43.113 67.633,-32.323 64.479,-24.274C60.625,-14.439 51.372,-7.368 41.288,-3.865C31.204,-0.362 20.292,0 9.605,-0.308C-18.379,-1.113 -45.466,-6.677 -71.957,-15.364C-95.026,-22.929 -117.123,-34.023 -131.962,-53.701C-147.19,-73.897 -152.054,-102.804 -139.418,-124.671C-122.732,-153.544 -91.073,-155.265 -63.159,-166.324C-50.636,-171.285 -38.432,-177.618 -28.787,-186.928C-16.087,-199.189 -8.6,-215.93 -4.757,-233.043C-0.914,-250.155 -0.449,-267.806 0,-285.328" style="fill:rgb(3,4,4);fill-rule:nonzero;"/>
                </g>
                <g transform="matrix(1,0,0,1,551.3344,108.7492)">
                    <path d="M0,410.106C-0.088,408.941 -0.592,407.766 -1.09,406.678C-3.412,401.607 -5.804,396.431 -9.685,392.392C-13.565,388.353 -19.283,385.589 -24.823,386.644C-34.171,388.422 -43.258,397.102 -51.77,401.211C-62.802,406.535 -74.442,410.552 -86.289,413.703C-117.312,421.957 -159.179,431.974 -190.674,422.007C-194.227,420.883 -182.062,401.012 -180.596,399.377C-172.936,390.831 -167.071,390.829 -156.22,390.657C-137.488,390.359 -119.844,384.462 -103.409,375.891C-76.909,362.07 -55.122,340.729 -36.472,317.89C-12.113,288.058 2.662,250.76 5.612,212.591C8.111,180.264 0.508,149.855 -17.533,122.579C-36.581,93.78 -65.054,76.107 -92.933,56.62C-114.006,41.89 -134.316,22.799 -139.459,-2.164C-145.164,-29.858 -130.99,-57.403 -127.277,-85.428C-127.27,-85.479 -127.263,-85.531 -127.256,-85.583C-127.84,-81.59 -133.283,-75.665 -135.419,-72.151C-138.634,-66.859 -141.85,-61.567 -145.065,-56.276C-150.674,-47.045 -156.399,-37.852 -161.692,-28.443C-168.188,-16.896 -167.996,-2.974 -167.905,9.925C-167.855,17.045 -167.787,24.289 -165.631,31.084C-163.096,39.078 -157.812,45.964 -151.891,51.968C-123.804,80.454 -80.488,92.227 -56.499,124.148C-29.321,160.312 -19.958,220.888 -47.306,259.088C-62.097,279.749 -83.748,293.349 -107.937,300.984C-129.852,307.902 -152.929,307.589 -175.416,311.187C-191.444,313.752 -205.72,322.437 -210.693,338.458C-217.177,359.346 -218.38,377.783 -231.714,396.588C-246.56,417.525 -268.106,433.219 -282.563,454.42C-295.444,473.31 -295.131,493.067 -269.171,494.759C-254.908,495.689 -246.759,476.139 -239.088,465.864C-237.405,463.609 -235.535,461.22 -232.82,460.402C-230.746,459.778 -228.515,460.182 -226.385,460.586C-186.42,468.162 -147.672,473.452 -107.28,465.314C-68.735,457.547 -32.093,440.155 -2.475,414.534C-1.536,413.722 -0.565,412.845 -0.176,411.675C-0.006,411.16 0.04,410.634 0,410.106" style="fill:rgb(3,4,4);fill-rule:nonzero;"/>
                </g>
                <g transform="matrix(1,0,0,1,488.7645,368.1431)">
                    <path d="M0,-85.388C-0.618,-86.799 -1.262,-88.209 -1.93,-89.616C-15.276,-117.693 -38.584,-144.684 -64.298,-161.858C-81.715,-173.49 -101.548,-177.7 -120.589,-185.795C-131.661,-190.502 -142.915,-197.057 -147.926,-207.872C-155.164,-223.496 -147.316,-241.491 -140.417,-255.801C-124.238,-289.357 -108.163,-322.956 -91.5,-356.277C-91.509,-356.265 -91.518,-356.253 -91.527,-356.241C-116.052,-324.165 -140.63,-291.811 -158.761,-255.667C-170.43,-232.405 -196.679,-187.766 -177.744,-162.294C-168.264,-149.541 -150.124,-146.655 -136.884,-139.233C-122.546,-131.195 -111.912,-117.277 -106.173,-102.196C-94.983,-72.797 -100.389,-41.49 -104.309,-11.306C-114.545,-8.657 -124.781,-6.009 -135.017,-3.36C-132.317,-28.963 -124.279,-55.196 -131.662,-79.886C-133.922,-87.445 -137.718,-94.74 -143.671,-99.997C-159.368,-113.86 -184.417,-109.875 -202.892,-119.866C-212.259,-124.931 -219.539,-133.632 -222.804,-143.664C-227.533,-158.196 -223.865,-174.058 -218.641,-188.424C-212.854,-204.338 -205.202,-219.538 -196.814,-234.281C-192.746,-241.432 -188.427,-248.679 -187.006,-256.757C-184.193,-272.75 -193.125,-288.274 -195.649,-304.314C-193.314,-289.208 -191.057,-273.293 -196.603,-259.025C-201.958,-245.248 -213.757,-235.125 -224.109,-224.473C-243.131,-204.9 -258.315,-181.958 -271.053,-157.933C-278.521,-143.848 -285.215,-129.267 -289.365,-113.908C-291.011,-107.818 -292.249,-101.369 -290.705,-95.253C-288.418,-86.199 -280.29,-79.482 -271.421,-76.236C-262.552,-72.989 -252.908,-72.636 -243.456,-72.248C-228.651,-71.641 -213.836,-70.863 -199.141,-68.988C-194.448,-68.389 -189.63,-67.63 -185.582,-65.214C-178.354,-60.9 -175.024,-51.989 -175.206,-43.658C-175.483,-30.969 -181.44,-13.935 -189.838,-4.209C-202.693,10.68 -222.648,17.54 -242.053,21.556C-279.411,29.289 -313.185,33.59 -334.3,69.037C-340.71,79.796 -350.27,102.292 -348.298,115.211C-346.523,125.478 -341.815,138.556 -343.697,148.698C-343.479,149.084 -343.154,149.26 -342.72,149.226C-341.785,148.835 -341.255,148.135 -340.912,147.198C-332.76,124.881 -326.55,101.126 -311.468,82.648C-300.991,69.814 -286.357,60.529 -270.413,55.768C-259.482,52.504 -227.008,45.106 -228.294,62.119C-231.493,104.419 -270.404,124.466 -296.006,154.216C-301.134,160.174 -306.091,166.519 -308.568,173.942C-313.665,189.221 -310.3,209.679 -309.468,225.606C-309.063,233.35 -310.624,246.182 -307.603,253.446C-305.23,259.148 -302.47,265.403 -301.235,270.889C-300.139,270.527 -299.705,269.654 -299.582,268.496C-297.31,247.197 -293.487,226.058 -288.152,205.298C-285.63,195.489 -282.7,185.603 -277.146,177.095C-260.847,152.125 -227.572,154.363 -207.12,134.866C-192.317,120.754 -183.518,98.908 -181.598,78.995C-180.807,70.796 -180.997,62.127 -176.948,54.924C-174.287,50.191 -170.176,46.729 -165.684,43.569C-158.461,38.487 -148.008,38.819 -139.787,36.174C-130.199,33.09 -120.262,31.236 -110.31,29.735C-84.359,25.822 -59.403,24.118 -36.283,10.88C-19.464,1.25 -3.533,-11.801 3.503,-29.682C10.504,-47.474 7.67,-67.866 0,-85.388" style="fill:rgb(3,4,4);fill-rule:nonzero;"/>
                </g>
            </g>
        </g>
    </g>
</svg>
