<?xml version="1.0" encoding="UTF-8" standalone="no"?>
<!DOCTYPE svg PUBLIC "-//W3C//DTD SVG 1.1//EN" "http://www.w3.org/Graphics/SVG/1.1/DTD/svg11.dtd">
<svg width="2835px" height="2835px" version="1.1" xmlns="http://www.w3.org/2000/svg" xmlns:xlink="http://www.w3.org/1999/xlink" xml:space="preserve" xmlns:serif="http://www.serif.com/" style="fill-rule:evenodd;clip-rule:evenodd;stroke-linecap:round;stroke-linejoin:round;stroke-miterlimit:1.5;">
    <g id="Page-1" serif:id="Page 1" transform="matrix(4.166667,0,0,4.166667,0,0)">
        <rect x="0" y="0" width="680.315" height="680.315" style="fill:none;"/>
        <clipPath id="_clip1">
            <rect x="0" y="0" width="680.315" height="680.315"/>
        </clipPath>
        <g clip-path="url(#_clip1)">
            <g id="Layer-2" serif:id="Layer 2">
                <g transform="matrix(0.24,0,0,0.24,0,0)">
                    <rect x="0" y="0" width="2834.646" height="2834.646" style="fill:rgb(235,235,235);stroke:black;stroke-width:166.67px;"/>
                </g>
                <g transform="matrix(0.24,0,0,0.24,0,0)">
                    <rect x="0" y="0" width="2834.646" height="2834.646" style="fill:rgb(235,235,235);fill-opacity:0;stroke:rgb(235,235,255);stroke-width:125px;"/>
                </g>
                <g transform="matrix(0.24,0,0,0.24,0,0)">
                    <rect x="0" y="0" width="2834.646" height="2834.646" style="fill:rgb(235,235,235);fill-opacity:0;stroke:rgb(235,235,255);stroke-width:125px;"/>
                </g>
                <g transform="matrix(0.24,0,0,0.24,0,0)">
                    <rect x="0" y="0" width="2834.646" height="2834.646" style="fill:rgb(235,235,235);fill-opacity:0;stroke:rgb(235,235,235);stroke-width:125px;"/>
                </g>
                <g transform="matrix(0.24,0,0,0.24,0,0)">
                    <rect x="0" y="0" width="2834.646" height="2834.646" style="fill:rgb(235,235,235);fill-opacity:0;stroke:black;stroke-width:83.33px;"/>
                </g>
            </g>
            <g id="Layer-1" serif:id="Layer 1" transform="matrix(1,0,0,1,-0.95973,1.76255)">
                <g transform="matrix(1,0,0,1,351.912,27.4006)">
                    <path d="M0,630.942C3.54,615.178 8.843,599.746 14.066,584.478C17.996,572.991 21.854,561.42 27.227,550.507C32.933,538.92 40.817,529.791 48.892,519.879L103.696,455.539L110.722,450.501C140.646,456.971 127.349,480.594 131.178,488.858L157.138,465.879C152.457,459.25 148.621,451.378 145.033,444.048C140.709,435.217 140.657,431.581 143.811,426.773C145.394,424.361 147.781,421.655 150.848,417.847C168.461,395.98 172.084,361.951 184.29,336.261C188.533,327.331 192.673,317.876 200.061,311.672C210.155,303.195 224.738,302.177 234.068,292.763C222.774,287.814 208.948,286.262 198.713,278.862C186.186,269.803 179.371,253.415 171.813,239.986C161.305,221.315 150.675,202.72 140.106,184.088C137.3,179.14 134.407,173.886 134.327,168.11C134.253,162.751 136.617,157.735 138.924,152.968C146.899,136.487 180.634,87.708 168.992,71.948C162.45,63.093 155.909,54.238 149.367,45.384C150.409,81.214 136.186,116.151 115.433,144.419C94.872,172.427 67.943,195.318 40.603,215.45C63.458,216.739 86.648,210.108 105.806,196.808C117.346,223.595 146.52,241.148 152.76,269.802C162.926,316.479 142.09,360.141 113.937,396.585C98.821,416.153 81.366,433.748 63.403,450.685C47.533,465.65 33.798,483.387 15.588,495.668C13.556,497.039 -11.244,516.074 -9.192,517.803C-28.279,501.728 -79.086,465.429 -88.733,460.182C-106.792,450.361 -125.418,441.494 -141.026,427.415C-164.36,406.365 -179.322,371.572 -181.356,339.233C-183.263,308.93 -164.083,296.377 -144.115,275.768C-118.816,249.657 -95.382,219.367 -79.266,185.905C-64.075,154.362 -55.764,118.177 -61.021,83.189C-66.279,48.201 -86.463,14.883 -116.733,0L-116.617,0.264C-106.489,23.296 -96.28,46.681 -92.277,71.741C-88.259,96.897 -91.2,124.388 -105.522,144.871C-112.01,129.04 -114.41,111.344 -112.392,94.212C-119.072,92.682 -125.751,91.152 -132.431,89.623C-134.301,89.195 -136.396,88.804 -138.011,89.893C-139.46,90.87 -140.08,92.75 -140.569,94.497C-146.494,115.642 -150.104,143.593 -143.678,165.125C-141.467,172.535 -136.236,179.454 -139.342,187.163C-143.046,196.355 -152.923,202.794 -159.828,209.448C-168.685,217.981 -177.323,226.741 -185.731,235.716C-195.964,246.638 -205.856,257.878 -215.39,269.415C-223.514,279.247 -230.465,290.832 -240.898,298.35C-254.816,308.385 -272.495,311.778 -288.049,318.387C-277.113,325.804 -265.445,332.601 -254.041,339.16C-238.57,348.057 -233.376,358.773 -227.208,376.169C-217.755,402.829 -203.774,427.668 -186.139,449.13C-197.034,460.698 -207.93,472.266 -218.825,483.834C-207.287,495.706 -195.749,507.579 -184.211,519.452C-174.116,506.429 -164.021,493.407 -153.926,480.384C-156.701,483.964 -77.117,537.615 -70.104,541.395C-51.765,551.282 -34.519,575.03 -24.566,594.184" style="fill:rgb(3,4,4);fill-rule:nonzero;"/>
                </g>
                <g transform="matrix(1,0,0,1,293.6483,268.4377)">
                    <path d="M0,-0.657C-0.092,-0.419 -0.136,-0.197 -0.112,0C-0.112,-0.001 -0.074,-0.226 0,-0.657" style="fill:rgb(3,4,4);fill-rule:nonzero;"/>
                </g>
                <g transform="matrix(1,0,0,1,420.3255,215.4823)">
                    <path d="M0,155.164C-4.571,155.528 -14.498,160.801 -18.459,163.156C-23.409,166.101 -28.355,169.045 -33.301,171.989C-36.018,173.606 -38.749,175.233 -41.181,177.298C-41.602,177.656 -42.012,178.028 -42.414,178.409L-65.7,158.674L-41.393,128.834C-33.226,135.96 -23.737,141.507 -13.261,145.186C-8.13,146.987 18.695,153.674 0,155.164M-70.304,225.097C-72.712,231.067 -74.165,237.443 -76.613,243.383C-78.119,247.04 -83.135,253.485 -82.893,257.234C-84.102,238.501 -94.356,222.139 -105.027,206.952L-77.087,172.652L-53.373,192.7C-60.023,202.86 -65.715,213.725 -70.304,225.097M-116.527,191.665C-117.684,190.364 -118.887,189.111 -120.162,187.934C-129.814,179.025 -142.697,175.629 -152.668,167.053C-139.794,159.063 -128.247,149.22 -118.101,137.979L-89.464,162.189L-116.527,191.665ZM-80.638,74.816C-80.454,74.31 -80.286,73.804 -80.132,73.299C-77.643,65.139 -78.847,57.017 -77.313,48.605C-73.901,52.788 -73.927,63.012 -72.765,68.517C-71.212,75.873 -69.392,83.173 -66.973,90.267C-63.185,101.374 -57.547,111.266 -50.425,119.667L-77.251,148.886L-106.671,123.952C-95.814,109.129 -87.073,92.503 -80.638,74.816M17.453,117.839C18.147,122.607 17.795,127.543 16.431,132.145C16.2,132.924 15.888,133.762 15.212,134.153C14.532,134.546 13.696,134.366 12.945,134.166C-6.735,128.921 -22.67,117.411 -34.905,100.399C-48.373,81.67 -56.587,58.642 -57.742,35.086C-48.729,38.71 -40.724,45.106 -34.953,53.297C-37.908,49.154 -38.098,37.791 -39.149,32.613C-40.751,24.715 -42.344,16.814 -43.958,8.919C-45.853,-0.354 -47.757,-9.626 -49.651,-18.9C-54.051,-40.444 -58.451,-61.989 -62.851,-83.533C-69.94,-118.242 -77.028,-152.95 -84.117,-187.658C-84.755,-190.784 -85.396,-193.909 -86.032,-197.035C-86.032,-197.035 -122.852,31.567 -125.104,45.561C-122.775,39.168 -83.827,19.564 -96.774,56.105C-102.777,73.046 -110.437,89.327 -119.59,104.6C-131.9,125.139 -148.9,142.726 -172.322,146.943C-172.311,142.597 -172.426,138.24 -172.115,133.909C-172.257,134.073 -172.408,134.225 -172.552,134.387L-171.893,125.939L-228.59,179.452L-175.689,210.583C-172.639,212.509 -169.601,214.454 -166.599,216.46C-167.136,208.804 -167.673,201.147 -168.209,193.491C-168.323,191.875 -146.74,197.947 -144.935,198.785C-137.114,202.418 -130.019,207.766 -124.107,214.293C-118.436,220.552 -113.616,228.045 -110.644,236.164C-106.917,246.345 -106.742,258.704 -105.325,269.575C-104.657,274.706 -103.988,279.837 -103.319,284.967C-102.346,292.431 -101.373,299.894 -100.4,307.358C-98.94,318.561 -96.277,325.818 -88.692,333.533C-83.02,339.302 -77.202,345.29 -72.837,352.199C-68.832,348.182 -65.85,341.945 -62.693,337.06C-61.754,335.609 -60.801,334.124 -60.35,332.43C-58.08,323.907 -61.268,311.952 -61.114,303.079C-60.919,291.916 -59.721,280.774 -57.568,269.845C-48.661,224.645 -23.535,179.784 21.383,168.415C18.78,169.074 23.858,203.629 24.173,207.361C39.106,188.34 53.801,169.11 68.254,149.676C51.32,139.064 34.387,128.451 17.453,117.839" style="fill:rgb(3,4,4);fill-rule:nonzero;"/>
                </g>
                <g transform="matrix(1,0,0,1,247.2128,326.3614)">
                    <path d="M0,-150.128C11.933,-115.779 23.985,-82.297 26.901,-45.728C27.727,-35.37 27.801,-24.288 22.376,-15.427C17.194,-6.964 8.252,-4.332 0,0C-2.351,-1.974 -11.29,-7.187 -11.842,-9.943C-12.7,-14.224 2.372,-24.364 4.717,-29.49C7.816,-36.264 6.767,-44.286 4.074,-51.232C-1.468,-65.521 -10.582,-78.791 -17.495,-92.468C-18.517,-94.49 -31.688,-117.418 -30.638,-118.468L0,-150.128Z" style="fill:rgb(3,4,4);fill-rule:nonzero;"/>
                </g>
                <g transform="matrix(1,0,0,1,400.9524,212.6975)">
                    <path d="M0,55.816C-0.256,55.938 -0.473,56.08 -0.644,56.244C-2.474,58 -2.401,66.404 -2.769,68.968C-3.514,74.163 -4.12,79.378 -4.585,84.605C19.83,88.45 45.404,92.275 69.975,87.661C94.972,82.964 118.326,70.853 141.507,60.901C155.721,54.799 170.533,49.273 182.391,39.339C191.677,31.56 198.683,21.452 207.091,12.731C210.505,9.19 214.265,5.707 215.974,1.095C217.266,-2.39 217.257,-6.203 217.232,-9.92C217.18,-17.724 218.916,-23.53 212.749,-28.556C209.447,-31.249 206.043,-33.826 202.692,-36.459C202.707,-36.447 196.036,-22.595 195.472,-21.662C191.62,-15.298 186.28,-9.934 180.872,-4.89C168.276,6.856 154.73,17.584 140.409,27.153C131.223,33.291 121.646,38.988 111.259,42.748C103.855,45.429 96.129,47.094 88.405,48.621C68.637,52.531 48.537,54.291 28.422,55.083C23.499,55.277 18.574,55.412 13.648,55.518C10.856,55.578 2.906,54.431 0,55.816" style="fill:rgb(3,4,4);fill-rule:nonzero;"/>
                </g>
                <g transform="matrix(0,-1,-1,0,418.2765,95.8085)">
                    <path d="M-37.532,-37.532C-58.26,-37.532 -75.064,-20.728 -75.064,0C-75.064,20.728 -58.26,37.532 -37.532,37.532C-16.804,37.532 0,20.728 0,0C0,-20.728 -16.804,-37.532 -37.532,-37.532" style="fill:rgb(3,4,4);fill-rule:nonzero;"/>
                </g>
            </g>
        </g>
    </g>
</svg>
