<?xml version="1.0" encoding="UTF-8" standalone="no"?>
<!DOCTYPE svg PUBLIC "-//W3C//DTD SVG 1.1//EN" "http://www.w3.org/Graphics/SVG/1.1/DTD/svg11.dtd">
<svg width="2835px" height="2835px" version="1.1" xmlns="http://www.w3.org/2000/svg" xmlns:xlink="http://www.w3.org/1999/xlink" xml:space="preserve" xmlns:serif="http://www.serif.com/" style="fill-rule:evenodd;clip-rule:evenodd;stroke-linecap:round;stroke-linejoin:round;stroke-miterlimit:1.5;">
    <g id="Page-1" serif:id="Page 1" transform="matrix(4.166667,0,0,4.166667,0,0)">
        <rect x="0" y="0" width="680.315" height="680.315" style="fill:none;"/>
        <clipPath id="_clip1">
            <rect x="0" y="0" width="680.315" height="680.315"/>
        </clipPath>
        <g clip-path="url(#_clip1)">
            <g id="Layer-2" serif:id="Layer 2">
                <g transform="matrix(0.24,0,0,0.24,0,0)">
                    <rect x="0" y="0" width="2834.646" height="2834.646" style="fill:rgb(235,235,235);stroke:black;stroke-width:166.67px;"/>
                </g>
                <g transform="matrix(0.24,0,0,0.24,0,0)">
                    <rect x="0" y="0" width="2834.646" height="2834.646" style="fill:rgb(235,235,235);fill-opacity:0;stroke:rgb(235,235,255);stroke-width:125px;"/>
                </g>
                <g transform="matrix(0.24,0,0,0.24,0,0)">
                    <rect x="0" y="0" width="2834.646" height="2834.646" style="fill:rgb(235,235,235);fill-opacity:0;stroke:rgb(235,235,255);stroke-width:125px;"/>
                </g>
                <g transform="matrix(0.24,0,0,0.24,0,0)">
                    <rect x="0" y="0" width="2834.646" height="2834.646" style="fill:rgb(235,235,235);fill-opacity:0;stroke:rgb(235,235,235);stroke-width:125px;"/>
                </g>
                <g transform="matrix(0.24,0,0,0.24,0,0)">
                    <rect x="0" y="0" width="2834.646" height="2834.646" style="fill:rgb(235,235,235);fill-opacity:0;stroke:black;stroke-width:83.33px;"/>
                </g>
            </g>
            <g id="Layer-1" serif:id="Layer 1" transform="matrix(1,0,0,1,-1.377313,4.2901)">
                <g transform="matrix(1,0,0,1,384.8873,618.2579)">
                    <path d="M0,-536.807C35.534,-534.27 71.072,-531.778 106.609,-529.271C98.281,-510.835 96.087,-486.484 77.891,-477.644C58.56,-468.254 40.693,-483.493 21.576,-483.21C19.81,-483.184 18.039,-482.994 16.339,-482.511C7.294,-479.942 1.401,-469.176 -4.418,-462.407C-14.212,-451.013 -24.406,-439.939 -34.397,-428.716C-43.75,-418.209 -53.104,-407.702 -62.457,-397.195C-68.022,-390.945 -82.759,-367.424 -90.517,-365.675C-40.854,-376.875 8.881,-387.761 58.682,-398.332C47.129,-367.616 29.484,-341.461 14.025,-312.872C0.407,-287.686 -13.211,-262.5 -26.829,-237.313C-55.036,-185.145 -83.243,-132.977 -111.45,-80.808C-126.197,-53.533 -144.871,-26.014 -156.621,2.735C-127.125,-69.431 -97.628,-141.598 -68.131,-213.765C-60.079,-233.465 -50.88,-252.665 -42.382,-272.171C-35.679,-287.558 -20.768,-312.679 -22.604,-329.316C-23.231,-335.003 -71.741,-323.847 -76.241,-323.231C-90.919,-321.222 -105.596,-319.213 -120.274,-317.204C-120.274,-317.204 -151.285,-317.091 -151.38,-317.09C-180.005,-316.986 -165.13,-331.799 -154.491,-349.488C-141.785,-370.614 -129.079,-391.741 -116.373,-412.867C-91.192,-453.283 -67.104,-494.471 -42.78,-535.41C-42.05,-536.639 -41.27,-537.918 -40.042,-538.649C-38.54,-539.542 -36.672,-539.444 -34.93,-539.317C-23.287,-538.474 -11.644,-537.638 0,-536.807" style="fill:rgb(3,4,4);fill-rule:nonzero;"/>
                </g>
                <g transform="matrix(1,0,0,1,528.1091,482.9339)">
                    <path d="M0,-384.831C-8.186,-376.559 -15.94,-367.848 -23.444,-358.975C-48.699,-329.107 -72.283,-294.372 -73.196,-255.269C-62.072,-264.198 -47.727,-275.423 -35.213,-282.175C-25.032,-287.668 -12.853,-290.428 -1.758,-287.15C39.161,-275.061 40.201,-201.992 18.517,-173.666C4.983,-155.988 -17.36,-147.405 -39.197,-143.062C-61.033,-138.719 -83.586,-137.737 -104.86,-131.17C-137.131,-121.208 -153.91,-99.841 -160.108,-67.436C-129.737,-66.571 -99.52,-70.877 -69.831,-76.93C-55.349,-79.883 -41.052,-83.597 -26.62,-86.753C-21.308,-87.914 10.193,-90.762 11.27,-93.517C-20.726,-11.716 -124.341,-9.37 -196.879,-10.985C-198.092,-11.012 -199.386,-11.017 -200.407,-10.363C-201.298,-9.793 -201.829,-8.816 -202.322,-7.88C-209.875,6.438 -219.91,21.435 -225.142,36.487C-205.532,34.335 -182.534,47.361 -164.026,43.501C-138.323,45.465 -112.203,45.135 -87.09,38.737C-64.756,33.047 -43.899,22.781 -23.229,12.586C-14.875,8.466 -6.478,4.32 1.093,-1.107C7.107,-5.418 12.533,-10.491 17.82,-15.668C43.599,-40.905 66.752,-69.324 82.42,-101.82C98.088,-134.315 105.968,-171.178 100.718,-206.87C95.506,-242.304 77.876,-274.654 58.41,-304.718C49.596,-318.331 40.231,-331.882 35.155,-347.285C25.044,-377.971 43.496,-404.85 55.462,-432.192C51.028,-422.062 29.358,-410.903 20.739,-403.835C13.482,-397.883 6.6,-391.5 0,-384.831" style="fill:rgb(3,4,4);fill-rule:nonzero;"/>
                </g>
                <g transform="matrix(0.204173,0.978935,0.978935,-0.204173,474.609371,243.389749)">
                    <path d="M41.615,-33.831C63.189,-33.831 80.679,-14.798 80.678,8.68C80.679,32.157 63.189,51.19 41.615,51.19C20.041,51.19 2.551,32.158 2.551,8.679C2.551,-14.798 20.041,-33.831 41.615,-33.831" style="fill:rgb(3,4,4);fill-rule:nonzero;"/>
                </g>
                <g transform="matrix(1,0,0,1,175.7127,378.815)">
                    <path d="M0,-169.311C20.715,-185.491 42.197,-202.625 53,-226.587C63.297,-249.428 62.538,-275.509 61.587,-300.546C73.167,-271.602 86.133,-249.17 85.504,-216.804C85.411,-212.011 85.067,-207.154 83.5,-202.624C81.533,-196.937 77.757,-192.082 73.992,-187.387C47.033,-153.775 15.682,-118.567 14.301,-75.501C14.096,-69.124 14.677,-62.421 18.111,-57.044C24.741,-46.664 39.044,-44.966 51.357,-45.238C72.787,-45.71 94.155,-48.932 114.784,-54.802C123.626,-57.317 137.686,-60.874 140.623,-48.369C141.697,-43.794 140.624,-39.021 139.547,-34.447C127.919,14.934 113.573,67.426 75.113,100.511C59.511,113.934 40.514,123.379 20.395,127.72C6.826,130.647 -7.538,131.235 -20.774,127.052C-10.821,130.198 22.475,102.483 30.361,96.53C41.693,87.976 61.69,77.617 64.76,62.573C65.655,58.184 64.922,53.627 63.834,49.282C57.411,23.638 37.899,0.609 12.43,-7.553C2.861,-10.62 -7.253,-11.783 -16.739,-15.096C-32.698,-20.669 -46.392,-32.464 -54.269,-47.421C-59.264,-56.907 -61.932,-67.442 -63.833,-77.992C-66.027,-90.173 -67.247,-102.72 -65.073,-114.905C-60.709,-139.367 -43.518,-159.163 -29.014,-179.338C-14.509,-199.514 -1.677,-224.181 -7.791,-248.265C2.714,-223.549 5.471,-195.604 0,-169.311" style="fill:rgb(3,4,4);fill-rule:nonzero;"/>
                </g>
                <g transform="matrix(0.204177,0.978934,0.978934,-0.204177,165.43333,402.69976)">
                    <path d="M30.649,-24.916C47.94,-24.917 61.957,-10.899 61.958,6.392C61.957,23.683 47.94,37.701 30.649,37.701C13.358,37.701 -0.66,23.683 -0.659,6.393C-0.659,-10.898 13.358,-24.916 30.649,-24.916" style="fill:rgb(3,4,4);fill-rule:nonzero;"/>
                </g>
                <g transform="matrix(1,0,0,1,95.5856,564.9082)">
                    <path d="M0,-215.081C8.518,-208.472 15.72,-200.127 21.328,-190.965C30.133,-176.581 37.713,-157.337 38.49,-140.288C39.227,-124.134 31.248,-108.463 30.76,-92.201C29.983,-66.352 40.625,-31.628 71.329,-33.066C92.702,-34.067 112.983,-42.331 132.704,-50.632C144.091,-55.426 153.565,-62.639 163.002,-69.785C159.186,-62.643 158.473,-54.401 154.675,-47.293C151.409,-41.18 145.82,-36.674 140.144,-32.696C93.974,-0.341 6.829,19.199 -26.575,-41.44C-39.39,-64.704 -36.482,-88 -26.028,-111.403C-16.926,-131.778 6.217,-162.049 -1.78,-185.257C-3.37,-189.871 -6.254,-193.915 -9.22,-197.791C-19.298,-210.962 -33.15,-221.768 -42.963,-234.28C-36.796,-226.417 -16.364,-225.564 -7.498,-220.228C-4.899,-218.663 -2.397,-216.941 0,-215.081" style="fill:rgb(3,4,4);fill-rule:nonzero;"/>
                </g>
            </g>
        </g>
    </g>
</svg>
