<?xml version="1.0" encoding="UTF-8" standalone="no"?>
<!DOCTYPE svg PUBLIC "-//W3C//DTD SVG 1.1//EN" "http://www.w3.org/Graphics/SVG/1.1/DTD/svg11.dtd">
<svg width="2835px" height="2835px" version="1.1" xmlns="http://www.w3.org/2000/svg" xmlns:xlink="http://www.w3.org/1999/xlink" xml:space="preserve" xmlns:serif="http://www.serif.com/" style="fill-rule:evenodd;clip-rule:evenodd;stroke-linecap:round;stroke-linejoin:round;stroke-miterlimit:1.5;">
    <g id="Page-1" serif:id="Page 1" transform="matrix(4.166667,0,0,4.166667,0,0)">
        <rect x="0" y="0" width="680.315" height="680.315" style="fill:none;"/>
        <clipPath id="_clip1">
            <rect x="0" y="0" width="680.315" height="680.315"/>
        </clipPath>
        <g clip-path="url(#_clip1)">
            <g id="Layer-2" serif:id="Layer 2">
                <g transform="matrix(0.24,0,0,0.24,0,0)">
                    <rect x="0" y="0" width="2834.646" height="2834.646" style="fill:rgb(235,235,235);stroke:black;stroke-width:166.67px;"/>
                </g>
                <g transform="matrix(0.24,0,0,0.24,0,0)">
                    <rect x="0" y="0" width="2834.646" height="2834.646" style="fill:rgb(235,235,235);fill-opacity:0;stroke:rgb(235,235,255);stroke-width:125px;"/>
                </g>
                <g transform="matrix(0.24,0,0,0.24,0,0)">
                    <rect x="0" y="0" width="2834.646" height="2834.646" style="fill:rgb(235,235,235);fill-opacity:0;stroke:rgb(235,235,255);stroke-width:125px;"/>
                </g>
                <g transform="matrix(0.24,0,0,0.24,0,0)">
                    <rect x="0" y="0" width="2834.646" height="2834.646" style="fill:rgb(235,235,235);fill-opacity:0;stroke:rgb(235,235,235);stroke-width:125px;"/>
                </g>
                <g transform="matrix(0.24,0,0,0.24,0,0)">
                    <rect x="0" y="0" width="2834.646" height="2834.646" style="fill:rgb(235,235,235);fill-opacity:0;stroke:black;stroke-width:83.33px;"/>
                </g>
            </g>
            <g id="Layer-1" serif:id="Layer 1" transform="matrix(1,0,0,1,-6.129922,-8.608251)">
                <g transform="matrix(1,0,0,1,575.6967,307.0188)">
                    <path d="M0,21.543C-18.782,8.446 -37.93,-4.291 -56.394,-17.783C-85.174,-38.814 -115.153,-58.323 -145.12,-77.808C-168.515,-93.019 -201.9,-104.995 -203.286,-134.608C-203.92,-148.156 -204.555,-161.703 -205.189,-175.25C-205.362,-178.947 -204.96,-183.549 -201.325,-184.95C-198.652,-185.981 -195.653,-184.624 -193.113,-183.294C-160.345,-166.13 -128.289,-147.754 -97.046,-128.226C-70.7,-111.759 -36.035,-95.502 -29.395,-63.495C-27.303,-53.409 -28.569,-42.489 -23.525,-33.35C-18.217,-23.732 -7.13,-18.314 3.554,-14.239C4.824,-13.755 6.176,-13.271 7.524,-13.475C10.517,-13.927 11.734,-17.267 12.345,-20.054C17.99,-45.801 21.546,-74.209 7.613,-97.158C-2.457,-113.743 -20.135,-124.8 -37.17,-135.23C-100.522,-174.02 -164.041,-212.565 -227.764,-250.65C-229.464,-251.666 -231.254,-252.712 -233.257,-252.859C-236.503,-253.097 -239.311,-250.967 -241.848,-249.072C-294.884,-209.463 -375.997,-228.706 -436.251,-199.502C-442.536,-196.456 -448.741,-192.715 -452.52,-187.104C-456.329,-181.448 -457.258,-174.535 -458.096,-167.872C-461.677,-139.396 -465.257,-110.919 -468.838,-82.443C-453.195,-81.884 -434.726,-82.595 -426.072,-94.775C-423.146,-98.894 -421.818,-103.842 -421.074,-108.756C-418.372,-126.625 -422.036,-147.133 -409.562,-160.8C-407.395,-163.174 -404.901,-165.145 -402.17,-166.8C-393.166,-172.255 -381.592,-174.27 -370.729,-175.925C-352.502,-178.702 -334.275,-181.48 -316.048,-184.257C-298.978,-186.858 -280.642,-191.78 -263.361,-192.284C-252.895,-192.589 -255.15,-190.269 -255.314,-180.146C-255.448,-171.854 -255.585,-163.563 -255.762,-155.273C-255.855,-150.96 -255.155,-107.835 -257.096,-107.452C-303.38,-98.324 -349.344,-88.476 -394.982,-76.85C-425.684,-69.029 -457.208,-65.608 -486.596,-53.389C-508.653,-44.219 -522.515,-24.186 -500.354,-6.278C-481.635,8.849 -460.129,21.231 -440.432,35.208C-418.664,50.654 -396.897,66.1 -375.135,81.553C-369.008,85.903 -361.825,90.5 -354.338,89.071C-345.044,87.296 -339.337,76.911 -336.383,69.329C-335.356,66.695 -334.586,63.756 -335.62,61.109C-336.443,59.001 -338.288,57.407 -340.093,55.93C-357.558,41.615 -375.953,28.339 -394.522,15.327C-412.415,2.79 -433.733,-8.662 -449.524,-23.44C-444.546,-28.764 -429.842,-30.968 -422.183,-33.347C-412.682,-36.299 -403.151,-39.172 -393.594,-41.966C-374.48,-47.554 -355.259,-52.825 -335.942,-57.777C-316.933,-62.65 -297.831,-67.214 -278.649,-71.465C-262.467,-75.051 -241.657,-83.112 -224.896,-81.303C-214.341,-80.165 -208.66,-71.937 -200.83,-66.216C-194.417,-61.53 -188.118,-56.698 -181.764,-51.941C-166.559,-40.556 -151.04,-29.521 -135.684,-18.316C-110.026,0.406 -84.368,19.129 -58.709,37.851C-51.993,42.752 -41.477,47.921 -36.224,54.259C-34.275,56.609 -31.758,55.895 -33.208,59.87C-34.54,63.521 -51.806,68.786 -55.668,70.492C-62.876,73.677 -70.157,76.719 -77.494,79.638C-91.755,85.314 -106.017,90.989 -120.278,96.664C-128.542,99.952 -177.36,113.916 -177.258,122.674C-177.22,125.927 -174.979,128.762 -172.819,131.321C-160.738,145.637 -147.957,159.321 -135.37,173.187C-137.459,170.886 -161.936,188.565 -164.582,190.24C-166.783,191.632 -169.033,193.069 -170.608,195.143C-172.62,197.79 -173.323,201.216 -173.466,204.538C-174.139,220.17 -163.753,234.188 -151.923,244.429C-143.785,251.474 -134.747,257.382 -126.544,264.345C-122.89,267.447 -118.669,273.706 -114.212,273.554C-110.107,273.415 -101.145,264.575 -97.618,262.156C-98.587,262.82 -115.462,246.39 -117.007,244.841C-124.093,237.739 -130.514,229.889 -134.913,220.816C-136.968,216.575 -138.585,212.008 -138.627,207.295C-138.703,198.823 -133.457,193.635 -126.001,190.736C-119.14,188.069 -119.39,189.795 -113.74,195.59C-105.506,204.034 -97.196,212.403 -88.88,220.766C-72.268,237.47 -55.592,254.111 -39.24,271.071C-37.892,272.47 -36.407,273.945 -34.445,274.334C-32.905,274.64 -31.321,274.219 -29.831,273.759C-18.646,270.308 -1.448,264.481 -3.921,252.125C-6.173,240.872 -16.78,230.184 -24.281,221.666C-39.116,204.821 -53.951,187.975 -68.786,171.129C-76.204,162.706 -83.622,154.283 -91.039,145.86C-95.503,140.79 -104.922,135.44 -99.367,129.259C-96.348,125.9 -84.502,123.821 -80.004,122.178C-73.297,119.727 -66.582,117.293 -59.85,114.902C-32.337,105.132 -4.519,96.003 23.962,88.963C30.073,87.452 36.309,86.001 41.74,82.983C47.17,79.964 51.782,75.071 52.644,69.187C55.315,50.943 12.165,30.026 0,21.543" style="fill:rgb(3,4,4);fill-rule:nonzero;"/>
                </g>
                <g transform="matrix(1,0,0,1,297.5,371.6865)">
                    <path d="M0,-66.77C16.637,-84.893 42.652,-80.855 58.821,-72.39C70.678,-66.182 80.895,-56.966 85.659,-44.511C86.524,-42.247 87.117,-39.789 87.454,-37.194C89.929,-18.09 78.945,10.189 57.249,19.406C46.48,23.981 34.995,22.569 25.38,18.945C-4.206,7.795 -30.387,-33.668 0,-66.77M17.066,52.613C33.804,58.921 53.798,61.379 72.544,53.415C110.312,37.37 129.433,-11.857 125.124,-45.114C124.539,-49.631 123.506,-53.911 121.999,-57.852C113.707,-79.534 95.92,-95.576 75.28,-106.382C47.133,-121.119 1.846,-128.149 -27.115,-96.6C-80.013,-38.975 -34.438,33.203 17.066,52.613" style="fill:rgb(3,4,4);fill-rule:nonzero;"/>
                </g>
                <g transform="matrix(-0.083352,0.99652,0.99652,0.083352,241.677361,425.002222)">
                    <path d="M34.839,-37.875C52.374,-37.874 66.589,-22.222 66.59,-2.915C66.589,16.394 52.374,32.046 34.839,32.046C17.304,32.046 3.088,16.394 3.089,-2.914C3.089,-22.223 17.304,-37.875 34.839,-37.875" style="fill:rgb(3,4,4);fill-rule:nonzero;"/>
                </g>
                <g transform="matrix(1,0,0,1,438.1667,474.287)">
                    <path d="M0,139.601C-8.663,132.925 -20.273,128.802 -31.167,124.176C-39.357,120.699 -47.921,116.665 -53.679,111.054C-59.66,105.226 -59.724,97.788 -62.465,90.911C-66.994,79.548 -69.214,67.444 -71.066,55.711C-74.712,32.612 -76.55,8.556 -75.498,-14.707C-75.498,-14.708 -74.77,-30.8 -74.77,-30.8C-85.54,-30.76 -96.31,-30.739 -107.079,-30.658C-107.208,-30.657 -107.336,-30.656 -107.464,-30.655C-105.952,-8.28 -106.246,14.164 -108.346,36.521C-110.142,55.65 -111.927,75.236 -120.497,93.524C-124.424,101.905 -129.876,110.654 -138.122,117.283C-147.287,124.65 -160.592,128.6 -169.009,136.558C-178.451,145.486 -179.733,157.483 -180.644,168.727C-127.818,169.406 -74.979,168.467 -22.143,168.269C-13.926,168.238 3.64,170.401 10.729,167.88C21.707,163.976 6.672,144.743 0,139.601" style="fill:rgb(3,4,4);fill-rule:nonzero;"/>
                </g>
                <g transform="matrix(1,0,0,1,269.6113,443.5673)">
                    <path d="M0,79.28C6.464,74.948 13.8,71.571 19.335,66.283C35.322,51.009 33.355,23.406 31.438,3.73C30.743,-3.4 28.581,-2.807 26.215,0.6C22.884,5.399 19.149,15.778 18.544,18.017C15.814,28.11 10.658,37.621 3.538,45.698C-7.234,57.916 -22,67.482 -35.214,77.396C-44.603,84.441 -45.149,81.773 -52.169,72.697C-57.255,66.121 -61.552,59.085 -67.905,53.385C-79.671,42.826 -93.016,33.852 -106.455,25.168C-113.345,20.716 -120.455,16.496 -127.215,11.881C-133.61,7.515 -143.187,3.999 -147.751,-2.069C-147.939,-2.343 -148.127,-2.617 -148.315,-2.892C-150.498,-6.416 -150.614,-10.634 -150.59,-14.65C-150.542,-22.937 -150.137,-31.219 -149.335,-39.462L-78.758,1.434L-62.014,-22.251L-73.664,-31.01L-149.024,-87.643C-149.207,-87.807 -149.402,-87.957 -149.616,-88.087L-163.165,-98.27L-177.369,-109.078C-186.909,-113.346 -187.404,-102.023 -187.706,-95.73C-189.155,-65.519 -199.356,-25.876 -189.98,3.111C-182.8,25.311 -162.609,33.116 -144.446,44.357C-127.134,55.072 -109.821,65.786 -92.509,76.501C-85.874,80.607 -79.087,84.848 -74.324,91.048C-54.203,117.236 -60.702,161.634 -67.027,190.46C-58.424,191.182 -49.821,191.904 -41.218,192.626C-34.734,173.179 -34.524,152.43 -30.836,132.349C-27.041,111.683 -19.081,92.067 0,79.28" style="fill:rgb(3,4,4);fill-rule:nonzero;"/>
                </g>
            </g>
        </g>
    </g>
</svg>
