<?xml version="1.0" encoding="UTF-8" standalone="no"?>
<!DOCTYPE svg PUBLIC "-//W3C//DTD SVG 1.1//EN" "http://www.w3.org/Graphics/SVG/1.1/DTD/svg11.dtd">
<svg width="2835px" height="2835px" version="1.1" xmlns="http://www.w3.org/2000/svg" xmlns:xlink="http://www.w3.org/1999/xlink" xml:space="preserve" xmlns:serif="http://www.serif.com/" style="fill-rule:evenodd;clip-rule:evenodd;stroke-linecap:round;stroke-linejoin:round;stroke-miterlimit:1.5;">
    <g id="Page-1" serif:id="Page 1" transform="matrix(4.166667,0,0,4.166667,0,0)">
        <rect x="0" y="0" width="680.315" height="680.315" style="fill:none;"/>
        <clipPath id="_clip1">
            <rect x="0" y="0" width="680.315" height="680.315"/>
        </clipPath>
        <g clip-path="url(#_clip1)">
            <g id="Layer-2" serif:id="Layer 2">
                <g transform="matrix(0.24,0,0,0.24,0,0)">
                    <rect x="0" y="0" width="2834.646" height="2834.646" style="fill:rgb(235,235,235);stroke:black;stroke-width:166.67px;"/>
                </g>
                <g transform="matrix(0.24,0,0,0.24,0,0)">
                    <rect x="0" y="0" width="2834.646" height="2834.646" style="fill:rgb(235,235,235);fill-opacity:0;stroke:rgb(235,235,255);stroke-width:125px;"/>
                </g>
                <g transform="matrix(0.24,0,0,0.24,0,0)">
                    <rect x="0" y="0" width="2834.646" height="2834.646" style="fill:rgb(235,235,235);fill-opacity:0;stroke:rgb(235,235,255);stroke-width:125px;"/>
                </g>
                <g transform="matrix(0.24,0,0,0.24,0,0)">
                    <rect x="0" y="0" width="2834.646" height="2834.646" style="fill:rgb(235,235,235);fill-opacity:0;stroke:rgb(235,235,235);stroke-width:125px;"/>
                </g>
                <g transform="matrix(0.24,0,0,0.24,0,0)">
                    <rect x="0" y="0" width="2834.646" height="2834.646" style="fill:rgb(235,235,235);fill-opacity:0;stroke:black;stroke-width:83.33px;"/>
                </g>
            </g>
            <g id="Layer-1" serif:id="Layer 1" transform="matrix(1,0,0,1,21.4555,-5.384489)">
                <g transform="matrix(1,0,0,1,192.5745,222.7023)">
                    <path d="M0,94.468L19.915,69.957L-62.809,0C-62.809,0 -83.711,29.569 -83.745,29.617" style="fill:rgb(3,4,4);fill-rule:nonzero;"/>
                </g>
                <g transform="matrix(-0.548464,0.836174,0.836174,0.548464,201.476822,308.217021)">
                    <path d="M-58.781,-66.301L45.494,-66.301L42.805,-42.417L-66.017,-30.132L-58.781,-66.301Z" style="fill:rgb(3,4,4);fill-rule:nonzero;"/>
                </g>
                <g transform="matrix(1,0,0,1,360.5104,344.3129)">
                    <path d="M0,113.613C-39.227,98.934 -78.801,84.083 -113.997,61.379C-116.405,59.826 -118.866,58.16 -120.359,55.715C-122.099,52.865 -122.283,49.364 -122.42,46.028C-122.984,32.234 -123.549,18.439 -124.114,4.645C-133.317,1.711 -142.521,-1.223 -151.724,-4.157C-151.715,10.63 -151.706,25.416 -151.697,40.202C-164.524,35.048 -172.921,29.921 -175.37,16.914C-176.466,11.094 -172.987,-8.381 -177,-12.59C-177,-12.59 -194.138,-30.68 -197.206,-33.918C-197.206,-33.918 -197.669,-34.407 -197.68,-34.419C-197.144,-33.853 -204.14,-20.873 -204.411,-19.248C-204.703,-17.495 -204.704,-15.707 -204.704,-13.929C-204.704,-1.43 -205.109,11.064 -205.134,23.562C-205.155,34.05 -206.763,47.677 -202.741,57.522C-200.21,63.716 -194.845,68.289 -189.277,72C-166.759,87.009 -144.834,102.386 -120.248,114.029C-107.261,120.18 -94.009,125.754 -80.651,131.043C-76.576,132.656 -43.517,148.032 -41.415,145.929C-27.61,135.157 -13.805,124.385 0,113.613" style="fill:rgb(3,4,4);fill-rule:nonzero;"/>
                </g>
                <g transform="matrix(1,0,0,1,238.5319,637.9888)">
                    <path d="M0,-438.776L5.617,-347.882C9.062,-317.121 12.633,-286.704 17.907,-256.202C18.189,-254.572 18.485,-252.901 19.331,-251.48C20.414,-249.66 22.269,-248.458 24.07,-247.342C57.948,-226.356 95.676,-212.567 131.953,-196.071C136.072,-194.198 140.278,-192.217 143.406,-188.947C146.534,-185.678 148.388,-180.792 146.862,-176.532C145.89,-173.818 143.726,-171.727 141.591,-169.789C127.605,-157.093 110.721,-148.341 96.796,-135.686C85.165,-125.116 74.23,-115.886 74.213,-99.175C74.197,-84.183 78.081,-69.595 82.317,-55.328C84.405,-48.296 86.627,-41.301 88.557,-34.222C89.417,-31.071 93.515,-20.699 91.915,-17.499C89.034,-11.738 85.629,-5.962 83.31,0C87.292,-0.185 91.512,-0.122 95.584,-0.109C96.501,-0.106 97.449,-0.109 98.293,-0.472C99.466,-0.977 100.244,-2.088 100.959,-3.145C104.269,-8.037 107.645,-13.08 108.939,-18.842C111.65,-30.912 104.659,-40.213 101.626,-51.202L96,-71.627C96.909,-79.56 97.033,-91.154 102.713,-97.093C109.063,-103.732 119.775,-108.69 127.605,-113.433C136.109,-118.585 144.802,-123.426 153.659,-127.944C163.321,-132.873 173.295,-137.491 181.594,-144.475C189.893,-151.459 196.47,-161.319 196.778,-172.161C196.914,-176.969 195.816,-181.756 194.038,-186.225C188.398,-200.398 176.202,-211.082 162.869,-218.493C149.536,-225.903 134.875,-230.525 120.718,-236.206C95.129,-246.473 71.115,-260.234 47.195,-273.948C45.566,-274.882 43.886,-275.862 42.791,-277.387C41.512,-279.171 41.206,-281.453 40.943,-283.632C38.48,-304.054 36.396,-324.521 34.693,-345.02C33.859,-355.061 33.116,-365.109 32.465,-375.163C31.965,-382.883 33.17,-393.07 29.586,-399.821C22.246,-413.646 9.494,-426.276 0,-438.776" style="fill:rgb(3,4,4);fill-rule:nonzero;"/>
                </g>
                <g transform="matrix(1,0,0,1,398.8723,635.1862)">
                    <path d="M0,-118.867C0,-118.867 -19.877,-102.048 -19.915,-102.016C-19.82,-102.097 4.738,-58.311 6.541,-54.208C8.12,-50.614 9.634,-46.924 10.076,-43.023C10.498,-39.292 9.922,-35.531 9.753,-31.78C9.47,-25.511 10.377,-19.171 12.477,-13.254C13.136,-11.396 19.124,2.773 20.937,2.803C25.659,2.803 31.287,3.578 35.726,2.422C33.481,-4.844 23.529,-8.584 24.206,-17.343C24.538,-21.646 27.728,-25.121 29.379,-29.108C31.208,-33.528 31.103,-38.475 30.968,-43.256C30.747,-51.124 30.516,-59.066 28.595,-66.699C27.949,-69.265 4.27,-122.445 0,-118.867" style="fill:rgb(3,4,4);fill-rule:nonzero;"/>
                </g>
                <g transform="matrix(1,0,0,1,381.258,598.1387)">
                    <path d="M0,-22.694L7.912,-28.713C4.095,-36.238 0.278,-43.763 -3.538,-51.287C-4.712,-53.601 -7.097,-61.493 -9.353,-62.794C-14.492,-65.758 -24.922,-55.162 -27.805,-51.203C-28.597,-50.115 -29.332,-48.962 -29.731,-47.677C-32.114,-39.994 -29.367,-27.91 -29.042,-19.918C-28.631,-9.829 -28.221,0.26 -27.813,10.349C-27.624,15.006 -27.436,19.663 -27.248,24.32C-27.15,26.742 -28.212,35.965 -26.633,37.645C-21.527,43.064 -2.289,38.327 4.599,38.301C5.188,38.298 1.345,-9.664 0.851,-14.003C0.531,-16.813 0.277,-19.732 0,-22.694" style="fill:rgb(3,4,4);fill-rule:nonzero;"/>
                </g>
                <g transform="matrix(1,0,0,1,410.5583,375.7701)">
                    <path d="M0,139.504C0.973,136.836 9.273,133.439 11.565,132.011C20.108,126.69 28.449,120.991 36.021,114.339C55.568,97.169 69.569,73.782 75.47,48.443C76.474,44.132 77.252,39.756 77.485,35.336C77.762,30.092 77.273,24.842 76.784,19.614C76.057,11.853 75.331,4.093 74.605,-3.668C74.014,-9.989 73.133,-23.145 80.752,-25.552C86.535,-27.379 93.072,-29.151 98.423,-26.296C102.312,-24.221 104.687,-20.058 105.885,-15.816C107.084,-11.575 107.307,-7.126 108.07,-2.785C109.872,7.46 112.005,16.058 111.136,26.714C108.841,54.875 100.692,83.294 86.029,107.825C78.651,120.167 69.627,131.532 59.103,141.342C48.222,151.485 35.527,158.149 23.569,166.613L15.38,168.655C11.097,160.723 6.73,152.83 2.527,144.854C1.991,143.836 -0.269,140.981 -0.076,139.791C-0.061,139.696 -0.035,139.601 0,139.504" style="fill:rgb(3,4,4);fill-rule:nonzero;"/>
                </g>
                <g transform="matrix(1,0,0,1,424.7891,371.1833)">
                    <path d="M0,47.771C1.039,44.697 2.76,41.894 4.22,38.989C6.477,34.498 15.473,-18.779 9.809,-18.779C14.205,-18.779 29.306,-21.247 32.295,-18.441C39.404,-11.764 34.123,13.235 32.795,21.478C30.26,37.219 25.507,55.864 16.287,69.018C8.657,64.177 -3.465,58.97 -0.169,48.294C-0.115,48.119 -0.059,47.944 0,47.771" style="fill:rgb(3,4,4);fill-rule:nonzero;"/>
                </g>
                <g transform="matrix(0,-1,-1,0,499.468,280.7875)">
                    <path d="M-29.107,-29.107C-45.181,-29.107 -58.213,-16.076 -58.213,-0C-58.213,16.074 -45.181,29.107 -29.107,29.107C-13.032,29.107 -0,16.074 -0,-0C-0,-16.076 -13.032,-29.107 -29.107,-29.107" style="fill:rgb(3,4,4);fill-rule:nonzero;"/>
                </g>
                <g transform="matrix(1,0,0,1,369.8671,399.1102)">
                    <path d="M0,-171.557C1.781,-171.528 4.23,-31.048 4.72,-14.764C4.721,-14.731 4.688,-13.802 4.751,-13.769C12.815,-9.55 24.083,-0.687 32.816,0C33.538,-5.771 32.615,-71.958 33.09,-71.984C42.282,-72.494 51.474,-73.004 60.665,-73.514L60.665,-94.962L30.332,-96.492C28.954,-121.514 27.575,-146.535 26.197,-171.557L0,-171.557Z" style="fill:rgb(3,4,4);fill-rule:nonzero;"/>
                </g>
                <g transform="matrix(1,0,0,1,430.5309,52.7026)">
                    <path d="M0,228.085C-5.824,228.065 -5.658,186.522 -5.797,181.882C-7.068,139.529 4.248,79.252 -35.548,51.103C-48.894,41.663 -64.606,36.267 -80.079,30.991C-80.036,20.656 -80,10.332 -79.738,0C-57.378,11.16 -24.475,13.726 -6.393,31.783C2.778,40.942 6.617,55.495 11.101,67.384C11.664,68.876 12.38,70.529 13.869,71.102C14.926,71.509 16.112,71.254 17.205,70.957C20.984,69.931 24.642,68.457 28.077,66.577C28.617,66.281 29.229,65.965 29.818,66.143C30.268,66.278 30.585,66.67 30.87,67.043C36.979,75.055 51.348,93.514 39.851,99.719C38.548,100.422 26.005,103.817 26.005,104.413C27.35,145.738 24.512,186.816 24.512,228.085L0,228.085Z" style="fill:rgb(3,4,4);fill-rule:nonzero;"/>
                </g>
                <g transform="matrix(1,0,0,1,293.4833,264.4426)">
                    <path d="M0,-40.587C0.28,-40.149 0.54,-39.691 0.777,-39.209C2.229,-36.259 2.487,-32.884 2.72,-29.604C5.131,4.281 7.592,38.16 10.078,72.039C10.163,73.194 9.885,82.939 10.921,83.53C10.921,83.531 51.772,106.855 51.772,106.855C50.131,60.596 48.487,14.338 46.842,-31.921C46.789,-33.399 46.757,-34.963 47.487,-36.248C48.257,-37.604 49.722,-38.385 51.111,-39.094C63.116,-45.222 75.295,-50.699 83.015,-62.28C87.843,-70.029 89.573,-79.252 91.212,-88.233C92.013,-92.617 92.814,-97.116 92.026,-101.503C90.759,-108.549 85.643,-114.186 80.745,-119.406C74.913,-125.621 68.904,-132.022 61.519,-136.419C54.666,-140.5 46.508,-142.28 39.006,-144.889L39.517,-90.251L11.432,-92.294C11.432,-92.294 7.352,-147.372 7.346,-147.442C7.538,-144.856 -7.629,-135.76 -9.817,-134.084C-17.816,-127.955 -24.912,-120.646 -30.785,-112.457C-34.308,-107.544 -37.461,-102.139 -38.323,-96.155C-39.612,-87.208 -35.62,-78.347 -30.793,-70.705C-26.681,-64.195 -21.665,-56.683 -15.4,-52.069C-10.297,-48.311 -3.529,-46.097 0,-40.587" style="fill:rgb(3,4,4);fill-rule:nonzero;"/>
                </g>
                <g transform="matrix(1,0,0,1,285.1625,635.8304)">
                    <path d="M0,-142.78C-16.097,-123.459 -30.281,-105.999 -25.028,-79.169C-20.964,-58.414 -7.997,-44.262 3.411,-27.428C5.37,-24.537 7.174,-21.373 7.444,-17.891C7.588,-16.027 2.537,2.158 0.346,2.159C6.085,2.157 11.823,2.179 17.561,2.192C27.652,-10.859 29.052,-30.019 20.966,-44.399C16.819,-51.773 10.569,-57.731 5.822,-64.734C-0.541,-74.124 0.03,-81.984 0.825,-92.624C1.485,-101.448 2.908,-109.338 8.756,-116.186C13.778,-122.066 19.339,-127.914 23.837,-134.32C16.531,-137.92 9.254,-141.575 1.851,-144.972C1.229,-144.245 0.612,-143.515 0,-142.78" style="fill:rgb(3,4,4);fill-rule:nonzero;"/>
                </g>
            </g>
        </g>
    </g>
</svg>
