<?xml version="1.0" encoding="UTF-8" standalone="no"?>
<!DOCTYPE svg PUBLIC "-//W3C//DTD SVG 1.1//EN" "http://www.w3.org/Graphics/SVG/1.1/DTD/svg11.dtd">
<svg width="2835px" height="2835px" version="1.1" xmlns="http://www.w3.org/2000/svg" xmlns:xlink="http://www.w3.org/1999/xlink" xml:space="preserve" xmlns:serif="http://www.serif.com/" style="fill-rule:evenodd;clip-rule:evenodd;stroke-linecap:round;stroke-linejoin:round;stroke-miterlimit:1.5;">
    <g id="Page-1" serif:id="Page 1" transform="matrix(4.166667,0,0,4.166667,0,0)">
        <rect x="0" y="0" width="680.315" height="680.315" style="fill:none;"/>
        <clipPath id="_clip1">
            <rect x="0" y="0" width="680.315" height="680.315"/>
        </clipPath>
        <g clip-path="url(#_clip1)">
            <g id="Layer-2" serif:id="Layer 2">
                <g transform="matrix(0.24,0,0,0.24,0,0)">
                    <rect x="0" y="0" width="2834.646" height="2834.646" style="fill:rgb(235,235,235);stroke:black;stroke-width:166.67px;"/>
                </g>
                <g transform="matrix(0.24,0,0,0.24,0,0)">
                    <rect x="0" y="0" width="2834.646" height="2834.646" style="fill:rgb(235,235,235);fill-opacity:0;stroke:rgb(235,235,255);stroke-width:125px;"/>
                </g>
                <g transform="matrix(0.24,0,0,0.24,0,0)">
                    <rect x="0" y="0" width="2834.646" height="2834.646" style="fill:rgb(235,235,235);fill-opacity:0;stroke:rgb(235,235,255);stroke-width:125px;"/>
                </g>
                <g transform="matrix(0.24,0,0,0.24,0,0)">
                    <rect x="0" y="0" width="2834.646" height="2834.646" style="fill:rgb(235,235,235);fill-opacity:0;stroke:rgb(235,235,235);stroke-width:125px;"/>
                </g>
                <g transform="matrix(0.24,0,0,0.24,0,0)">
                    <rect x="0" y="0" width="2834.646" height="2834.646" style="fill:rgb(235,235,235);fill-opacity:0;stroke:black;stroke-width:83.33px;"/>
                </g>
            </g>
            <g id="Layer-1" serif:id="Layer 1" transform="matrix(1,0,0,1,-1.915126,-6.707816)">
                <g transform="matrix(1,0,0,1,206.5513,347.1966)">
                    <path d="M0,-301.25C-3.983,-300.062 -7.664,-297.346 -10.729,-294.399C-27.031,-278.73 -44.794,-264.909 -60.052,-247.995C-64.202,-243.395 -104.083,-188.015 -100.79,-186.748C-113.601,-191.676 -128.468,-194.277 -140.605,-187.969C-152.742,-181.661 -158.985,-163.516 -149.596,-153.411C-139.851,-142.924 -122.707,-147.726 -108.946,-144.106C-107.349,-143.686 -105.724,-143.108 -104.541,-141.942C-102.707,-140.134 -102.321,-137.349 -102.03,-134.784C-99.565,-113.124 -96.436,-91.298 -88.573,-70.962C-75.074,-36.051 -39.772,-8.528 -3.5,-0.9C4.566,0.796 13.611,-0.271 19.832,-5.676C25.09,-10.243 27.627,-17.153 29.962,-23.756C30.399,-24.993 30.844,-26.288 30.67,-27.599C29.486,-36.46 -7.492,-53.671 -14.83,-59.374C-31.004,-71.946 -45.663,-87.101 -53.272,-106.557C-61.305,-127.093 -61.038,-150.758 -52.546,-171.008C-40.845,-198.91 -16.146,-217.519 4.058,-238.772C18.839,-254.317 37.063,-267.416 21.341,-289.277C17.375,-294.792 12.686,-300.767 6.02,-301.745C3.966,-302.046 1.947,-301.831 0,-301.25" style="fill:rgb(3,4,4);fill-rule:nonzero;"/>
                </g>
                <g transform="matrix(1,0,0,1,306.6386,325.381)">
                    <path d="M0,-72.385C-35.836,-62.62 -71.429,-78.711 -79.498,-108.325C-87.567,-137.939 -65.057,-169.861 -29.22,-179.626C6.616,-189.39 42.208,-173.299 50.277,-143.686C58.346,-114.072 35.837,-82.15 0,-72.385M302.652,-170.058C302.539,-170.104 302.427,-170.151 302.315,-170.197C299.307,-171.441 291.256,-140.592 290.445,-137.611C287.475,-126.697 283.395,-111.175 271.556,-106.954C265.419,-104.767 258.646,-106.395 252.323,-108.036C240.17,-111.191 228.016,-114.345 215.862,-117.5C217.866,-131.149 218.751,-144.973 218.504,-158.782C218.423,-163.315 218.141,-168.104 215.656,-171.895C212.605,-176.549 207.274,-178.24 202.098,-179.064C193.089,-180.497 193.403,-177.959 191.745,-169.771C189.047,-156.447 185.285,-134.132 170.969,-128.576C168.895,-127.771 146.046,-128.621 146.083,-129.028C147.33,-142.673 147.148,-156.459 145.541,-170.082C143.949,-183.576 118.936,-180.205 114.186,-171.031C112.367,-167.518 112.944,-163.287 113.289,-159.327C113.485,-157.068 113.513,-130.539 111.232,-130.649C102.825,-131.056 85.757,-127.094 80.632,-135.668C77.435,-141.018 77.148,-150.43 74.497,-156.521C71.375,-163.693 67.35,-170.464 62.617,-176.677C44.394,-200.596 14.928,-216.754 -15.321,-214.033C-23.279,-213.317 -31.477,-211.73 -39.814,-209.292C-109.033,-189.049 -145.749,-98.469 -75.209,-50.941C-36.479,-24.846 38.632,-42.216 66.694,-77.55C70.859,-82.794 72.66,-90.716 76.798,-95.479C80.902,-100.202 91.369,-97.421 97.939,-97.094C100.926,-96.944 103.913,-96.806 106.9,-96.663C106.615,-95.817 106.328,-94.972 106.027,-94.138C98.343,-72.833 80.771,-56.795 62.326,-43.902C43.88,-31.008 23.808,-20.231 7.361,-4.83C-18.87,19.734 -34.384,57.956 -25.4,93.084C-24.364,97.135 -23.01,101.137 -20.923,104.757C-19.002,108.09 -16.494,111.042 -13.858,113.833C3.41,132.114 28.236,144.369 53.034,141.778C59.271,141.127 65.408,139.563 71.195,137.15C74.657,135.707 77.994,133.963 81.165,131.955C99.82,120.142 111.868,98.779 113.102,76.601C113.521,69.072 112.674,61.247 109.064,54.622C103.047,43.577 90.573,37.828 78.503,34.661C83.172,44.512 91.408,52.746 93.816,63.382C95.86,72.407 93.249,82.085 88.027,89.648C83.144,96.722 76.01,102.177 67.938,105.012C59.579,107.947 50.497,108.076 41.652,107.426C35.341,106.962 28.852,106.05 23.395,102.788C17.889,99.496 13.912,94.07 11.034,88.301C-2.086,62.004 7.222,29.725 28.577,11.1C38.904,2.093 51.589,-3.591 63.432,-10.444C71.191,-14.933 78.636,-19.957 85.866,-25.267C91.476,-29.387 96.989,-33.707 101.692,-38.854C105.769,-43.316 109.189,-48.346 112.445,-53.452C118.819,-63.446 124.626,-73.809 129.833,-84.474C131.496,-87.88 133.41,-91.536 135.282,-95.311C135.419,-95.304 135.555,-95.298 135.691,-95.291C142.522,-94.96 149.485,-96.236 156.27,-94.846C168.075,-92.427 166.395,-84.846 162.444,-75.087C157.955,-63.998 153.466,-52.91 148.977,-41.821C147.54,-38.273 146.082,-34.623 146.006,-30.783C145.929,-26.943 147.54,-22.811 150.898,-20.985C158.081,-17.081 166.045,-22.593 171.075,-27.36C185.174,-40.721 194.674,-58.237 202.906,-75.919C203.329,-76.826 203.784,-77.778 204.603,-78.343C205.945,-79.269 207.76,-78.858 209.324,-78.385C223.542,-74.079 236.937,-67.48 250.951,-62.59C262.852,-58.437 283.469,-51.137 294.263,-61.175C296.583,-63.332 297.909,-66.341 299.154,-69.269C310.229,-95.298 319.735,-121.571 324.543,-149.609C325.004,-152.303 325.424,-155.105 324.7,-157.746C322.758,-164.823 308.475,-167.65 302.652,-170.058" style="fill:rgb(3,4,4);fill-rule:nonzero;"/>
                </g>
                <g transform="matrix(1,0,0,1,413.5899,637.5367)">
                    <path d="M0,-291.641C4.318,-289.054 8.418,-286.257 12.175,-283.154C21.281,-275.633 28.332,-266.16 30.367,-255.295C33.325,-239.513 25.611,-222.769 17.785,-207.026C13.822,-199.055 5.309,-190.579 -0.774,-183.381C-10.308,-172.099 -23.54,-161.011 -36.452,-152.134C-50.455,-142.507 -60.856,-134.016 -72.954,-122.599C-112.488,-85.288 -65.056,-36.427 -29.398,-18.852C-14.533,-11.525 2.061,-6.563 18.837,-2.184C27.472,0.07 36.191,2.163 44.848,4.374C52.642,6.364 61.386,10.248 69.543,10.878C76.695,-6.155 78.676,-24.386 85.563,-41.65C92.577,-59.233 102.192,-76.937 102.064,-94.74C101.97,-107.718 96.658,-119.759 90.823,-131.282C85.502,-141.788 71.054,-148.402 60.768,-155.663C64.91,-152.739 69.142,-143.135 71.302,-138.9C86.663,-108.787 64.789,-68.956 48.595,-38.893C47.404,-36.681 46.072,-34.329 43.613,-32.92C38.67,-30.089 27.21,-36.289 22.908,-37.683C10.919,-41.568 0.736,-47.357 -10.03,-52.983C-12.957,-54.512 -15.914,-56.062 -18.229,-58.158C-20.595,-60.299 -22.208,-62.936 -23.799,-65.544C-26.042,-69.223 -28.285,-72.902 -30.529,-76.581C-31.618,-78.368 -32.718,-80.179 -33.18,-82.19C-33.719,-84.536 -33.362,-87.037 -32.986,-89.494C-30.258,-107.286 -23.61,-121.6 -14.036,-138.151C-14.036,-138.151 6.407,-162.717 6.556,-162.895C16.742,-175.136 29.304,-185.028 37.73,-198.373C42.307,-205.621 46.092,-213.252 47.425,-221.046C50.749,-240.482 41.884,-263.895 29.926,-279.063C19.353,-292.476 1.313,-302.519 -19.405,-301.674C-12.736,-298.578 -6.148,-295.324 0,-291.641" style="fill:rgb(3,4,4);fill-rule:nonzero;"/>
                </g>
                <g transform="matrix(-0.262891,-0.964826,-0.964826,0.262891,407.238002,73.855114)">
                    <path d="M-25.584,-33.488C-40.397,-33.488 -52.405,-21.616 -52.404,-6.971C-52.404,7.674 -40.397,19.546 -25.584,19.546C-10.772,19.546 1.237,7.674 1.236,-6.971C1.236,-21.616 -10.771,-33.488 -25.584,-33.488" style="fill:rgb(3,4,4);fill-rule:nonzero;"/>
                </g>
                <g transform="matrix(-0.262888,-0.964826,-0.964826,0.262888,216.539138,393.136266)">
                    <path d="M-26.132,-34.206C-41.263,-34.206 -53.528,-22.079 -53.528,-7.12C-53.528,7.838 -41.263,19.965 -26.132,19.966C-11.002,19.965 1.263,7.839 1.264,-7.12C1.263,-22.079 -11.002,-34.205 -26.132,-34.206" style="fill:rgb(3,4,4);fill-rule:nonzero;"/>
                </g>
                <g transform="matrix(-0.262898,-0.964824,-0.964824,0.262898,521.042498,277.662839)">
                    <path d="M-21.205,-27.756C-33.482,-27.757 -43.435,-17.916 -43.435,-5.778C-43.435,6.36 -33.482,16.201 -21.205,16.2C-8.927,16.2 1.025,6.36 1.025,-5.778C1.025,-17.916 -8.928,-27.756 -21.205,-27.756" style="fill:rgb(3,4,4);fill-rule:nonzero;"/>
                </g>
            </g>
        </g>
    </g>
</svg>
