<?xml version="1.0" encoding="UTF-8" standalone="no"?>
<!DOCTYPE svg PUBLIC "-//W3C//DTD SVG 1.1//EN" "http://www.w3.org/Graphics/SVG/1.1/DTD/svg11.dtd">
<svg width="2835px" height="2835px" version="1.1" xmlns="http://www.w3.org/2000/svg" xmlns:xlink="http://www.w3.org/1999/xlink" xml:space="preserve" xmlns:serif="http://www.serif.com/" style="fill-rule:evenodd;clip-rule:evenodd;stroke-linecap:round;stroke-linejoin:round;stroke-miterlimit:1.5;">
    <g id="Page-1" serif:id="Page 1" transform="matrix(4.166667,0,0,4.166667,0,0)">
        <rect x="0" y="0" width="680.315" height="680.315" style="fill:none;"/>
        <clipPath id="_clip1">
            <rect x="0" y="0" width="680.315" height="680.315"/>
        </clipPath>
        <g clip-path="url(#_clip1)">
            <g id="Layer-2" serif:id="Layer 2">
                <g transform="matrix(0.24,0,0,0.24,0,0)">
                    <rect x="0" y="0" width="2834.646" height="2834.646" style="fill:rgb(235,235,235);stroke:black;stroke-width:166.67px;"/>
                </g>
                <g transform="matrix(0.24,0,0,0.24,0,0)">
                    <rect x="0" y="0" width="2834.646" height="2834.646" style="fill:rgb(235,235,235);fill-opacity:0;stroke:rgb(235,235,255);stroke-width:125px;"/>
                </g>
                <g transform="matrix(0.24,0,0,0.24,0,0)">
                    <rect x="0" y="0" width="2834.646" height="2834.646" style="fill:rgb(235,235,235);fill-opacity:0;stroke:rgb(235,235,255);stroke-width:125px;"/>
                </g>
                <g transform="matrix(0.24,0,0,0.24,0,0)">
                    <rect x="0" y="0" width="2834.646" height="2834.646" style="fill:rgb(235,235,235);fill-opacity:0;stroke:rgb(235,235,235);stroke-width:125px;"/>
                </g>
                <g transform="matrix(0.24,0,0,0.24,0,0)">
                    <rect x="0" y="0" width="2834.646" height="2834.646" style="fill:rgb(235,235,235);fill-opacity:0;stroke:black;stroke-width:83.33px;"/>
                </g>
            </g>
            <g id="Layer-1" serif:id="Layer 1" transform="matrix(1,0,0,1,-16.588182,27.025644)">
                <g transform="matrix(-0.523708,0.851898,0.851898,0.523708,392.930346,506.591557)">
                    <path d="M-135.426,-132.624L83.959,-132.624L85.381,-93.986L-125.66,-63.681L-135.426,-132.624Z" style="fill:rgb(3,4,4);fill-rule:nonzero;"/>
                </g>
                <g transform="matrix(-0.514485,0.8575,0.8575,0.514485,463.076273,295.148838)">
                    <path d="M22.227,-101.436L49.025,-101.436L62.95,3.389L30.635,12.585L22.227,-101.436Z" style="fill:rgb(3,4,4);fill-rule:nonzero;"/>
                </g>
                <g transform="matrix(0.65323,-0.757159,-0.757159,-0.65323,509.407974,277.52534)">
                    <path d="M-50.77,23.954L52.415,23.954L45.298,118.974L-55.523,106.852L-50.77,23.954Z" style="fill:rgb(3,4,4);fill-rule:nonzero;"/>
                </g>
                <g transform="matrix(-0.768221,-0.640185,-0.640185,0.768221,479.738169,116.984958)">
                    <path d="M-115.542,10.253L4.105,10.253L9.853,34.463L-118.288,39.871L-115.542,10.253Z" style="fill:rgb(3,4,4);fill-rule:nonzero;"/>
                </g>
                <g transform="matrix(1,0,0,1,573.6242,129.7207)">
                    <path d="M0,19.803C-2.329,9.415 -8.051,-0.346 -15.894,-7.525C-26.308,-17.059 -41.28,-22.589 -55.458,-21.509C-60.359,-21.136 -77.217,-12.704 -80.624,-15.146C-55.232,3.059 -28.211,29.112 -0.155,41.58C1.673,42.392 0.214,20.755 0,19.803" style="fill:rgb(3,4,4);fill-rule:nonzero;"/>
                </g>
                <g transform="matrix(0.768225,0.64018,0.64018,-0.768225,193.951808,539.164151)">
                    <path d="M12.757,-21.449L60.616,-21.449L67.089,25.821C67.089,25.821 6.089,24.841 -0.384,25.43L12.757,-21.449Z" style="fill:rgb(3,4,4);fill-rule:nonzero;"/>
                </g>
                <g transform="matrix(1,0,0,1,376.7236,355.0301)">
                    <path d="M0,87.433C3.81,101.245 25.27,101.953 36.67,102.19C49.408,102.455 62.625,102.229 74.154,96.806C89.358,89.653 99.484,74.069 102.995,57.636C106.068,43.25 104.208,29.149 101.276,14.948C100.475,11.07 90.683,-15.022 90.578,-14.865C87.481,-10.239 70.128,22.156 66.064,21.885C66.064,21.885 49.213,20.353 49.212,20.353L19.798,53.97C12.9,61.853 -3.353,75.279 0,87.433" style="fill:rgb(3,4,4);fill-rule:nonzero;"/>
                </g>
                <g transform="matrix(1,0,0,1,227.9459,94.2643)">
                    <path d="M0,265.046C5.191,269.004 8.903,274.546 12.517,279.982C19.741,290.847 22.741,298.562 20.223,311.211C18.676,318.981 17.71,326.91 16.458,334.736C17.048,331.052 24.01,324.858 26.263,321.946C31.18,315.596 35.582,309.232 39.152,301.991C41.254,297.729 43.11,293.27 43.735,288.56C45.077,278.454 40.733,268.615 38.52,258.928C35.614,246.206 31.298,233.588 23.324,223.091C12.603,208.979 -4.031,199.488 -11.977,183.648C-21.044,165.575 -16.608,143.967 -11.978,124.284C-16.388,141.862 -8.063,160.196 2.678,174.793C13.418,189.391 26.847,202.185 35.062,218.339C41.198,230.403 44.066,243.727 46.131,257.008C46.862,261.706 52.779,283.771 50.16,287.246C79.588,248.188 107.142,212.746 106.254,161.103C105.835,136.723 98.684,111.341 81.133,94.413C69.186,82.89 53.536,76.218 38.943,68.309C24.351,60.4 9.821,50.227 3.192,35.01C1.198,30.433 -0.002,25.558 -1.284,20.733C-5.945,3.202 -11.962,-14.422 -12.351,-32.732C-12.616,-45.16 -8.341,-57.535 -5.754,-69.69L-18.01,-51.307C-23.338,-43.206 -27.374,-32.793 -31.231,-23.939C-36.948,-10.815 -43.851,1.798 -50.507,14.586C-65.28,42.965 -79.344,71.782 -90.688,101.727C-95.874,115.417 -100.515,129.453 -102.143,144.002C-105.088,170.319 -97.633,197.659 -81.738,218.838C-79.147,222.291 -76.311,225.614 -72.857,228.202C-69.852,230.454 -66.445,232.101 -63.063,233.733C-45.478,242.218 -27.893,250.702 -10.309,259.187C-6.743,260.908 -3.149,262.645 0,265.046" style="fill:rgb(3,4,4);fill-rule:nonzero;"/>
                </g>
                <g transform="matrix(1,0,0,1,194.0002,389.1743)">
                    <path d="M0,46.948C0.497,47.935 1.069,48.923 1.939,49.605C2.783,50.267 3.839,50.588 4.867,50.896C13.904,53.597 22.939,56.303 31.988,58.965C32.811,59.207 41.372,50.985 41.979,49.766C45.932,41.497 40.998,23.464 37.998,15.505C37.25,13.521 36.391,11.547 35.078,9.882C34.047,8.576 32.765,7.495 31.492,6.424C20.278,-3.013 9.786,-7.855 -3.979,-12.259C-3.03,-11.956 -3.779,10.671 -3.819,12.488C-4.071,24.046 -5.392,36.242 0,46.948" style="fill:rgb(3,4,4);fill-rule:nonzero;"/>
                </g>
                <g transform="matrix(1,0,0,1,295.5413,83.4699)">
                    <path d="M0,49.103C4.975,50.166 10.4,50.673 14.949,48.395C20.074,45.829 22.965,40.32 25.097,35C33.909,13.019 19.258,-1.57 -3.272,5.62C-17.493,10.16 -25.544,28.893 -14.948,41.541C-11.293,45.903 -5.565,47.914 0,49.103" style="fill:rgb(3,4,4);fill-rule:nonzero;"/>
                </g>
                <g transform="matrix(0.951875,0.306488,0.306488,-0.951875,350.618837,203.454699)">
                    <path d="M13.809,-1.091C38.863,-0.179 59.312,25.786 57.441,50.092C55.638,73.499 35.467,91.634 13.809,93.102C4.909,93.706 -4.244,91.494 -12.476,85.675C-46.289,61.776 -29.718,-2.677 13.809,-1.091" style="fill:rgb(3,4,4);fill-rule:nonzero;"/>
                </g>
                <g transform="matrix(1,0,0,1,577.9626,314.3852)">
                    <path d="M0,240.347C-2.21,220.839 -2.405,201.171 -2.138,181.561C-1.602,142.242 1.074,102.525 -5.845,63.574C-10.29,38.551 -18.715,14.243 -30.674,-8.18C-32.701,-11.98 -62.807,-49.668 -63.941,-48.534C-63.941,-48.534 -91.666,-8.821 -92.275,-7.945C-92.384,-7.276 -70.542,15.221 -68.904,17.834C-61.316,29.937 -57.081,43.939 -53.828,57.741C-47.635,84.015 -44.037,110.9 -43.103,137.877C-42.698,149.566 -42.792,161.265 -42.887,172.96C-43.051,193.417 -39.309,218.795 -43.956,238.538C-64.004,234.764 -85.01,233.717 -105.308,229.589C-130.412,224.484 -155.235,216.762 -177.329,203.795C-181.99,201.059 -230.543,168.394 -227.09,162.87L-257.729,211.125C-243.944,222.153 -231.266,233.467 -215.725,241.892C-195.57,252.818 -174.426,261.914 -152.651,269.085C-98.868,286.799 -45.548,290.015 10.357,285.423C6.507,285.739 0.416,244.017 0,240.347" style="fill:rgb(3,4,4);fill-rule:nonzero;"/>
                </g>
            </g>
        </g>
    </g>
</svg>
