<?xml version="1.0" encoding="UTF-8" standalone="no"?>
<!DOCTYPE svg PUBLIC "-//W3C//DTD SVG 1.1//EN" "http://www.w3.org/Graphics/SVG/1.1/DTD/svg11.dtd">
<svg width="2835px" height="2835px" version="1.1" xmlns="http://www.w3.org/2000/svg" xmlns:xlink="http://www.w3.org/1999/xlink" xml:space="preserve" xmlns:serif="http://www.serif.com/" style="fill-rule:evenodd;clip-rule:evenodd;stroke-linecap:round;stroke-linejoin:round;stroke-miterlimit:1.5;">
    <g id="Page-1" serif:id="Page 1" transform="matrix(4.166667,0,0,4.166667,0,0)">
        <rect x="0" y="0" width="680.315" height="680.315" style="fill:none;"/>
        <clipPath id="_clip1">
            <rect x="0" y="0" width="680.315" height="680.315"/>
        </clipPath>
        <g clip-path="url(#_clip1)">
            <g id="Layer-2" serif:id="Layer 2">
                <g transform="matrix(0.24,0,0,0.24,0,0)">
                    <rect x="0" y="0" width="2834.646" height="2834.646" style="fill:rgb(235,235,235);stroke:black;stroke-width:166.67px;"/>
                </g>
                <g transform="matrix(0.24,0,0,0.24,0,0)">
                    <rect x="0" y="0" width="2834.646" height="2834.646" style="fill:rgb(235,235,235);fill-opacity:0;stroke:rgb(235,235,255);stroke-width:125px;"/>
                </g>
                <g transform="matrix(0.24,0,0,0.24,0,0)">
                    <rect x="0" y="0" width="2834.646" height="2834.646" style="fill:rgb(235,235,235);fill-opacity:0;stroke:rgb(235,235,255);stroke-width:125px;"/>
                </g>
                <g transform="matrix(0.24,0,0,0.24,0,0)">
                    <rect x="0" y="0" width="2834.646" height="2834.646" style="fill:rgb(235,235,235);fill-opacity:0;stroke:rgb(235,235,235);stroke-width:125px;"/>
                </g>
                <g transform="matrix(0.24,0,0,0.24,0,0)">
                    <rect x="0" y="0" width="2834.646" height="2834.646" style="fill:rgb(235,235,235);fill-opacity:0;stroke:black;stroke-width:83.33px;"/>
                </g>
            </g>
            <g id="Layer-1" serif:id="Layer 1" transform="matrix(1,0,0,1,7.451925,5.213424)">
                <g transform="matrix(1,0,0,1,108.5103,45.7758)">
                    <path d="M0,239.653C0.433,241.296 0.924,243.035 2.211,244.191C3.78,245.598 6.112,245.78 8.253,245.888C35.551,247.259 62.85,248.63 90.148,250.001C91.112,237.615 92.076,225.228 93.04,212.841C79.152,211.824 65.265,210.806 51.378,209.789C49.163,209.627 46.759,209.387 45.15,207.91C43.885,206.748 43.367,205.04 42.929,203.409C30.08,155.572 44.855,106.12 73.695,66.415C80.975,56.393 89.042,46.902 97.804,38.05C99.401,36.438 101.055,34.82 103.099,33.777C106.34,32.121 110.178,32.086 113.846,32.09C174.031,32.15 234.216,32.21 294.4,32.27C298.633,32.274 303.019,32.248 306.865,30.546C309.594,29.338 311.865,27.364 314.09,25.421C322.191,18.342 330.254,11.218 338.396,4.183C340.609,2.271 347.509,-5.938 350.145,-5.898C350.008,-5.898 349.871,-5.902 349.735,-5.904C256.716,-7.341 163.695,-8.675 70.679,-10.286C67.444,-10.342 64.009,-10.348 61.25,-8.719C59.096,-7.447 57.646,-5.34 56.27,-3.299C37.811,24.088 19.94,52.045 6.939,82.204C-6.061,112.363 -14.091,144.99 -12.091,177.592C-10.8,198.638 -5.388,219.22 0,239.653" style="fill:rgb(3,4,4);fill-rule:nonzero;"/>
                </g>
                <g transform="matrix(1,0,0,1,177.5729,109.1239)">
                    <path d="M0,114.388C6.712,115.888 14.371,118.755 21.209,119.004C28.504,119.27 26.021,120.942 30.395,115.283C33.561,111.188 34.918,104.029 37.241,99.316C47.994,77.503 63.921,57.348 85.457,44.533C102.028,34.673 121.09,28.811 140.489,27.341C143.887,27.083 187.937,29.826 187.384,32.031C190.458,19.756 201.229,6.587 181.377,3.148C162.787,-0.071 143.657,-2.334 125.075,0.926C95.399,6.132 75.797,19.147 50.977,-4.035C49.811,-5.124 48.519,-6.269 46.909,-6.42C45.472,-6.554 44.107,-5.861 42.842,-5.189C35.989,-1.548 28.197,3.572 28.366,11.113C28.551,19.366 38.241,24.489 40.728,32.388C43.644,41.654 36.012,50.54 29.862,58.198C26.524,62.356 -1.182,114.124 0,114.388" style="fill:rgb(3,4,4);fill-rule:nonzero;"/>
                </g>
                <g transform="matrix(0.684384,-0.729122,-0.729122,-0.684384,515.725767,120.068452)">
                    <path d="M-26.22,20.894L50.293,20.894L45.753,63.252L-25.171,63.458L-26.22,20.894Z" style="fill:rgb(3,4,4);fill-rule:nonzero;"/>
                </g>
                <g transform="matrix(-0.726813,-0.686836,-0.686836,0.726813,409.108089,126.37295)">
                    <path d="M-71.176,-3.516L-6.714,-3.516L-3.223,30.241L-67.53,26.733L-71.176,-3.516Z" style="fill:rgb(3,4,4);fill-rule:nonzero;"/>
                </g>
                <g transform="matrix(1,0,0,1,432.939,370.6359)">
                    <path d="M0,-167.825L-49.608,-210.329C-49.01,-209.808 -62.278,-192.885 -63.24,-191.601C-71.144,-181.052 -74.851,-178.885 -89.132,-181.24C-138.171,-189.324 -190.961,-160.669 -206.022,-114.333C-229.482,-42.161 -171.082,42.504 -87.659,21.607C-56.669,13.844 -30.285,-8.612 -17.372,-36.853C-3.179,-67.89 -4.754,-105.6 -22.382,-135.052C-23.607,-137.098 -24.939,-139.209 -25.096,-141.566C-25.666,-150.178 -6.068,-162.41 0,-167.825" style="fill:rgb(3,4,4);fill-rule:nonzero;"/>
                </g>
                <g transform="matrix(1,0,0,1,518.9372,238.2821)">
                    <path d="M0,-83.975C6.055,-71.918 9.46,-58.703 11.046,-45.423C12.481,-33.407 12.444,-21.294 11.826,-9.229C11.552,-3.886 12.029,2.676 10.583,7.842C8.539,15.143 10.495,13.058 3.749,15.441C-4.073,18.203 -16.306,16.343 -24.433,16.269C-38.515,16.141 -52.594,15.718 -66.657,15.002C-66.736,15.002 -66.706,47.814 -66.706,51.308L-5.155,51.308C11.213,51.308 27.617,51.62 43.976,51.082C55.1,24.107 62.898,-4.538 62.623,-33.565C62.25,-73.056 42.592,-102.472 23.324,-135.595C23.324,-135.595 -15.203,-109.892 -15.261,-109.854C-15.924,-109.41 -0.861,-85.69 0,-83.975" style="fill:rgb(3,4,4);fill-rule:nonzero;"/>
                </g>
                <g transform="matrix(1,0,0,1,447.6377,303.7583)">
                    <path d="M0,33.649L108.403,33.649L108.403,3.552L4.593,0L0,33.649Z" style="fill:rgb(3,4,4);fill-rule:nonzero;"/>
                </g>
                <g transform="matrix(1,0,0,1,148.8614,403.3441)">
                    <path d="M0,-43.372C10.269,-56.788 29.559,-60.435 45.223,-66.404C45.223,-66.404 46.142,-92.084 45.223,-94.74L-25.515,-94.74L-22.443,-70.461C-23.65,-69.834 -24.693,-69.056 -25.522,-68.094C-39.248,-52.178 -47.222,-28.376 -53.112,-8.855C-57.025,4.113 -57.923,14.951 -57.466,28.27C-57.279,33.724 -55.266,46.351 -57.668,51.368C-41.338,17.264 -23.191,-13.074 0,-43.372" style="fill:rgb(3,4,4);fill-rule:nonzero;"/>
                </g>
                <g transform="matrix(1,0,0,1,204.1899,594.541)">
                    <path d="M0,-234.996C-1.032,-236.429 -55.423,-173.495 -59.624,-167.691C-86.295,-130.839 -111.117,-89.091 -120.346,-44.613L-92.786,1.433C-57.517,-68.256 -25.929,-138.783 25.723,-199.07C25.723,-199.07 0.005,-234.989 0,-234.996" style="fill:rgb(3,4,4);fill-rule:nonzero;"/>
                </g>
                <g transform="matrix(1,0,0,1,264.5415,540.0079)">
                    <path d="M0,-90.756L0,31.172L-10.739,30.376L-10.743,30.287L-70.049,28.516L0,-90.756ZM42.846,-19.301L42.846,24.974L27.56,24.974L27.56,25.338L27.133,25.348L26.66,-19.301L42.846,-19.301ZM101.357,-19.301L134.407,-19.301L134.407,24.974L99.191,24.974L101.357,-19.301ZM157.68,-19.301L170.626,-135.357L206.369,-133.236L182.178,31.172L152.168,31.172L157.68,-19.301ZM249.476,-133.088C267.849,-127.656 266.55,-78.726 265.903,-65.133C264.323,-31.949 251.765,0.071 234.836,28.694C234.013,30.085 233.139,31.514 231.788,32.447C227.805,35.196 219.178,32.967 214.492,32.907C212.494,32.882 207.156,31.89 203.127,31.749L227.76,-134.669C235.255,-134.797 243.19,-134.945 249.476,-133.088M-111.127,94.407L-8.906,94.407L-8.906,65.707L27.56,65.707L27.51,60.99C27.527,60.992 27.543,60.994 27.56,60.995L27.56,65.707L121.545,65.707L121.545,94.407L215.25,94.407L215.25,65.707L216.58,65.707C225.132,65.707 237.128,67.867 245.384,65.77C255.625,63.169 265.877,45.217 271.766,36.923C280.335,24.854 287.786,12.048 293.987,-1.3C297.198,-8.211 300.08,-15.279 302.235,-22.562C311.291,-53.172 307.11,-85.807 302.331,-117.302C301.459,-123.047 300.56,-128.826 298.622,-134.323C296.292,-140.929 292.521,-146.959 288.778,-152.93C285.003,-158.954 281.227,-164.978 277.451,-171.002C268.576,-185.163 249.627,-180.487 234.542,-180.487L176.053,-184.005L118.177,-128.514L118.483,-65.052L27.205,-65.052L27.56,-92.798L68.262,-92.798L68.262,-120.249L1.199,-120.249L-54.84,-37.897L-95.086,28.221L-121.698,28.221L-121.698,58.918L-108.353,57.946L-111.127,94.407Z" style="fill:rgb(3,4,4);fill-rule:nonzero;"/>
                </g>
                <g transform="matrix(1,0,0,1,291.2078,520.7062)">
                    <path d="M0,-0.308L-0.006,0L-0.009,-0.304L0,-0.308Z" style="fill:rgb(3,4,4);fill-rule:nonzero;"/>
                </g>
            </g>
        </g>
    </g>
</svg>
