<?xml version="1.0" encoding="UTF-8" standalone="no"?>
<!DOCTYPE svg PUBLIC "-//W3C//DTD SVG 1.1//EN" "http://www.w3.org/Graphics/SVG/1.1/DTD/svg11.dtd">
<svg width="2835px" height="2835px" version="1.1" xmlns="http://www.w3.org/2000/svg" xmlns:xlink="http://www.w3.org/1999/xlink" xml:space="preserve" xmlns:serif="http://www.serif.com/" style="fill-rule:evenodd;clip-rule:evenodd;stroke-linecap:round;stroke-linejoin:round;stroke-miterlimit:1.5;">
    <g id="Page-1" serif:id="Page 1" transform="matrix(4.166667,0,0,4.166667,0,0)">
        <rect x="0" y="0" width="680.315" height="680.315" style="fill:none;"/>
        <clipPath id="_clip1">
            <rect x="0" y="0" width="680.315" height="680.315"/>
        </clipPath>
        <g clip-path="url(#_clip1)">
            <g id="Layer-2" serif:id="Layer 2">
                <g transform="matrix(0.24,0,0,0.24,0,0)">
                    <rect x="0" y="0" width="2834.646" height="2834.646" style="fill:rgb(235,235,235);stroke:black;stroke-width:166.67px;"/>
                </g>
                <g transform="matrix(0.24,0,0,0.24,0,0)">
                    <rect x="0" y="0" width="2834.646" height="2834.646" style="fill:rgb(235,235,235);fill-opacity:0;stroke:rgb(235,235,255);stroke-width:125px;"/>
                </g>
                <g transform="matrix(0.24,0,0,0.24,0,0)">
                    <rect x="0" y="0" width="2834.646" height="2834.646" style="fill:rgb(235,235,235);fill-opacity:0;stroke:rgb(235,235,255);stroke-width:125px;"/>
                </g>
                <g transform="matrix(0.24,0,0,0.24,0,0)">
                    <rect x="0" y="0" width="2834.646" height="2834.646" style="fill:rgb(235,235,235);fill-opacity:0;stroke:rgb(235,235,235);stroke-width:125px;"/>
                </g>
                <g transform="matrix(0.24,0,0,0.24,0,0)">
                    <rect x="0" y="0" width="2834.646" height="2834.646" style="fill:rgb(235,235,235);fill-opacity:0;stroke:black;stroke-width:83.33px;"/>
                </g>
            </g>
            <g id="Layer-1" serif:id="Layer 1" transform="matrix(1,0,0,1,-17.955666,20.09715)">
                <g transform="matrix(1,0,0,1,215.1313,498.5014)">
                    <path d="M0,-111.771C0.076,-114.763 2.651,-141.484 5.437,-160.917L10.124,-181.331C10.124,-181.331 -20.514,-198.182 -26.642,-199.714C-32.751,-201.241 -56.552,-89.843 -56.699,-89.157C-71.086,-113.014 -81.147,-151.725 -77.196,-172.137C-80.715,-153.957 -88.104,-132.93 -86.589,-114.585C-79.91,-33.675 6.647,68.181 83.818,89.47C55.192,55.894 30.313,19.011 15.174,-22.697C4.853,-51.128 -0.768,-81.48 0,-111.771" style="fill:rgb(3,4,4);fill-rule:nonzero;"/>
                </g>
                <g transform="matrix(1,0,0,1,404.3892,335.0293)">
                    <path d="M0,-151.112C26.707,-145.256 56.789,-131.911 82.224,-113.251C74.342,-102.367 56.829,-78.181 56.781,-78.115C57.066,-78.508 40.684,-89.675 39.557,-90.341C39.076,-90.625 38.508,-90.914 37.985,-90.718C37.572,-90.562 37.325,-90.149 37.109,-89.764C35.337,-86.603 33.564,-83.443 31.792,-80.283C31.476,-79.719 31.151,-79.117 31.182,-78.471C31.236,-77.355 32.291,-76.594 33.228,-75.985C44.565,-68.612 53.926,-58.231 60.091,-46.194C60.948,-44.522 62.095,-42.575 63.973,-42.498C64.818,-42.463 65.62,-42.841 66.365,-43.242C73.149,-46.897 80.559,-53.536 74.423,-61.202C73.995,-61.737 65.94,-69.909 65.972,-69.944C65.973,-69.944 86.859,-92.814 95.683,-102.475C113.088,-87.24 127.128,-69.301 134.517,-49.539C141.726,-30.255 142.792,-9.932 140.529,10.176C111.085,9.545 81.64,8.914 52.196,8.282C50.942,8.255 49.577,8.188 48.629,7.367C47.879,6.718 47.544,5.724 47.241,4.78C44.786,-2.877 43.094,-11.887 39.058,-18.788C35.129,-25.506 29.099,-30.63 23.682,-36.047C17.758,-41.024 11.143,-45.185 4.167,-48.521C0.772,-50.145 -5.645,-51.289 -7.003,-54.223C-8.038,-56.459 -6.68,-62.214 -6.582,-64.627C-6.321,-71.09 -6.059,-77.553 -5.798,-84.017C-4.885,-106.589 -3.972,-129.162 -3.059,-151.734C-2.036,-151.536 -1.015,-151.334 0,-151.112M-133.68,-134.956C-128.423,-127.341 -120.754,-121.789 -113.238,-116.391C-93.815,-142.076 -61.175,-154.108 -28.554,-154.155C-29.363,-126.965 -30.19,-99.775 -31.042,-72.586C-31.234,-66.507 -28.599,-56.277 -36.138,-54.711C-43.077,-53.269 -49.387,-49.005 -53.311,-43.103C-49.504,-38.502 -45.226,-33.61 -39.367,-32.455C-35.078,-31.609 -30.705,-32.941 -26.396,-33.682C-12.088,-36.144 3.25,-31.698 14.024,-21.966C24.798,-12.235 30.777,2.574 29.779,17.058C29.272,24.405 27.119,32.027 29.654,38.942C31.931,45.154 37.544,49.449 43.039,53.134C44.044,46.792 45.409,40.507 47.123,34.319C47.44,33.176 47.811,31.968 48.716,31.2C49.845,30.242 51.474,30.236 52.954,30.278C80.876,31.079 108.798,31.879 136.721,32.68C135.876,36.499 134.947,40.293 133.952,44.052C132.246,50.497 106.494,116.44 111.934,119.71C117.568,123.097 123.179,126.65 129.01,129.554C133.456,131.768 163.859,52.779 165.302,43.631C165.832,40.273 166.314,36.908 166.754,33.541C186.267,34.101 205.781,34.66 225.294,35.22L225.246,11.992C206.495,11.59 187.745,11.188 168.994,10.786C173.551,-59.236 155.621,-127.748 92.012,-169.192C64.246,-187.282 31.992,-197.509 -1.071,-200.865C-1.018,-202.173 -0.966,-203.482 -0.913,-204.79C0.139,-230.781 1.19,-256.771 2.241,-282.761C2.242,-282.766 2.245,-282.88 2.246,-282.88L-25.432,-282.88C-22.53,-277.027 -25.578,-262.849 -25.72,-256.585C-26.133,-238.422 -26.638,-220.261 -27.153,-202.1C-34.065,-202.063 -40.971,-201.749 -47.837,-201.147C-74.586,-198.803 -145.598,-187.224 -138.536,-146.32C-137.899,-142.626 -136.349,-138.823 -133.68,-134.956" style="fill:rgb(3,4,4);fill-rule:nonzero;"/>
                </g>
                <g transform="matrix(1,0,0,1,351.3287,419.4942)">
                    <path d="M0,86.306C-23.899,77.285 -45.079,61.377 -60.737,41.212C-55.581,37.823 -50.426,34.435 -45.271,31.047C-42.081,35.557 -37.996,39.426 -33.341,42.397C-27.69,46.004 -25.753,46.881 -21.385,41.524C-17.955,37.318 -18.147,37.926 -22.478,34.493C-29.644,28.812 -35.944,22.689 -42.051,15.87C-49.543,7.504 -53.781,-0.563 -58.683,-10.436C-61.715,-9.349 -64.886,-8.472 -67.849,-7.3C-67.19,-5.076 -58.266,21.559 -55.033,19.126C-59.633,22.588 -64.435,25.777 -69.391,28.707C-72.146,24.217 -74.649,19.573 -76.86,14.788C-85.343,-3.566 -96.014,-34.206 -95.564,-57.712L-93.238,-60.965L-93.242,-60.969C-83.693,-56.929 -74.002,-53.223 -64.192,-49.864C-58.931,-48.062 -53.292,-46.119 -49.981,-41.651C-47.417,-38.19 -46.677,-33.764 -45.484,-29.626C-41.428,-15.554 -31.145,-5.363 -20.248,3.761C-15.816,7.472 -11.162,10.917 -6.317,14.07C-4.858,15.02 7.789,21.258 7.781,22.147C7.69,31.822 7.857,41.503 7.93,51.179C8.024,63.818 8.119,76.458 8.213,89.097C5.448,88.253 2.707,87.328 0,86.306M123.201,77.888C121.826,77.314 120.3,77.023 118.655,76.964C105.348,76.489 84.255,91.174 71.985,93.21C56.919,95.71 41.431,95.747 26.35,93.308C26.649,68.868 26.937,44.428 27.105,19.988C37.482,16.271 46.259,13.852 55.307,7.09C51.589,3.016 47.871,-1.058 44.152,-5.131C32.522,2.735 16.816,-0.893 3.712,-5.936C-5.186,-9.36 -14.212,-13.553 -20.269,-20.915C-27.391,-29.571 -29.356,-41.294 -30.228,-52.469C-30.345,-53.975 -30.486,-55.586 -31.433,-56.763C-32.433,-58.008 -34.092,-58.471 -35.64,-58.861C-57.938,-64.466 -80.512,-68.974 -103.253,-72.362C-104.174,-72.5 -105.188,-72.612 -106.037,-72.313C-106.293,-72.223 -106.534,-72.095 -106.753,-71.919C-107.71,-71.152 -107.804,-69.734 -107.327,-68.579C-110.378,-57.448 -101.323,9.534 -99.013,15.947C-87.482,47.968 -65.669,76.4 -37.109,95.039C-23.152,104.147 -7.703,110.832 8.407,115.021C8.516,129.653 8.626,144.286 8.735,158.918L25.586,158.918C25.654,152.732 25.723,146.546 25.791,140.361C25.871,133.097 25.959,125.834 26.047,118.571C37.173,120.174 48.465,120.63 59.669,119.898C65.91,119.491 144.601,99.415 140.479,95.293C135.807,90.62 129.09,80.348 123.201,77.888" style="fill:rgb(3,4,4);fill-rule:nonzero;"/>
                </g>
                <g transform="matrix(1,0,0,1,298.3876,424.1102)">
                    <path d="M0,-151.921C-12.203,-163.613 -24.497,-175.43 -33.942,-189.444C-41.412,-200.529 -46.954,-212.777 -52.459,-224.958C-54.478,-229.427 -56.51,-233.934 -57.572,-238.722C-59.463,-247.254 -57.84,-255.417 -56.411,-263.846C-56.118,-265.576 -54.566,-283.942 -55.335,-283.601C-68.909,-277.58 -78.202,-265.098 -93.686,-261.14C-108.443,-257.367 -124.024,-260.314 -138.815,-263.951C-152.573,-267.334 -166.324,-271.387 -179.038,-277.739C-185.646,-281.04 -191.424,-285.138 -197.41,-289.402C-198.263,-290.01 -211.676,-298.513 -211.821,-296.64C-212.267,-290.22 -206.262,-285.22 -201.826,-281.265C-190.934,-271.553 -181.319,-260.413 -173.304,-248.219C-168.473,-240.87 -164.202,-233.094 -161.365,-224.769C-156.841,-211.489 -156.19,-197.335 -157.406,-183.455C-158.569,-170.177 -164.833,-155.389 -164.309,-142.432C-164.361,-143.729 -148.316,-149.885 -146.657,-150.499C-139.043,-153.321 -131.086,-155.632 -122.878,-154.652C-118.927,-154.18 -115.105,-152.971 -111.33,-151.716C-63.586,-135.838 -18.188,-111.406 20.887,-79.64C79.41,-32.066 140.164,12.996 199.832,59.141C237.525,88.292 275.218,117.442 312.91,146.592C288.799,123.602 264.687,100.612 240.575,77.621C160.358,1.135 80.033,-75.241 0,-151.921" style="fill:rgb(3,4,4);fill-rule:nonzero;"/>
                </g>
            </g>
        </g>
    </g>
</svg>
