<?xml version="1.0" encoding="UTF-8" standalone="no"?>
<!DOCTYPE svg PUBLIC "-//W3C//DTD SVG 1.1//EN" "http://www.w3.org/Graphics/SVG/1.1/DTD/svg11.dtd">
<svg width="2835px" height="2835px" version="1.1" xmlns="http://www.w3.org/2000/svg" xmlns:xlink="http://www.w3.org/1999/xlink" xml:space="preserve" xmlns:serif="http://www.serif.com/" style="fill-rule:evenodd;clip-rule:evenodd;stroke-linecap:round;stroke-linejoin:round;stroke-miterlimit:1.5;">
    <g id="Page-1" serif:id="Page 1" transform="matrix(4.166667,0,0,4.166667,0,0)">
        <rect x="0" y="0" width="680.315" height="680.315" style="fill:none;"/>
        <clipPath id="_clip1">
            <rect x="0" y="0" width="680.315" height="680.315"/>
        </clipPath>
        <g clip-path="url(#_clip1)">
            <g id="Layer-2" serif:id="Layer 2">
                <g transform="matrix(0.24,0,0,0.24,0,0)">
                    <rect x="0" y="0" width="2834.646" height="2834.646" style="fill:rgb(235,235,235);stroke:black;stroke-width:166.67px;"/>
                </g>
                <g transform="matrix(0.24,0,0,0.24,0,0)">
                    <rect x="0" y="0" width="2834.646" height="2834.646" style="fill:rgb(235,235,235);fill-opacity:0;stroke:rgb(235,235,255);stroke-width:125px;"/>
                </g>
                <g transform="matrix(0.24,0,0,0.24,0,0)">
                    <rect x="0" y="0" width="2834.646" height="2834.646" style="fill:rgb(235,235,235);fill-opacity:0;stroke:rgb(235,235,255);stroke-width:125px;"/>
                </g>
                <g transform="matrix(0.24,0,0,0.24,0,0)">
                    <rect x="0" y="0" width="2834.646" height="2834.646" style="fill:rgb(235,235,235);fill-opacity:0;stroke:rgb(235,235,235);stroke-width:125px;"/>
                </g>
                <g transform="matrix(0.24,0,0,0.24,0,0)">
                    <rect x="0" y="0" width="2834.646" height="2834.646" style="fill:rgb(235,235,235);fill-opacity:0;stroke:black;stroke-width:83.33px;"/>
                </g>
            </g>
            <g transform="matrix(0.970643,0,0,0.970643,526.759499,429.899265)">
                <g id="Layer-1" serif:id="Layer 1">
                    <path d="M0,-184.912C3.09,-180.915 5.356,-176.089 6.52,-170.28C8.248,-161.663 6.585,-152.641 3.33,-144.476C-2.361,-130.203 -10.957,-118.703 -23.057,-109.339C-40.917,-95.516 -60.025,-88.601 -81.477,-83.066C-72.588,-102.806 -67.203,-124.614 -74.263,-145.747C-77.805,-156.347 -86.966,-165.904 -98.135,-166.289C-109.261,-166.673 -118.605,-158.332 -126.105,-150.105C-131.628,-144.046 -137.977,-138.644 -142.725,-131.912C-152.21,-118.466 -152.929,-97.165 -141.251,-84.652C-140.595,-83.949 -139.938,-83.254 -139.235,-82.598C-137.724,-81.19 -136.036,-79.954 -134.176,-79.047L-116.896,-70.609C-128.822,-51.928 -138.572,-31.858 -145.854,-10.925C-155.189,-40.442 -172.616,-67.023 -180.697,-96.909C-186.015,-116.578 -186.764,-137.188 -183.193,-157.232C-182.453,-161.388 -182.109,-168.063 -179.899,-171.69C-177.524,-175.587 -173.651,-175.969 -169.102,-177.498C-158.634,-181.018 -148.153,-184.502 -137.618,-187.818C-116.798,-194.373 -95.624,-200.307 -73.887,-202.293C-73.126,-202.362 -72.363,-202.427 -71.6,-202.486C-49.324,-204.218 -14.977,-204.287 0,-184.912M-97.139,-102.299C-99.523,-95.744 -103.565,-89.98 -107.624,-84.278C-107.624,-84.278 -113.594,-84.995 -113.622,-84.998C-123.751,-86.214 -134.953,-96.915 -136.323,-107.005C-136.981,-111.851 -135.523,-116.828 -132.889,-120.956C-132.784,-121.12 -132.678,-121.282 -132.569,-121.444C-125.08,-132.594 -108.139,-138.69 -98.907,-125.717C-94.185,-119.081 -94.355,-109.953 -97.139,-102.299M-225.526,-64.331C-234.581,-83.736 -236.308,-105.821 -246.82,-124.608C-251.194,-132.426 -256.292,-139.765 -261.912,-146.692C-259.74,-147.521 -257.575,-148.353 -255.418,-149.186C-251.918,-150.539 -230.626,-159.912 -211.175,-168.236C-212.733,-163.368 -214.004,-158.387 -214.915,-153.268C-219.624,-126.801 -214.024,-99.773 -204.857,-74.272C-211.55,-70.454 -218.562,-66.176 -225.526,-64.331M-342.866,-149.9C-352.172,-148.306 -361.669,-147.225 -371.116,-147.057C-378.625,-146.924 -388.655,-145.515 -395.459,-149.151C-398.571,-150.813 -400.908,-153.613 -402.948,-156.491C-405.603,-160.235 -407.967,-164.459 -408.066,-169.049C-408.295,-179.638 -397.79,-186.776 -388.501,-189.308C-380.355,-191.529 -371.664,-190.937 -363.419,-189.115C-348.609,-185.841 -334.703,-178.585 -323.525,-168.336C-319.916,-164.656 -316.347,-161.038 -312.836,-157.422C-322.643,-154.18 -332.684,-151.644 -342.866,-149.9M-165.687,-356.037C-172.362,-351.79 -184.288,-350.273 -194.9,-349.807C-200.359,-349.567 -205.471,-349.606 -209.34,-349.693C-212.827,-349.772 -216.334,-350.018 -219.712,-350.887C-229.33,-353.363 -239.107,-361.109 -244.223,-369.377C-234.117,-380.504 -215.691,-370.567 -202.109,-370.199C-194.585,-369.995 -187.011,-370.456 -179.561,-369.384C-172.818,-368.413 -163.615,-365.984 -160.906,-359.556C-162.334,-358.064 -163.955,-357.139 -165.687,-356.037M47.172,-288.539C53.486,-302.974 55.491,-318.795 55.757,-334.428C55.888,-342.168 55.584,-349.909 55.166,-357.636C54.88,-362.926 56.347,-371.444 53.194,-376.038C48.218,-383.288 34.016,-379.144 26.747,-379.947C14.279,-381.324 1.992,-384.104 -10.546,-384.893C-37.151,-386.568 -63.871,-374.483 -70.908,-346.799C-72.331,-341.2 -72.786,-335.408 -73.234,-329.648C-73.807,-322.309 -74.073,-316.889 -77.278,-310.487C-80.646,-303.763 -82.832,-296.414 -82.251,-288.824C-81.059,-273.259 -64.351,-258.211 -48.233,-264.398C-43.375,-266.263 -39.65,-270.27 -36.676,-274.538C-32.055,-281.17 -28.808,-288.755 -27.199,-296.676C-26.148,-301.852 -25.902,-307.623 -28.839,-312.013C-34.458,-320.411 -47.42,-316.939 -54.508,-323.512C-56.022,-324.916 -56.538,-327.088 -56.708,-329.144C-57.427,-337.782 -53.43,-346.035 -49.538,-353.781C-48.174,-356.496 -46.77,-359.266 -44.589,-361.381C-41.85,-364.037 -38.123,-365.422 -34.41,-366.297C-21.576,-369.322 -8.121,-367.025 4.718,-364.022C14.892,-361.642 24.963,-358.823 34.893,-355.575C35.928,-355.236 37.035,-354.839 37.647,-353.938C38.229,-353.081 38.224,-351.968 38.191,-350.932C37.874,-340.977 36.969,-331.041 35.481,-321.193C34.353,-313.729 32.87,-306.246 29.858,-299.323C18.288,-272.73 -14.834,-253.819 -40.937,-244.512C-55.662,-239.261 -70.388,-234.011 -85.111,-228.761C-94.177,-227.154 -103.292,-225.341 -112.536,-223.492L-164.876,-209.335C-158.915,-220.88 -151.94,-232.083 -144.336,-242.922C-123.593,-272.49 -111.002,-309.109 -118.868,-345.501C-124.964,-373.702 -147.955,-399.1 -177.966,-400.047C-198.259,-400.687 -225.588,-396.771 -244.792,-402.97C-247.838,-403.953 -271.576,-416.103 -271.589,-418.02C-271.474,-400.391 -272.258,-382.974 -272.6,-365.341C-273.082,-340.478 -258.39,-325.768 -236.74,-315.904C-217.481,-307.129 -195.803,-306.224 -175.155,-309.515C-172.95,-309.866 -155.731,-315.146 -142.791,-318.983C-142.434,-308.677 -142.383,-298.557 -145.794,-288.591C-151.368,-272.299 -160.368,-257.359 -169.562,-242.901C-178.069,-229.525 -187.365,-216.243 -195.429,-202.376C-201.331,-200.682 -213.859,-196.107 -223.863,-192.384C-230.683,-196.367 -241.965,-205.996 -243.495,-208.035C-252.227,-219.671 -248.02,-235.798 -240.651,-246.973C-239.573,-248.609 -238.354,-250.22 -236.683,-251.243C-234.097,-252.826 -230.857,-252.765 -227.835,-252.523C-225.96,-252.373 -224.047,-252.162 -222.35,-251.354C-217.407,-249.001 -213.791,-233.033 -217.022,-228.894C-210.998,-236.611 -204.95,-248.209 -211.64,-257.463C-215.329,-262.564 -222.371,-263.946 -228.655,-263.609C-250.834,-262.42 -270.367,-243.112 -272.597,-221.013C-274.217,-204.948 -266.906,-192.142 -258.326,-179.648C-266.778,-176.413 -275.168,-173.018 -283.455,-169.384C-284.042,-169.924 -284.627,-170.465 -285.218,-170.999C-288.031,-173.54 -290.908,-177.273 -294.04,-179.569C-307.3,-191.626 -322.369,-201.777 -339.016,-208.353C-357.72,-215.741 -378.487,-218.473 -398.198,-214.484C-414.184,-211.249 -430.265,-202.566 -436.892,-187.662C-440.236,-180.139 -440.892,-171.608 -439.781,-163.45C-438.102,-151.122 -432.161,-139.081 -422.188,-131.642C-412.867,-124.689 -400.96,-122.255 -389.386,-121.127C-356.597,-117.932 -324.169,-125.177 -292.922,-135.519C-286.94,-128.262 -281.358,-120.6 -276.362,-112.122C-273.799,-107.773 -256.646,-74.092 -246.883,-53.108L-275.917,-39.013L-303.507,-92.456C-303.507,-92.456 -320.278,-85.723 -320.278,-84.278C-320.279,-82.098 -317.775,-78.687 -316.878,-76.794C-313.906,-70.522 -310.859,-64.286 -307.821,-58.046C-300.656,-43.331 -293.084,-28.821 -286.032,-14.049C-260.105,40.262 -239.749,97.126 -217.596,153.04L-207.21,144.926C-218.212,112.991 -228.425,80.784 -239.957,49.033C-245.395,34.059 -251.193,19.242 -257.389,4.568C-258.418,2.131 -267.392,-24.406 -269.425,-24.406C-269.425,-24.406 -255.064,-31.007 -240.842,-37.545C-231.187,-12.411 -221.69,12.633 -214.092,38.531C-197.591,94.777 -178.084,150.01 -160.972,206.039C-158.216,215.062 -155.454,224.083 -152.705,233.108C-153.435,230.716 -151.363,224.663 -150.935,221.895C-150.212,217.22 -149.503,212.543 -148.76,207.871C-147.278,198.546 -145.69,189.233 -143.673,180.007C-139.89,162.712 -134.889,144.625 -125.488,129.452C-116.96,115.688 -108.432,101.924 -99.904,88.16C-97.733,84.657 -95.556,81.141 -93.882,77.376C-91.095,71.109 -89.768,64.308 -88.462,57.574C-87.492,52.572 -86.518,47.533 -86.521,42.437C-86.526,32.783 -89.85,23.452 -91.568,14.036C-92.338,9.819 -93.121,5.608 -93.963,1.401C-94.201,0.215 -94.283,-3.767 -95.176,-4.66C-95.176,-4.66 -99.55,-8.716 -99.552,-8.717C-98.36,-7.612 -98.87,-0.1 -98.753,1.482C-98.348,6.961 -97.83,12.439 -97.525,17.926C-96.887,29.42 -97.101,41.083 -99.936,52.302C-103.735,67.338 -111.997,80.667 -120.966,93.134C-129.153,104.514 -137.245,116.446 -146.213,127.208C-148.666,130.151 -151.019,133.942 -153.88,136.315C-158.995,129.671 -160.775,116.731 -163.526,108.659C-166.819,98.992 -170.187,89.351 -173.63,79.736C-188.795,37.382 -205.56,-4.278 -220.093,-46.824C-212.292,-50.902 -203.951,-55.262 -198.529,-58.096C-188.197,-33.464 -175.51,-9.733 -166.961,15.62C-162.466,28.953 -150.537,55.126 -152.299,68.78C-151.132,59.734 -150.164,50.639 -148.793,41.623C-146.557,26.911 -139.129,17.027 -131.268,4.153C-118.463,-16.817 -106.013,-38.004 -93.88,-59.372C-81.441,-57.126 -71.073,-55.918 -58.28,-58.033C-45.999,-60.064 -34.049,-64.023 -22.93,-69.61C-1.826,-80.214 15.671,-97.394 28.567,-117.023C41.156,-136.184 56.104,-165.573 50.802,-189.038C50.006,-192.561 48.711,-195.959 47.129,-199.206C39.766,-214.312 26.182,-225.767 10.117,-230.585C6.643,-231.627 3.047,-232.2 -0.546,-232.691C-0.743,-232.718 -0.94,-232.74 -1.137,-232.766C18.949,-247.845 36.907,-265.071 47.172,-288.539" style="fill:rgb(3,4,4);fill-rule:nonzero;"/>
                </g>
            </g>
        </g>
    </g>
</svg>
