<?xml version="1.0" encoding="UTF-8" standalone="no"?>
<!DOCTYPE svg PUBLIC "-//W3C//DTD SVG 1.1//EN" "http://www.w3.org/Graphics/SVG/1.1/DTD/svg11.dtd">
<svg width="400px" height="400px" version="1.1" xmlns="http://www.w3.org/2000/svg" xmlns:xlink="http://www.w3.org/1999/xlink" xml:space="preserve" xmlns:serif="http://www.serif.com/" style="fill-rule:evenodd;clip-rule:evenodd;stroke-linejoin:round;stroke-miterlimit:2;">
    <g id="Layer-1" serif:id="Layer 1" transform="matrix(5.555556,0,0,5.555556,0,0)">
        <g id="Background">
            <g transform="matrix(17.027516,9.83736,9.83736,-17.027516,23.112736,13.019855)">
                <path d="M-0.143,0.61C-0.143,0.61 -0.138,0.605 -0.133,0.556C-0.115,0.378 -0.133,-0.088 0.114,-0.342C0.59,-0.831 1.304,-0.151 0.82,0.343C0.543,0.625 -0.026,0.593 -0.088,0.6C-0.138,0.606 -0.143,0.61 -0.143,0.61Z" style="fill:rgb(35,32,31);fill-rule:nonzero;"/>
            </g>
            <g transform="matrix(17.033162,-9.827582,-9.827582,-17.033162,9.654979,35.670625)">
                <path d="M-0.143,0.61C-0.143,0.61 -0.138,0.605 -0.133,0.556C-0.115,0.378 -0.133,-0.088 0.114,-0.342C0.59,-0.831 1.304,-0.151 0.82,0.343C0.543,0.625 -0.026,0.593 -0.088,0.6C-0.138,0.606 -0.143,0.61 -0.143,0.61Z" style="fill:rgb(35,32,31);fill-rule:nonzero;"/>
            </g>
            <g transform="matrix(0.005646,-19.664942,-19.664942,-0.005646,22.542242,58.65077)">
                <path d="M-0.143,0.61C-0.143,0.61 -0.138,0.605 -0.133,0.556C-0.115,0.378 -0.133,-0.088 0.114,-0.342C0.59,-0.831 1.304,-0.151 0.82,0.343C0.543,0.625 -0.026,0.593 -0.088,0.6C-0.138,0.606 -0.143,0.61 -0.143,0.61Z" style="fill:rgb(35,32,31);fill-rule:nonzero;"/>
            </g>
            <g transform="matrix(-17.027516,-9.83736,-9.83736,17.027516,48.887264,58.980145)">
                <path d="M-0.143,0.61C-0.143,0.61 -0.138,0.605 -0.133,0.556C-0.115,0.378 -0.133,-0.088 0.114,-0.342C0.59,-0.831 1.304,-0.151 0.82,0.343C0.543,0.625 -0.026,0.593 -0.088,0.6C-0.138,0.606 -0.143,0.61 -0.143,0.61Z" style="fill:rgb(35,32,31);fill-rule:nonzero;"/>
            </g>
            <g transform="matrix(-17.033162,9.827582,9.827582,17.033162,62.345021,36.329375)">
                <path d="M-0.143,0.61C-0.143,0.61 -0.138,0.605 -0.133,0.556C-0.115,0.378 -0.133,-0.088 0.114,-0.342C0.59,-0.831 1.304,-0.151 0.82,0.343C0.543,0.625 -0.026,0.593 -0.088,0.6C-0.138,0.606 -0.143,0.61 -0.143,0.61Z" style="fill:rgb(35,32,31);fill-rule:nonzero;"/>
            </g>
            <g transform="matrix(-0.005646,19.664942,19.664942,0.005646,49.457758,13.34923)">
                <path d="M-0.143,0.61C-0.143,0.61 -0.138,0.605 -0.133,0.556C-0.115,0.378 -0.133,-0.088 0.114,-0.342C0.59,-0.831 1.304,-0.151 0.82,0.343C0.543,0.625 -0.026,0.593 -0.088,0.6C-0.138,0.606 -0.143,0.61 -0.143,0.61Z" style="fill:rgb(35,32,31);fill-rule:nonzero;"/>
            </g>
            <g transform="matrix(19.664942,0.005646,0.005646,-19.664942,13.34923,22.542242)">
                <path d="M-0.143,0.61C-0.143,0.61 -0.138,0.605 -0.133,0.556C-0.115,0.378 -0.133,-0.088 0.114,-0.342C0.59,-0.831 1.304,-0.151 0.82,0.343C0.543,0.625 -0.026,0.593 -0.088,0.6C-0.138,0.606 -0.143,0.61 -0.143,0.61Z" style="fill:rgb(35,32,31);fill-rule:nonzero;"/>
            </g>
            <g transform="matrix(9.83736,-17.027516,-17.027516,-9.83736,13.019855,48.887264)">
                <path d="M-0.143,0.61C-0.143,0.61 -0.138,0.605 -0.133,0.556C-0.115,0.378 -0.133,-0.088 0.114,-0.342C0.59,-0.831 1.304,-0.151 0.82,0.343C0.543,0.625 -0.026,0.593 -0.088,0.6C-0.138,0.606 -0.143,0.61 -0.143,0.61Z" style="fill:rgb(35,32,31);fill-rule:nonzero;"/>
            </g>
            <g transform="matrix(-9.827582,-17.033162,-17.033162,9.827582,35.670625,62.345021)">
                <path d="M-0.143,0.61C-0.143,0.61 -0.138,0.605 -0.133,0.556C-0.115,0.378 -0.133,-0.088 0.114,-0.342C0.59,-0.831 1.304,-0.151 0.82,0.343C0.543,0.625 -0.026,0.593 -0.088,0.6C-0.138,0.606 -0.143,0.61 -0.143,0.61Z" style="fill:rgb(35,32,31);fill-rule:nonzero;"/>
            </g>
            <g transform="matrix(-19.664942,-0.005646,-0.005646,19.664942,58.65077,49.457758)">
                <path d="M-0.143,0.61C-0.143,0.61 -0.138,0.605 -0.133,0.556C-0.115,0.378 -0.133,-0.088 0.114,-0.342C0.59,-0.831 1.304,-0.151 0.82,0.343C0.543,0.625 -0.026,0.593 -0.088,0.6C-0.138,0.606 -0.143,0.61 -0.143,0.61Z" style="fill:rgb(35,32,31);fill-rule:nonzero;"/>
            </g>
            <g transform="matrix(-9.83736,17.027516,17.027516,9.83736,58.980145,23.112736)">
                <path d="M-0.143,0.61C-0.143,0.61 -0.138,0.605 -0.133,0.556C-0.115,0.378 -0.133,-0.088 0.114,-0.342C0.59,-0.831 1.304,-0.151 0.82,0.343C0.543,0.625 -0.026,0.593 -0.088,0.6C-0.138,0.606 -0.143,0.61 -0.143,0.61Z" style="fill:rgb(35,32,31);fill-rule:nonzero;"/>
            </g>
            <g transform="matrix(9.827582,17.033162,17.033162,-9.827582,36.329375,9.654979)">
                <path d="M-0.143,0.61C-0.143,0.61 -0.138,0.605 -0.133,0.556C-0.115,0.378 -0.133,-0.088 0.114,-0.342C0.59,-0.831 1.304,-0.151 0.82,0.343C0.543,0.625 -0.026,0.593 -0.088,0.6C-0.138,0.606 -0.143,0.61 -0.143,0.61Z" style="fill:rgb(35,32,31);fill-rule:nonzero;"/>
            </g>
        </g>
        <g id="Back-Petals" serif:id="Back Petals">
            <g id="Back-Petal-BG" serif:id="Back Petal BG">
                <g id="_12BG" serif:id="12BG">
                    <g transform="matrix(18.993414,5.095115,5.095115,-18.993414,17.60416,17.138354)">
                        <path d="M-0.143,0.61C-0.143,0.61 -0.138,0.605 -0.133,0.556C-0.115,0.378 -0.133,-0.088 0.114,-0.342C0.59,-0.831 1.304,-0.151 0.82,0.343C0.543,0.625 -0.026,0.593 -0.088,0.6C-0.138,0.606 -0.143,0.61 -0.143,0.61Z" style="fill:rgb(35,32,31);fill-rule:nonzero;"/>
                    </g>
                    <g transform="matrix(15.824779,4.245106,4.245106,-15.824779,18.758023,16.965148)">
                        <path d="M-0.117,0.584C-0.117,0.584 -0.13,-0.15 0.185,-0.404C0.682,-0.805 1.299,-0.216 0.867,0.288C0.598,0.602 -0.117,0.584 -0.117,0.584Z" style="fill:white;fill-rule:nonzero;"/>
                    </g>
                </g>
                <g id="_10BG" serif:id="10BG">
                    <g transform="matrix(13.909206,-13.901221,-13.901221,-13.909206,10.467415,42.500442)">
                        <path d="M-0.143,0.61C-0.143,0.61 -0.138,0.605 -0.133,0.556C-0.115,0.378 -0.133,-0.088 0.114,-0.342C0.59,-0.831 1.304,-0.151 0.82,0.343C0.543,0.625 -0.026,0.593 -0.088,0.6C-0.138,0.606 -0.143,0.61 -0.143,0.61Z" style="fill:rgb(35,32,31);fill-rule:nonzero;"/>
                    </g>
                    <g transform="matrix(11.588759,-11.582107,-11.582107,-11.588759,10.894346,41.414565)">
                        <path d="M-0.117,0.584C-0.117,0.584 -0.13,-0.15 0.185,-0.404C0.682,-0.805 1.299,-0.216 0.867,0.288C0.598,0.602 -0.117,0.584 -0.117,0.584Z" style="fill:white;fill-rule:nonzero;"/>
                    </g>
                </g>
                <g id="_8BG" serif:id="8BG">
                    <g transform="matrix(-5.084208,-18.996336,-18.996336,5.084208,28.863255,61.362088)">
                        <path d="M-0.143,0.61C-0.143,0.61 -0.138,0.605 -0.133,0.556C-0.115,0.378 -0.133,-0.088 0.114,-0.342C0.59,-0.831 1.304,-0.151 0.82,0.343C0.543,0.625 -0.026,0.593 -0.088,0.6C-0.138,0.606 -0.143,0.61 -0.143,0.61Z" style="fill:rgb(35,32,31);fill-rule:nonzero;"/>
                    </g>
                    <g transform="matrix(-4.236019,-15.827213,-15.827213,4.236019,28.136324,60.449416)">
                        <path d="M-0.117,0.584C-0.117,0.584 -0.13,-0.15 0.185,-0.404C0.682,-0.805 1.299,-0.216 0.867,0.288C0.598,0.602 -0.117,0.584 -0.117,0.584Z" style="fill:white;fill-rule:nonzero;"/>
                    </g>
                </g>
                <g id="_6BG" serif:id="6BG">
                    <g transform="matrix(-18.993414,-5.095115,-5.095115,18.993414,54.39584,54.861646)">
                        <path d="M-0.143,0.61C-0.143,0.61 -0.138,0.605 -0.133,0.556C-0.115,0.378 -0.133,-0.088 0.114,-0.342C0.59,-0.831 1.304,-0.151 0.82,0.343C0.543,0.625 -0.026,0.593 -0.088,0.6C-0.138,0.606 -0.143,0.61 -0.143,0.61Z" style="fill:rgb(35,32,31);fill-rule:nonzero;"/>
                    </g>
                    <g transform="matrix(-15.824779,-4.245106,-4.245106,15.824779,53.241977,55.034852)">
                        <path d="M-0.117,0.584C-0.117,0.584 -0.13,-0.15 0.185,-0.404C0.682,-0.805 1.299,-0.216 0.867,0.288C0.598,0.602 -0.117,0.584 -0.117,0.584Z" style="fill:white;fill-rule:nonzero;"/>
                    </g>
                </g>
                <g id="_4BG" serif:id="4BG">
                    <g transform="matrix(-13.909206,13.901221,13.901221,13.909206,61.532585,29.499558)">
                        <path d="M-0.143,0.61C-0.143,0.61 -0.138,0.605 -0.133,0.556C-0.115,0.378 -0.133,-0.088 0.114,-0.342C0.59,-0.831 1.304,-0.151 0.82,0.343C0.543,0.625 -0.026,0.593 -0.088,0.6C-0.138,0.606 -0.143,0.61 -0.143,0.61Z" style="fill:rgb(35,32,31);fill-rule:nonzero;"/>
                    </g>
                    <g transform="matrix(-11.588759,11.582107,11.582107,11.588759,61.105654,30.585435)">
                        <path d="M-0.117,0.584C-0.117,0.584 -0.13,-0.15 0.185,-0.404C0.682,-0.805 1.299,-0.216 0.867,0.288C0.598,0.602 -0.117,0.584 -0.117,0.584Z" style="fill:white;fill-rule:nonzero;"/>
                    </g>
                </g>
                <g id="_2BG" serif:id="2BG">
                    <g transform="matrix(5.084208,18.996336,18.996336,-5.084208,43.136745,10.637912)">
                        <path d="M-0.143,0.61C-0.143,0.61 -0.138,0.605 -0.133,0.556C-0.115,0.378 -0.133,-0.088 0.114,-0.342C0.59,-0.831 1.304,-0.151 0.82,0.343C0.543,0.625 -0.026,0.593 -0.088,0.6C-0.138,0.606 -0.143,0.61 -0.143,0.61Z" style="fill:rgb(35,32,31);fill-rule:nonzero;"/>
                    </g>
                    <g transform="matrix(4.236019,15.827213,15.827213,-4.236019,43.863676,11.550584)">
                        <path d="M-0.117,0.584C-0.117,0.584 -0.13,-0.15 0.185,-0.404C0.682,-0.805 1.299,-0.216 0.867,0.288C0.598,0.602 -0.117,0.584 -0.117,0.584Z" style="fill:white;fill-rule:nonzero;"/>
                    </g>
                </g>
            </g>
            <g id="_12" serif:id="12" transform="matrix(15.824779,4.245106,4.245106,-15.824779,18.758023,16.965148)">
                <path d="M-0.117,0.584C-0.117,0.584 -0.13,-0.15 0.185,-0.404C0.682,-0.805 1.299,-0.216 0.867,0.288C0.598,0.602 -0.117,0.584 -0.117,0.584Z" style="fill:url(#_Radial1);fill-rule:nonzero;"/>
            </g>
            <g id="_10" serif:id="10" transform="matrix(11.588759,-11.582107,-11.582107,-11.588759,10.894346,41.414565)">
                <path d="M-0.117,0.584C-0.117,0.584 -0.13,-0.15 0.185,-0.404C0.682,-0.805 1.299,-0.216 0.867,0.288C0.598,0.602 -0.117,0.584 -0.117,0.584Z" style="fill:url(#_Radial2);fill-rule:nonzero;"/>
            </g>
            <g id="_8" serif:id="8" transform="matrix(-4.236019,-15.827213,-15.827213,4.236019,28.136324,60.449416)">
                <path d="M-0.117,0.584C-0.117,0.584 -0.13,-0.15 0.185,-0.404C0.682,-0.805 1.299,-0.216 0.867,0.288C0.598,0.602 -0.117,0.584 -0.117,0.584Z" style="fill:url(#_Radial3);fill-rule:nonzero;"/>
            </g>
            <g id="_6" serif:id="6" transform="matrix(-15.824779,-4.245106,-4.245106,15.824779,53.241977,55.034852)">
                <path d="M-0.117,0.584C-0.117,0.584 -0.13,-0.15 0.185,-0.404C0.682,-0.805 1.299,-0.216 0.867,0.288C0.598,0.602 -0.117,0.584 -0.117,0.584Z" style="fill:url(#_Radial4);fill-rule:nonzero;"/>
            </g>
            <g id="_4" serif:id="4" transform="matrix(-11.588759,11.582107,11.582107,11.588759,61.105654,30.585435)">
                <path d="M-0.117,0.584C-0.117,0.584 -0.13,-0.15 0.185,-0.404C0.682,-0.805 1.299,-0.216 0.867,0.288C0.598,0.602 -0.117,0.584 -0.117,0.584Z" style="fill:url(#_Radial5);fill-rule:nonzero;"/>
            </g>
            <g id="_2" serif:id="2" transform="matrix(4.236019,15.827213,15.827213,-4.236019,43.863676,11.550584)">
                <path d="M-0.117,0.584C-0.117,0.584 -0.13,-0.15 0.185,-0.404C0.682,-0.805 1.299,-0.216 0.867,0.288C0.598,0.602 -0.117,0.584 -0.117,0.584Z" style="fill:url(#_Radial6);fill-rule:nonzero;"/>
            </g>
            <g>
                <g transform="matrix(-4.809476,2.774911,2.774911,4.809476,30.659528,20.780206)">
                    <path d="M0.537,-0.321L0.015,0.283L1.06,0.285L0.537,-0.321Z" style="fill:rgb(35,32,31);fill-rule:nonzero;"/>
                </g>
                <g transform="matrix(-0.001594,5.552584,5.552584,0.001594,20.149036,33.015087)">
                    <path d="M0.537,-0.321L0.015,0.283L1.06,0.285L0.537,-0.321Z" style="fill:rgb(35,32,31);fill-rule:nonzero;"/>
                </g>
                <g transform="matrix(4.807882,2.777673,2.777673,-4.807882,25.489507,48.234881)">
                    <path d="M0.537,-0.321L0.015,0.283L1.06,0.285L0.537,-0.321Z" style="fill:rgb(35,32,31);fill-rule:nonzero;"/>
                </g>
                <g transform="matrix(4.809476,-2.774911,-2.774911,-4.809476,41.340472,51.219794)">
                    <path d="M0.537,-0.321L0.015,0.283L1.06,0.285L0.537,-0.321Z" style="fill:rgb(35,32,31);fill-rule:nonzero;"/>
                </g>
                <g transform="matrix(0.001594,-5.552584,-5.552584,-0.001594,51.850964,38.984913)">
                    <path d="M0.537,-0.321L0.015,0.283L1.06,0.285L0.537,-0.321Z" style="fill:rgb(35,32,31);fill-rule:nonzero;"/>
                </g>
                <g transform="matrix(-4.807882,-2.777673,-2.777673,4.807882,46.510493,23.765119)">
                    <path d="M0.537,-0.321L0.015,0.283L1.06,0.285L0.537,-0.321Z" style="fill:rgb(35,32,31);fill-rule:nonzero;"/>
                </g>
            </g>
        </g>
        <g id="Front-Petals" serif:id="Front Petals">
            <g id="Front-Petal-BG" serif:id="Front Petal BG">
                <g id="_11BG" serif:id="11BG">
                    <g transform="matrix(18.996336,-5.084208,-5.084208,-18.996336,10.637912,28.863255)">
                        <path d="M-0.143,0.61C-0.143,0.61 -0.138,0.605 -0.133,0.556C-0.115,0.378 -0.133,-0.088 0.114,-0.342C0.59,-0.831 1.304,-0.151 0.82,0.343C0.543,0.625 -0.026,0.593 -0.088,0.6C-0.138,0.606 -0.143,0.61 -0.143,0.61Z" style="fill:rgb(35,32,31);fill-rule:nonzero;"/>
                    </g>
                    <g transform="matrix(15.827213,-4.236019,-4.236019,-15.827213,11.550584,28.136324)">
                        <path d="M-0.117,0.584C-0.117,0.584 -0.13,-0.15 0.185,-0.404C0.682,-0.805 1.299,-0.216 0.867,0.288C0.598,0.602 -0.117,0.584 -0.117,0.584Z" style="fill:white;fill-rule:nonzero;"/>
                    </g>
                </g>
                <g id="_9BG" serif:id="9BG">
                    <g transform="matrix(5.095115,-18.993414,-18.993414,-5.095115,17.138354,54.39584)">
                        <path d="M-0.143,0.61C-0.143,0.61 -0.138,0.605 -0.133,0.556C-0.115,0.378 -0.133,-0.088 0.114,-0.342C0.59,-0.831 1.304,-0.151 0.82,0.343C0.543,0.625 -0.026,0.593 -0.088,0.6C-0.138,0.606 -0.143,0.61 -0.143,0.61Z" style="fill:rgb(35,32,31);fill-rule:nonzero;"/>
                    </g>
                    <g transform="matrix(4.245106,-15.824779,-15.824779,-4.245106,16.965148,53.241977)">
                        <path d="M-0.117,0.584C-0.117,0.584 -0.13,-0.15 0.185,-0.404C0.682,-0.805 1.299,-0.216 0.867,0.288C0.598,0.602 -0.117,0.584 -0.117,0.584Z" style="fill:white;fill-rule:nonzero;"/>
                    </g>
                </g>
                <g id="_7BG" serif:id="7BG">
                    <g transform="matrix(-13.901221,-13.909206,-13.909206,13.901221,42.500442,61.532585)">
                        <path d="M-0.143,0.61C-0.143,0.61 -0.138,0.605 -0.133,0.556C-0.115,0.378 -0.133,-0.088 0.114,-0.342C0.59,-0.831 1.304,-0.151 0.82,0.343C0.543,0.625 -0.026,0.593 -0.088,0.6C-0.138,0.606 -0.143,0.61 -0.143,0.61Z" style="fill:rgb(35,32,31);fill-rule:nonzero;"/>
                    </g>
                    <g transform="matrix(-11.582107,-11.588759,-11.588759,11.582107,41.414565,61.105654)">
                        <path d="M-0.117,0.584C-0.117,0.584 -0.13,-0.15 0.185,-0.404C0.682,-0.805 1.299,-0.216 0.867,0.288C0.598,0.602 -0.117,0.584 -0.117,0.584Z" style="fill:white;fill-rule:nonzero;"/>
                    </g>
                </g>
                <g id="_5BG" serif:id="5BG">
                    <g transform="matrix(-18.996336,5.084208,5.084208,18.996336,61.362088,43.136745)">
                        <path d="M-0.143,0.61C-0.143,0.61 -0.138,0.605 -0.133,0.556C-0.115,0.378 -0.133,-0.088 0.114,-0.342C0.59,-0.831 1.304,-0.151 0.82,0.343C0.543,0.625 -0.026,0.593 -0.088,0.6C-0.138,0.606 -0.143,0.61 -0.143,0.61Z" style="fill:rgb(35,32,31);fill-rule:nonzero;"/>
                    </g>
                    <g transform="matrix(-15.827213,4.236019,4.236019,15.827213,60.449416,43.863676)">
                        <path d="M-0.117,0.584C-0.117,0.584 -0.13,-0.15 0.185,-0.404C0.682,-0.805 1.299,-0.216 0.867,0.288C0.598,0.602 -0.117,0.584 -0.117,0.584Z" style="fill:white;fill-rule:nonzero;"/>
                    </g>
                </g>
                <g id="_3BG" serif:id="3BG">
                    <g transform="matrix(-5.095115,18.993414,18.993414,5.095115,54.861646,17.60416)">
                        <path d="M-0.143,0.61C-0.143,0.61 -0.138,0.605 -0.133,0.556C-0.115,0.378 -0.133,-0.088 0.114,-0.342C0.59,-0.831 1.304,-0.151 0.82,0.343C0.543,0.625 -0.026,0.593 -0.088,0.6C-0.138,0.606 -0.143,0.61 -0.143,0.61Z" style="fill:rgb(35,32,31);fill-rule:nonzero;"/>
                    </g>
                    <g transform="matrix(-4.245106,15.824779,15.824779,4.245106,55.034852,18.758023)">
                        <path d="M-0.117,0.584C-0.117,0.584 -0.13,-0.15 0.185,-0.404C0.682,-0.805 1.299,-0.216 0.867,0.288C0.598,0.602 -0.117,0.584 -0.117,0.584Z" style="fill:white;fill-rule:nonzero;"/>
                    </g>
                </g>
                <g id="_1BG" serif:id="1BG">
                    <g transform="matrix(13.901221,13.909206,13.909206,-13.901221,29.499558,10.467415)">
                        <path d="M-0.143,0.61C-0.143,0.61 -0.138,0.605 -0.133,0.556C-0.115,0.378 -0.133,-0.088 0.114,-0.342C0.59,-0.831 1.304,-0.151 0.82,0.343C0.543,0.625 -0.026,0.593 -0.088,0.6C-0.138,0.606 -0.143,0.61 -0.143,0.61Z" style="fill:rgb(35,32,31);fill-rule:nonzero;"/>
                    </g>
                    <g transform="matrix(11.582107,11.588759,11.588759,-11.582107,30.585435,10.894346)">
                        <path d="M-0.117,0.584C-0.117,0.584 -0.13,-0.15 0.185,-0.404C0.682,-0.805 1.299,-0.216 0.867,0.288C0.598,0.602 -0.117,0.584 -0.117,0.584Z" style="fill:white;fill-rule:nonzero;"/>
                    </g>
                </g>
            </g>
            <g id="_11" serif:id="11" transform="matrix(15.827213,-4.236019,-4.236019,-15.827213,11.550584,28.136324)">
                <path d="M-0.117,0.584C-0.117,0.584 -0.13,-0.15 0.185,-0.404C0.682,-0.805 1.299,-0.216 0.867,0.288C0.598,0.602 -0.117,0.584 -0.117,0.584Z" style="fill:url(#_Radial7);fill-rule:nonzero;"/>
            </g>
            <g id="_9" serif:id="9" transform="matrix(4.245106,-15.824779,-15.824779,-4.245106,16.965148,53.241977)">
                <path d="M-0.117,0.584C-0.117,0.584 -0.13,-0.15 0.185,-0.404C0.682,-0.805 1.299,-0.216 0.867,0.288C0.598,0.602 -0.117,0.584 -0.117,0.584Z" style="fill:url(#_Radial8);fill-rule:nonzero;"/>
            </g>
            <g id="_7" serif:id="7" transform="matrix(-11.582107,-11.588759,-11.588759,11.582107,41.414565,61.105654)">
                <path d="M-0.117,0.584C-0.117,0.584 -0.13,-0.15 0.185,-0.404C0.682,-0.805 1.299,-0.216 0.867,0.288C0.598,0.602 -0.117,0.584 -0.117,0.584Z" style="fill:url(#_Radial9);fill-rule:nonzero;"/>
            </g>
            <g id="_5" serif:id="5" transform="matrix(-15.827213,4.236019,4.236019,15.827213,60.449416,43.863676)">
                <path d="M-0.117,0.584C-0.117,0.584 -0.13,-0.15 0.185,-0.404C0.682,-0.805 1.299,-0.216 0.867,0.288C0.598,0.602 -0.117,0.584 -0.117,0.584Z" style="fill:url(#_Radial10);fill-rule:nonzero;"/>
            </g>
            <g id="_3" serif:id="3" transform="matrix(-4.245106,15.824779,15.824779,4.245106,55.034852,18.758023)">
                <path d="M-0.117,0.584C-0.117,0.584 -0.13,-0.15 0.185,-0.404C0.682,-0.805 1.299,-0.216 0.867,0.288C0.598,0.602 -0.117,0.584 -0.117,0.584Z" style="fill:url(#_Radial11);fill-rule:nonzero;"/>
            </g>
            <g id="_1" serif:id="1" transform="matrix(11.582107,11.588759,11.588759,-11.582107,30.585435,10.894346)">
                <path d="M-0.117,0.584C-0.117,0.584 -0.13,-0.15 0.185,-0.404C0.682,-0.805 1.299,-0.216 0.867,0.288C0.598,0.602 -0.117,0.584 -0.117,0.584Z" style="fill:url(#_Radial12);fill-rule:nonzero;"/>
            </g>
            <g>
                <g transform="matrix(-2.777673,4.807882,4.807882,2.777673,23.765119,25.489507)">
                    <path d="M0.537,-0.321L0.015,0.283L1.06,0.285L0.537,-0.321Z" style="fill:rgb(35,32,31);fill-rule:nonzero;"/>
                </g>
                <g transform="matrix(2.774911,4.809476,4.809476,-2.774911,20.780206,41.340472)">
                    <path d="M0.537,-0.321L0.015,0.283L1.06,0.285L0.537,-0.321Z" style="fill:rgb(35,32,31);fill-rule:nonzero;"/>
                </g>
                <g transform="matrix(5.552584,0.001594,0.001594,-5.552584,33.015087,51.850964)">
                    <path d="M0.537,-0.321L0.015,0.283L1.06,0.285L0.537,-0.321Z" style="fill:rgb(35,32,31);fill-rule:nonzero;"/>
                </g>
                <g transform="matrix(2.777673,-4.807882,-4.807882,-2.777673,48.234881,46.510493)">
                    <path d="M0.537,-0.321L0.015,0.283L1.06,0.285L0.537,-0.321Z" style="fill:rgb(35,32,31);fill-rule:nonzero;"/>
                </g>
                <g transform="matrix(-2.774911,-4.809476,-4.809476,2.774911,51.219794,30.659528)">
                    <path d="M0.537,-0.321L0.015,0.283L1.06,0.285L0.537,-0.321Z" style="fill:rgb(35,32,31);fill-rule:nonzero;"/>
                </g>
                <g transform="matrix(-5.552584,-0.001594,-0.001594,5.552584,38.984913,20.149036)">
                    <path d="M0.537,-0.321L0.015,0.283L1.06,0.285L0.537,-0.321Z" style="fill:rgb(35,32,31);fill-rule:nonzero;"/>
                </g>
            </g>
        </g>
        <g id="Center">
            <g transform="matrix(-1.501736,0,0,1.501736,36,48.853358)">
                <path d="M0,-17.118C4.719,-17.118 8.559,-13.278 8.559,-8.558C8.559,-3.84 4.719,0 0,0C-4.719,0 -8.559,-3.84 -8.559,-8.558C-8.559,-13.278 -4.719,-17.118 0,-17.118" style="fill:white;fill-rule:nonzero;"/>
            </g>
            <g transform="matrix(1.501736,0,0,1.501736,36,50.573597)">
                <path d="M0,-19.409C-5.351,-19.409 -9.705,-15.055 -9.705,-9.704C-9.705,-4.354 -5.351,0 0,0C5.351,0 9.705,-4.354 9.705,-9.704C9.705,-15.055 5.351,-19.409 0,-19.409M0,-1.146C-4.719,-1.146 -8.559,-4.985 -8.559,-9.704C-8.559,-14.424 -4.719,-18.263 0,-18.263C4.719,-18.263 8.559,-14.424 8.559,-9.704C8.559,-4.985 4.719,-1.146 0,-1.146" style="fill:rgb(35,31,32);fill-rule:nonzero;"/>
            </g>
            <g transform="matrix(0,-1.501736,-1.501736,0,35.9997,24.588609)">
                <path d="M-1.259,-1.259C-1.955,-1.259 -2.519,-0.696 -2.519,0.001C-2.519,0.697 -1.955,1.259 -1.259,1.259C-0.563,1.259 0.001,0.697 0.001,0.001C0.001,-0.696 -0.563,-1.259 -1.259,-1.259" style="fill:rgb(35,31,32);fill-rule:nonzero;"/>
            </g>
            <g transform="matrix(0,-1.501736,-1.501736,0,36.000451,42.976765)">
                <path d="M-1.26,-1.259C-0.564,-1.259 0.001,-0.696 0.001,0.001C0.001,0.697 -0.564,1.26 -1.26,1.26C-1.955,1.26 -2.52,0.697 -2.52,0.001C-2.52,-0.696 -1.955,-1.259 -1.26,-1.259" style="fill:rgb(35,31,32);fill-rule:nonzero;"/>
            </g>
            <g transform="matrix(-1.501736,0,0,1.501736,26.483649,37.529668)">
                <path d="M0,-2.52C-0.695,-2.52 -1.26,-1.957 -1.26,-1.26C-1.26,-0.564 -0.695,0 0,0C0.696,0 1.26,-0.564 1.26,-1.26C1.26,-1.957 0.696,-2.52 0,-2.52" style="fill:rgb(35,31,32);fill-rule:nonzero;"/>
            </g>
            <g transform="matrix(-1.501736,0,0,1.501736,45.5156,37.817101)">
                <path d="M0,-2.519C0.696,-2.519 1.26,-1.956 1.26,-1.259C1.26,-0.563 0.696,0 0,0C-0.696,0 -1.26,-0.563 -1.26,-1.259C-1.26,-1.956 -0.696,-2.519 0,-2.519" style="fill:rgb(35,31,32);fill-rule:nonzero;"/>
            </g>
            <g transform="matrix(-1.061888,-1.061888,-1.061888,1.061888,28.001518,29.52991)">
                <path d="M-0.892,-2.149C-1.588,-2.149 -2.151,-1.586 -2.151,-0.89C-2.151,-0.194 -1.588,0.369 -0.892,0.369C-0.195,0.37 0.368,-0.193 0.368,-0.891C0.368,-1.587 -0.195,-2.15 -0.892,-2.149" style="fill:rgb(35,31,32);fill-rule:nonzero;"/>
            </g>
            <g transform="matrix(-1.061888,-1.061888,-1.061888,1.061888,40.610002,42.540591)">
                <path d="M-0.891,-2.152C-0.196,-2.151 0.368,-1.588 0.369,-0.892C0.369,-0.196 -0.194,0.368 -0.891,0.368C-1.587,0.368 -2.151,-0.196 -2.151,-0.892C-2.15,-1.588 -1.586,-2.152 -0.891,-2.152" style="fill:rgb(35,31,32);fill-rule:nonzero;"/>
            </g>
            <g transform="matrix(-1.061888,1.061888,1.061888,1.061888,31.623727,42.975564)">
                <path d="M0.891,-2.15C0.195,-2.151 -0.369,-1.586 -0.369,-0.891C-0.369,-0.195 0.195,0.369 0.891,0.369C1.586,0.369 2.151,-0.195 2.15,-0.891C2.151,-1.586 1.586,-2.15 0.891,-2.15" style="fill:rgb(35,31,32);fill-rule:nonzero;"/>
            </g>
            <g transform="matrix(-1.299048,0.753448,0.753448,1.299048,34.207434,37.882262)">
                <path d="M0.681,-2.533C-0.069,-2.533 -0.677,-1.926 -0.677,-1.174C-0.677,-0.424 -0.07,0.183 0.681,0.183C1.432,0.182 2.04,-0.426 2.039,-1.176C2.04,-1.926 1.431,-2.533 0.681,-2.533" style="fill:rgb(35,31,32);fill-rule:nonzero;"/>
            </g>
            <g transform="matrix(-1.06159,1.062186,1.062186,1.06159,44.395621,29.529309)">
                <path d="M0.891,-2.15C1.587,-2.15 2.151,-1.587 2.151,-0.891C2.152,-0.195 1.588,0.369 0.891,0.369C0.195,0.369 -0.369,-0.194 -0.369,-0.89C-0.368,-1.586 0.194,-2.151 0.891,-2.15" style="fill:rgb(35,31,32);fill-rule:nonzero;"/>
            </g>
            <g transform="matrix(-1.299048,0.753448,0.753448,1.299048,40.521259,35.784986)">
                <path d="M0.681,-2.534C1.432,-2.534 2.039,-1.927 2.04,-1.176C2.04,-0.424 1.433,0.183 0.681,0.182C-0.068,0.184 -0.676,-0.424 -0.677,-1.175C-0.677,-1.927 -0.069,-2.535 0.681,-2.534" style="fill:rgb(35,31,32);fill-rule:nonzero;"/>
            </g>
        </g>
    </g>
    <defs>
        <radialGradient id="_Radial1" cx="0" cy="0" r="1" gradientUnits="userSpaceOnUse" gradientTransform="matrix(-0.841811,0.841811,1.044702,1.044702,0.762545,-0.294881)"><stop offset="0" style="stop-color:rgb(0,232,42);stop-opacity:1"/><stop offset="0.27" style="stop-color:rgb(0,155,86);stop-opacity:1"/><stop offset="0.64" style="stop-color:rgb(0,124,68);stop-opacity:1"/><stop offset="1" style="stop-color:rgb(0,93,54);stop-opacity:1"/></radialGradient>
        <radialGradient id="_Radial2" cx="0" cy="0" r="1" gradientUnits="userSpaceOnUse" gradientTransform="matrix(-0.841811,0.841811,1.044702,1.044702,0.762545,-0.294881)"><stop offset="0" style="stop-color:rgb(0,232,42);stop-opacity:1"/><stop offset="0.27" style="stop-color:rgb(0,155,86);stop-opacity:1"/><stop offset="0.64" style="stop-color:rgb(0,124,68);stop-opacity:1"/><stop offset="1" style="stop-color:rgb(0,93,54);stop-opacity:1"/></radialGradient>
        <radialGradient id="_Radial3" cx="0" cy="0" r="1" gradientUnits="userSpaceOnUse" gradientTransform="matrix(-0.841811,0.841811,1.044702,1.044702,0.762545,-0.294881)"><stop offset="0" style="stop-color:rgb(0,232,42);stop-opacity:1"/><stop offset="0.27" style="stop-color:rgb(0,155,86);stop-opacity:1"/><stop offset="0.64" style="stop-color:rgb(0,124,68);stop-opacity:1"/><stop offset="1" style="stop-color:rgb(0,93,54);stop-opacity:1"/></radialGradient>
        <radialGradient id="_Radial4" cx="0" cy="0" r="1" gradientUnits="userSpaceOnUse" gradientTransform="matrix(-0.841811,0.841811,1.044702,1.044702,0.762545,-0.294881)"><stop offset="0" style="stop-color:rgb(0,232,42);stop-opacity:1"/><stop offset="0.27" style="stop-color:rgb(0,155,86);stop-opacity:1"/><stop offset="0.64" style="stop-color:rgb(0,124,68);stop-opacity:1"/><stop offset="1" style="stop-color:rgb(0,93,54);stop-opacity:1"/></radialGradient>
        <radialGradient id="_Radial5" cx="0" cy="0" r="1" gradientUnits="userSpaceOnUse" gradientTransform="matrix(-0.841811,0.841811,1.044702,1.044702,0.762545,-0.294881)"><stop offset="0" style="stop-color:rgb(0,232,42);stop-opacity:1"/><stop offset="0.27" style="stop-color:rgb(0,155,86);stop-opacity:1"/><stop offset="0.64" style="stop-color:rgb(0,124,68);stop-opacity:1"/><stop offset="1" style="stop-color:rgb(0,93,54);stop-opacity:1"/></radialGradient>
        <radialGradient id="_Radial6" cx="0" cy="0" r="1" gradientUnits="userSpaceOnUse" gradientTransform="matrix(-0.841811,0.841811,1.044702,1.044702,0.762545,-0.294881)"><stop offset="0" style="stop-color:rgb(0,232,42);stop-opacity:1"/><stop offset="0.27" style="stop-color:rgb(0,155,86);stop-opacity:1"/><stop offset="0.64" style="stop-color:rgb(0,124,68);stop-opacity:1"/><stop offset="1" style="stop-color:rgb(0,93,54);stop-opacity:1"/></radialGradient>
        <radialGradient id="_Radial7" cx="0" cy="0" r="1" gradientUnits="userSpaceOnUse" gradientTransform="matrix(-0.841811,0.841811,1.044702,1.044702,0.762545,-0.294881)"><stop offset="0" style="stop-color:rgb(0,232,42);stop-opacity:1"/><stop offset="0.27" style="stop-color:rgb(0,155,86);stop-opacity:1"/><stop offset="0.64" style="stop-color:rgb(0,124,68);stop-opacity:1"/><stop offset="1" style="stop-color:rgb(0,93,54);stop-opacity:1"/></radialGradient>
        <radialGradient id="_Radial8" cx="0" cy="0" r="1" gradientUnits="userSpaceOnUse" gradientTransform="matrix(-0.841811,0.841811,1.044702,1.044702,0.762545,-0.294881)"><stop offset="0" style="stop-color:rgb(0,232,42);stop-opacity:1"/><stop offset="0.27" style="stop-color:rgb(0,155,86);stop-opacity:1"/><stop offset="0.64" style="stop-color:rgb(0,124,68);stop-opacity:1"/><stop offset="1" style="stop-color:rgb(0,93,54);stop-opacity:1"/></radialGradient>
        <radialGradient id="_Radial9" cx="0" cy="0" r="1" gradientUnits="userSpaceOnUse" gradientTransform="matrix(-0.841811,0.841811,1.044702,1.044702,0.762545,-0.294881)"><stop offset="0" style="stop-color:rgb(0,232,42);stop-opacity:1"/><stop offset="0.27" style="stop-color:rgb(0,155,86);stop-opacity:1"/><stop offset="0.64" style="stop-color:rgb(0,124,68);stop-opacity:1"/><stop offset="1" style="stop-color:rgb(0,93,54);stop-opacity:1"/></radialGradient>
        <radialGradient id="_Radial10" cx="0" cy="0" r="1" gradientUnits="userSpaceOnUse" gradientTransform="matrix(-0.841811,0.841811,1.044702,1.044702,0.762545,-0.294881)"><stop offset="0" style="stop-color:rgb(0,232,42);stop-opacity:1"/><stop offset="0.27" style="stop-color:rgb(0,155,86);stop-opacity:1"/><stop offset="0.64" style="stop-color:rgb(0,124,68);stop-opacity:1"/><stop offset="1" style="stop-color:rgb(0,93,54);stop-opacity:1"/></radialGradient>
        <radialGradient id="_Radial11" cx="0" cy="0" r="1" gradientUnits="userSpaceOnUse" gradientTransform="matrix(-0.841811,0.841811,1.044702,1.044702,0.762545,-0.294881)"><stop offset="0" style="stop-color:rgb(0,232,42);stop-opacity:1"/><stop offset="0.27" style="stop-color:rgb(0,155,86);stop-opacity:1"/><stop offset="0.64" style="stop-color:rgb(0,124,68);stop-opacity:1"/><stop offset="1" style="stop-color:rgb(0,93,54);stop-opacity:1"/></radialGradient>
        <radialGradient id="_Radial12" cx="0" cy="0" r="1" gradientUnits="userSpaceOnUse" gradientTransform="matrix(-0.841811,0.841811,1.044702,1.044702,0.762545,-0.294881)"><stop offset="0" style="stop-color:rgb(0,232,42);stop-opacity:1"/><stop offset="0.27" style="stop-color:rgb(0,155,86);stop-opacity:1"/><stop offset="0.64" style="stop-color:rgb(0,124,68);stop-opacity:1"/><stop offset="1" style="stop-color:rgb(0,93,54);stop-opacity:1"/></radialGradient>
    </defs>
</svg>
