<?xml version="1.0" encoding="UTF-8" standalone="no"?>
<!DOCTYPE svg PUBLIC "-//W3C//DTD SVG 1.1//EN" "http://www.w3.org/Graphics/SVG/1.1/DTD/svg11.dtd">
<svg width="400px" height="400px" version="1.1" xmlns="http://www.w3.org/2000/svg" xmlns:xlink="http://www.w3.org/1999/xlink" xml:space="preserve" xmlns:serif="http://www.serif.com/" style="fill-rule:evenodd;clip-rule:evenodd;stroke-linejoin:round;stroke-miterlimit:2;">
    <g>
        <g>
            <g transform="matrix(107.885529,17.210614,17.210614,-107.885529,84.076646,105.842162)">
                <path d="M-0.129,0.624C-0.129,0.624 -0.12,0.611 -0.119,0.574C-0.114,0.376 -0.136,-0.112 0.099,-0.352C0.598,-0.863 1.322,-0.152 0.831,0.358C0.598,0.601 0.1,0.597 -0.079,0.614C-0.114,0.618 -0.129,0.624 -0.129,0.624Z" style="fill:rgb(35,32,31);fill-rule:nonzero;"/>
            </g>
            <g transform="matrix(49.677558,-97.301761,-97.301761,-49.677558,74.652625,281.190874)">
                <path d="M-0.129,0.624C-0.129,0.624 -0.12,0.611 -0.119,0.574C-0.114,0.376 -0.136,-0.112 0.099,-0.352C0.598,-0.863 1.322,-0.152 0.831,0.358C0.598,0.601 0.1,0.597 -0.079,0.614C-0.114,0.618 -0.129,0.624 -0.129,0.624Z" style="fill:rgb(35,32,31);fill-rule:nonzero;"/>
            </g>
            <g transform="matrix(-77.238596,-77.263781,-77.263781,77.238596,238.123195,343.65307)">
                <path d="M-0.129,0.624C-0.129,0.624 -0.12,0.611 -0.119,0.574C-0.114,0.376 -0.136,-0.112 0.099,-0.352C0.598,-0.863 1.322,-0.152 0.831,0.358C0.598,0.601 0.1,0.597 -0.079,0.614C-0.114,0.618 -0.129,0.624 -0.129,0.624Z" style="fill:rgb(35,32,31);fill-rule:nonzero;"/>
            </g>
            <g transform="matrix(-97.339259,49.604044,49.604044,97.339259,347.328013,207.930596)">
                <path d="M-0.129,0.624C-0.129,0.624 -0.12,0.611 -0.119,0.574C-0.114,0.376 -0.136,-0.112 0.099,-0.352C0.598,-0.863 1.322,-0.152 0.831,0.358C0.598,0.601 0.1,0.597 -0.079,0.614C-0.114,0.618 -0.129,0.624 -0.129,0.624Z" style="fill:rgb(35,32,31);fill-rule:nonzero;"/>
            </g>
            <g transform="matrix(17.07164,107.907607,107.907607,-17.07164,252.477899,62.798639)">
                <path d="M-0.129,0.624C-0.129,0.624 -0.12,0.611 -0.119,0.574C-0.114,0.376 -0.136,-0.112 0.099,-0.352C0.598,-0.863 1.322,-0.152 0.831,0.358C0.598,0.601 0.1,0.597 -0.079,0.614C-0.114,0.618 -0.129,0.624 -0.129,0.624Z" style="fill:rgb(35,32,31);fill-rule:nonzero;"/>
            </g>
        </g>
        <g>
            <g transform="matrix(5.555556,0,0,5.555556,0,0)">
                <g transform="matrix(17.513613,-8.943339,-8.943339,-17.513613,9.874318,34.070559)">
                    <path d="M-0.129,0.624C-0.129,0.624 -0.12,0.611 -0.119,0.574C-0.114,0.376 -0.136,-0.112 0.099,-0.352C0.598,-0.863 1.322,-0.152 0.831,0.358C0.598,0.601 0.1,0.597 -0.079,0.614C-0.114,0.618 -0.129,0.624 -0.129,0.624Z" style="fill:rgb(35,32,31);fill-rule:nonzero;"/>
                </g>
                <g transform="matrix(14.59185,-7.451339,-7.451339,-14.59185,10.614845,33.168883)">
                    <path d="M-0.1,0.599C-0.1,0.599 -0.149,-0.104 0.15,-0.397C0.305,-0.549 0.477,-0.555 0.485,-0.556C0.741,-0.6 1.062,-0.257 1.021,-0.004C1.015,0.031 1.023,0.14 0.871,0.312C0.612,0.605 -0.1,0.599 -0.1,0.599Z" style="fill:white;fill-rule:nonzero;"/>
                </g>
            </g>
            <g transform="matrix(5.555556,0,0,5.555556,0,0)">
                <g transform="matrix(-3.080253,-19.422204,-19.422204,3.080253,26.075027,60.243946)">
                    <path d="M-0.129,0.624C-0.129,0.624 -0.12,0.611 -0.119,0.574C-0.114,0.376 -0.136,-0.112 0.099,-0.352C0.598,-0.863 1.322,-0.152 0.831,0.358C0.598,0.601 0.1,0.597 -0.079,0.614C-0.114,0.618 -0.129,0.624 -0.129,0.624Z" style="fill:rgb(35,32,31);fill-rule:nonzero;"/>
                </g>
                <g transform="matrix(-2.56638,-16.182034,-16.182034,2.56638,25.446995,59.260598)">
                    <path d="M-0.1,0.599C-0.1,0.599 -0.149,-0.104 0.15,-0.397C0.305,-0.549 0.477,-0.555 0.485,-0.556C0.741,-0.6 1.062,-0.257 1.021,-0.004C1.015,0.031 1.023,0.14 0.871,0.312C0.612,0.605 -0.1,0.599 -0.1,0.599Z" style="fill:white;fill-rule:nonzero;"/>
                </g>
            </g>
            <g transform="matrix(5.555556,0,0,5.555556,0,0)">
                <g transform="matrix(-19.422461,-3.078629,-3.078629,19.422461,55.903353,52.825299)">
                    <path d="M-0.129,0.624C-0.129,0.624 -0.12,0.611 -0.119,0.574C-0.114,0.376 -0.136,-0.112 0.099,-0.352C0.598,-0.863 1.322,-0.152 0.831,0.358C0.598,0.601 0.1,0.597 -0.079,0.614C-0.114,0.618 -0.129,0.624 -0.129,0.624Z" style="fill:rgb(35,32,31);fill-rule:nonzero;"/>
                </g>
                <g transform="matrix(-16.182249,-2.565027,-2.565027,16.182249,54.773964,53.118354)">
                    <path d="M-0.1,0.599C-0.1,0.599 -0.149,-0.104 0.15,-0.397C0.305,-0.549 0.477,-0.555 0.485,-0.556C0.741,-0.6 1.062,-0.257 1.021,-0.004C1.015,0.031 1.023,0.14 0.871,0.312C0.612,0.605 -0.1,0.599 -0.1,0.599Z" style="fill:white;fill-rule:nonzero;"/>
                </g>
            </g>
            <g transform="matrix(5.555556,0,0,5.555556,0,0)">
                <g transform="matrix(-8.92008,17.525471,17.525471,8.92008,57.893135,21.911802)">
                    <path d="M-0.129,0.624C-0.129,0.624 -0.12,0.611 -0.119,0.574C-0.114,0.376 -0.136,-0.112 0.099,-0.352C0.598,-0.863 1.322,-0.152 0.831,0.358C0.598,0.601 0.1,0.597 -0.079,0.614C-0.114,0.618 -0.129,0.624 -0.129,0.624Z" style="fill:rgb(35,32,31);fill-rule:nonzero;"/>
                </g>
                <g transform="matrix(-7.43196,14.60173,14.60173,7.43196,57.823495,23.076512)">
                    <path d="M-0.1,0.599C-0.1,0.599 -0.149,-0.104 0.15,-0.397C0.305,-0.549 0.477,-0.555 0.485,-0.556C0.741,-0.6 1.062,-0.257 1.021,-0.004C1.015,0.031 1.023,0.14 0.871,0.312C0.612,0.605 -0.1,0.599 -0.1,0.599Z" style="fill:white;fill-rule:nonzero;"/>
                </g>
            </g>
            <g transform="matrix(5.555556,0,0,5.555556,0,0)">
                <g transform="matrix(13.905214,13.905214,13.905214,-13.905214,29.121461,10.469282)">
                    <path d="M-0.129,0.624C-0.129,0.624 -0.12,0.611 -0.119,0.574C-0.114,0.376 -0.136,-0.112 0.099,-0.352C0.598,-0.863 1.322,-0.152 0.831,0.358C0.598,0.601 0.1,0.597 -0.079,0.614C-0.114,0.618 -0.129,0.624 -0.129,0.624Z" style="fill:rgb(35,32,31);fill-rule:nonzero;"/>
                </g>
                <g transform="matrix(11.585434,11.585434,11.585434,-11.585434,30.207461,10.895902)">
                    <path d="M-0.1,0.599C-0.1,0.599 -0.149,-0.104 0.15,-0.397C0.305,-0.549 0.477,-0.555 0.485,-0.556C0.741,-0.6 1.062,-0.257 1.021,-0.004C1.015,0.031 1.023,0.14 0.871,0.312C0.612,0.605 -0.1,0.599 -0.1,0.599Z" style="fill:white;fill-rule:nonzero;"/>
                </g>
            </g>
        </g>
        <g id="_2" serif:id="2" transform="matrix(-41.288668,81.12072,81.12072,41.288668,321.241636,128.202845)">
            <path d="M-0.1,0.599C-0.1,0.599 -0.149,-0.104 0.15,-0.397C0.305,-0.549 0.477,-0.555 0.485,-0.556C0.741,-0.6 1.062,-0.257 1.021,-0.004C1.015,0.031 1.023,0.14 0.871,0.312C0.612,0.605 -0.1,0.599 -0.1,0.599Z" style="fill:url(#_Radial1);fill-rule:nonzero;"/>
        </g>
        <g id="_1" serif:id="1" transform="matrix(64.36352,64.36352,64.36352,-64.36352,167.819227,60.532788)">
            <path d="M-0.1,0.599C-0.1,0.599 -0.149,-0.104 0.15,-0.397C0.305,-0.549 0.477,-0.555 0.485,-0.556C0.741,-0.6 1.062,-0.257 1.021,-0.004C1.015,0.031 1.023,0.14 0.871,0.312C0.612,0.605 -0.1,0.599 -0.1,0.599Z" style="fill:url(#_Radial2);fill-rule:nonzero;"/>
        </g>
        <g>
            <g transform="matrix(-10.209392,29.109248,29.109248,10.209392,122.50446,155.944451)">
                <path d="M0.516,-0.323L0.015,0.283L1.06,0.285L0.516,-0.323Z" style="fill:rgb(35,32,31);fill-rule:nonzero;"/>
            </g>
            <g transform="matrix(24.486731,18.761131,18.761131,-24.486731,134.015703,259.937656)">
                <path d="M0.516,-0.323L0.015,0.283L1.06,0.285L0.516,-0.323Z" style="fill:rgb(35,32,31);fill-rule:nonzero;"/>
            </g>
            <g transform="matrix(24.9685,-18.115021,-18.115021,-24.9685,238.616563,279.942533)">
                <path d="M0.516,-0.323L0.015,0.283L1.06,0.285L0.516,-0.323Z" style="fill:rgb(35,32,31);fill-rule:nonzero;"/>
            </g>
            <g transform="matrix(-10.209392,-29.109248,-29.109248,10.209392,287.380896,185.999036)">
                <path d="M0.516,-0.323L0.015,0.283L1.06,0.285L0.516,-0.323Z" style="fill:rgb(35,32,31);fill-rule:nonzero;"/>
            </g>
            <g transform="matrix(-30.84769,-0,-0,30.84769,215.924742,112.291091)">
                <path d="M0.516,-0.323L0.015,0.283L1.06,0.285L0.516,-0.323Z" style="fill:rgb(35,32,31);fill-rule:nonzero;"/>
            </g>
        </g>
        <g transform="matrix(5.555556,0,0,5.555556,0,0)">
            <g transform="matrix(-1.501736,0,0,1.501736,35.881994,48.853358)">
                <path d="M0,-17.118C4.719,-17.118 8.559,-13.278 8.559,-8.558C8.559,-3.84 4.719,0 0,0C-4.719,0 -8.559,-3.84 -8.559,-8.558C-8.559,-13.278 -4.719,-17.118 0,-17.118" style="fill:white;fill-rule:nonzero;"/>
            </g>
            <g transform="matrix(1.501736,0,0,1.501736,35.881994,50.573597)">
                <path d="M0,-19.409C-5.351,-19.409 -9.705,-15.055 -9.705,-9.704C-9.705,-4.354 -5.351,0 0,0C5.351,0 9.705,-4.354 9.705,-9.704C9.705,-15.055 5.351,-19.409 0,-19.409M0,-1.146C-4.719,-1.146 -8.559,-4.985 -8.559,-9.704C-8.559,-14.424 -4.719,-18.263 0,-18.263C4.719,-18.263 8.559,-14.424 8.559,-9.704C8.559,-4.985 4.719,-1.146 0,-1.146" style="fill:rgb(35,31,32);fill-rule:nonzero;"/>
            </g>
            <g transform="matrix(0,-1.501736,-1.501736,0,35.881693,24.588609)">
                <path d="M-1.259,-1.259C-1.955,-1.259 -2.519,-0.696 -2.519,0.001C-2.519,0.697 -1.955,1.259 -1.259,1.259C-0.563,1.259 0.001,0.697 0.001,0.001C0.001,-0.696 -0.563,-1.259 -1.259,-1.259" style="fill:rgb(35,31,32);fill-rule:nonzero;"/>
            </g>
            <g transform="matrix(0,-1.501736,-1.501736,0,35.882444,42.976765)">
                <path d="M-1.26,-1.259C-0.564,-1.259 0.001,-0.696 0.001,0.001C0.001,0.697 -0.564,1.26 -1.26,1.26C-1.955,1.26 -2.52,0.697 -2.52,0.001C-2.52,-0.696 -1.955,-1.259 -1.26,-1.259" style="fill:rgb(35,31,32);fill-rule:nonzero;"/>
            </g>
            <g transform="matrix(-1.501736,0,0,1.501736,26.365643,37.529668)">
                <path d="M0,-2.52C-0.695,-2.52 -1.26,-1.957 -1.26,-1.26C-1.26,-0.564 -0.695,0 0,0C0.696,0 1.26,-0.564 1.26,-1.26C1.26,-1.957 0.696,-2.52 0,-2.52" style="fill:rgb(35,31,32);fill-rule:nonzero;"/>
            </g>
            <g transform="matrix(-1.501736,0,0,1.501736,45.397593,37.817101)">
                <path d="M0,-2.519C0.696,-2.519 1.26,-1.956 1.26,-1.259C1.26,-0.563 0.696,0 0,0C-0.696,0 -1.26,-0.563 -1.26,-1.259C-1.26,-1.956 -0.696,-2.519 0,-2.519" style="fill:rgb(35,31,32);fill-rule:nonzero;"/>
            </g>
            <g transform="matrix(-1.061888,-1.061888,-1.061888,1.061888,27.883512,29.52991)">
                <path d="M-0.892,-2.149C-1.588,-2.149 -2.151,-1.586 -2.151,-0.89C-2.151,-0.194 -1.588,0.369 -0.892,0.369C-0.195,0.37 0.368,-0.193 0.368,-0.891C0.368,-1.587 -0.195,-2.15 -0.892,-2.149" style="fill:rgb(35,31,32);fill-rule:nonzero;"/>
            </g>
            <g transform="matrix(-1.061888,-1.061888,-1.061888,1.061888,40.491996,42.540591)">
                <path d="M-0.891,-2.152C-0.196,-2.151 0.368,-1.588 0.369,-0.892C0.369,-0.196 -0.194,0.368 -0.891,0.368C-1.587,0.368 -2.151,-0.196 -2.151,-0.892C-2.15,-1.588 -1.586,-2.152 -0.891,-2.152" style="fill:rgb(35,31,32);fill-rule:nonzero;"/>
            </g>
            <g transform="matrix(-1.061888,1.061888,1.061888,1.061888,31.50572,42.975564)">
                <path d="M0.891,-2.15C0.195,-2.151 -0.369,-1.586 -0.369,-0.891C-0.369,-0.195 0.195,0.369 0.891,0.369C1.586,0.369 2.151,-0.195 2.15,-0.891C2.151,-1.586 1.586,-2.15 0.891,-2.15" style="fill:rgb(35,31,32);fill-rule:nonzero;"/>
            </g>
            <g transform="matrix(-1.299048,0.753448,0.753448,1.299048,34.089428,37.882262)">
                <path d="M0.681,-2.533C-0.069,-2.533 -0.677,-1.926 -0.677,-1.174C-0.677,-0.424 -0.07,0.183 0.681,0.183C1.432,0.182 2.04,-0.426 2.039,-1.176C2.04,-1.926 1.431,-2.533 0.681,-2.533" style="fill:rgb(35,31,32);fill-rule:nonzero;"/>
            </g>
            <g transform="matrix(-1.06159,1.062186,1.062186,1.06159,44.277615,29.529309)">
                <path d="M0.891,-2.15C1.587,-2.15 2.151,-1.587 2.151,-0.891C2.152,-0.195 1.588,0.369 0.891,0.369C0.195,0.369 -0.369,-0.194 -0.369,-0.89C-0.368,-1.586 0.194,-2.151 0.891,-2.15" style="fill:rgb(35,31,32);fill-rule:nonzero;"/>
            </g>
            <g transform="matrix(-1.299048,0.753448,0.753448,1.299048,40.403253,35.784986)">
                <path d="M0.681,-2.534C1.432,-2.534 2.039,-1.927 2.04,-1.176C2.04,-0.424 1.433,0.183 0.681,0.182C-0.068,0.184 -0.676,-0.424 -0.677,-1.175C-0.677,-1.927 -0.069,-2.535 0.681,-2.534" style="fill:rgb(35,31,32);fill-rule:nonzero;"/>
            </g>
        </g>
    </g>
    <defs>
        <radialGradient id="_Radial1" cx="0" cy="0" r="1" gradientUnits="userSpaceOnUse" gradientTransform="matrix(-0.839991,0.870918,1.042443,1.080824,0.77448,-0.310345)"><stop offset="0" style="stop-color:rgb(0,232,42);stop-opacity:1"/><stop offset="0.27" style="stop-color:rgb(0,155,86);stop-opacity:1"/><stop offset="0.64" style="stop-color:rgb(0,124,68);stop-opacity:1"/><stop offset="1" style="stop-color:rgb(0,93,54);stop-opacity:1"/></radialGradient>
        <radialGradient id="_Radial2" cx="0" cy="0" r="1" gradientUnits="userSpaceOnUse" gradientTransform="matrix(-0.839991,0.870918,1.042443,1.080824,0.77448,-0.310345)"><stop offset="0" style="stop-color:rgb(0,232,42);stop-opacity:1"/><stop offset="0.27" style="stop-color:rgb(0,155,86);stop-opacity:1"/><stop offset="0.64" style="stop-color:rgb(0,124,68);stop-opacity:1"/><stop offset="1" style="stop-color:rgb(0,93,54);stop-opacity:1"/></radialGradient>
    </defs>
</svg>
